Yantramanav-Medium.ufo
<glyph name="exclam" format="1">
  <advance width="697"/>
  <unicode hex="0021"/>
  <outline>
    <contour>
      <point x="444" y="440" type="line"/>
      <point x="228" y="440" type="line"/>
      <point x="228" y="1310" type="line"/>
      <point x="444" y="1310" type="line"/>
    </contour>
    <contour>
      <point x="445" y="0" type="line"/>
      <point x="228" y="0" type="line"/>
      <point x="228" y="205" type="line"/>
      <point x="445" y="205" type="line"/>
    </contour>
  </outline>
</glyph>
<glyph name="numbersign" format="1">
  <advance width="1125"/>
  <unicode hex="0023"/>
  <outline>
    <contour>
      <point x="615" y="369" type="line"/>
      <point x="412" y="369" type="line"/>
      <point x="344" y="0" type="line"/>
      <point x="194" y="0" type="line"/>
      <point x="262" y="369" type="line"/>
      <point x="54" y="369" type="line"/>
      <point x="54" y="511" type="line"/>
      <point x="289" y="511" type="line"/>
      <point x="341" y="793" type="line"/>
      <point x="122" y="793" type="line"/>
      <point x="122" y="936" type="line"/>
      <point x="368" y="936" type="line"/>
      <point x="438" y="1310" type="line"/>
      <point x="589" y="1310" type="line"/>
      <point x="518" y="936" type="line"/>
      <point x="720" y="936" type="line"/>
      <point x="790" y="1310" type="line"/>
      <point x="941" y="1310" type="line"/>
      <point x="871" y="936" type="line"/>
      <point x="1058" y="936" type="line"/>
      <point x="1058" y="793" type="line"/>
      <point x="844" y="793" type="line"/>
      <point x="792" y="511" type="line"/>
      <point x="991" y="511" type="line"/>
      <point x="991" y="369" type="line"/>
      <point x="765" y="369" type="line"/>
      <point x="697" y="0" type="line"/>
      <point x="546" y="0" type="line"/>
    </contour>
    <contour>
      <point x="439" y="511" type="line"/>
      <point x="642" y="511" type="line"/>
      <point x="694" y="793" type="line"/>
      <point x="491" y="793" type="line"/>
    </contour>
  </outline>
</glyph>
<glyph name="dollar" format="1">
  <advance width="1048"/>
  <unicode hex="0024"/>
  <outline>
    <contour>
      <point x="737" y="321" type="qcurve" smooth="yes"/>
      <point x="737" y="397"/>
      <point x="637" y="498"/>
      <point x="520" y="540" type="qcurve" smooth="yes"/>
      <point x="330" y="604"/>
      <point x="140" y="787"/>
      <point x="140" y="945" type="qcurve" smooth="yes"/>
      <point x="140" y="1094"/>
      <point x="322" y="1287"/>
      <point x="478" y="1305" type="qcurve"/>
      <point x="478" y="1501" type="line"/>
      <point x="622" y="1501" type="line"/>
      <point x="622" y="1303" type="line"/>
      <point x="776" y="1279"/>
      <point x="950" y="1063"/>
      <point x="950" y="883" type="qcurve"/>
      <point x="732" y="883" type="line"/>
      <point x="732" y="996"/>
      <point x="631" y="1127"/>
      <point x="543" y="1127" type="qcurve" smooth="yes"/>
      <point x="451" y="1127"/>
      <point x="359" y="1029"/>
      <point x="359" y="946" type="qcurve" smooth="yes"/>
      <point x="359" y="869"/>
      <point x="455" y="772"/>
      <point x="581" y="728" type="qcurve" smooth="yes"/>
      <point x="770" y="659"/>
      <point x="956" y="479"/>
      <point x="956" y="323" type="qcurve" smooth="yes"/>
      <point x="956" y="167"/>
      <point x="767" y="-18"/>
      <point x="603" y="-35" type="qcurve"/>
      <point x="603" y="-211" type="line"/>
      <point x="460" y="-211" type="line"/>
      <point x="460" y="-36" type="line"/>
      <point x="299" y="-19"/>
      <point x="91" y="180"/>
      <point x="95" y="373" type="qcurve"/>
      <point x="96" y="378" type="line"/>
      <point x="309" y="378" type="line"/>
      <point x="309" y="250"/>
      <point x="434" y="140"/>
      <point x="527" y="140" type="qcurve" smooth="yes"/>
      <point x="627" y="140"/>
      <point x="737" y="237"/>
    </contour>
  </outline>
</glyph>
<glyph name="percent" format="1">
  <advance width="1354"/>
  <unicode hex="0025"/>
  <outline>
    <contour>
      <point x="90" y="1056" type="line" smooth="yes"/>
      <point x="90" y="1172"/>
      <point x="239" y="1327"/>
      <point x="367" y="1327" type="qcurve" smooth="yes"/>
      <point x="497" y="1327"/>
      <point x="645" y="1172"/>
      <point x="645" y="1056" type="qcurve" smooth="yes"/>
      <point x="645" y="987" type="line" smooth="yes"/>
      <point x="645" y="872"/>
      <point x="497" y="718"/>
      <point x="369" y="718" type="qcurve" smooth="yes"/>
      <point x="239" y="718"/>
      <point x="90" y="872"/>
      <point x="90" y="987" type="qcurve" smooth="yes"/>
    </contour>
    <contour>
      <point x="242" y="987" type="line" smooth="yes"/>
      <point x="242" y="929"/>
      <point x="308" y="849"/>
      <point x="369" y="849" type="qcurve" smooth="yes"/>
      <point x="428" y="849"/>
      <point x="492" y="929"/>
      <point x="492" y="987" type="qcurve" smooth="yes"/>
      <point x="492" y="1056" type="line" smooth="yes"/>
      <point x="492" y="1115"/>
      <point x="427" y="1196"/>
      <point x="367" y="1196" type="qcurve" smooth="yes"/>
      <point x="307" y="1196"/>
      <point x="242" y="1115"/>
      <point x="242" y="1056" type="qcurve" smooth="yes"/>
    </contour>
    <contour>
      <point x="720" y="319" type="line" smooth="yes"/>
      <point x="720" y="434"/>
      <point x="869" y="589"/>
      <point x="997" y="589" type="qcurve" smooth="yes"/>
      <point x="1127" y="589"/>
      <point x="1275" y="434"/>
      <point x="1275" y="319" type="qcurve" smooth="yes"/>
      <point x="1275" y="249" type="line" smooth="yes"/>
      <point x="1275" y="133"/>
      <point x="1127" y="-21"/>
      <point x="999" y="-21" type="qcurve" smooth="yes"/>
      <point x="869" y="-21"/>
      <point x="720" y="134"/>
      <point x="720" y="249" type="qcurve" smooth="yes"/>
    </contour>
    <contour>
      <point x="872" y="249" type="line" smooth="yes"/>
      <point x="872" y="191"/>
      <point x="940" y="110"/>
      <point x="999" y="110" type="qcurve" smooth="yes"/>
      <point x="1062" y="110"/>
      <point x="1123" y="189"/>
      <point x="1123" y="249" type="qcurve" smooth="yes"/>
      <point x="1123" y="319" type="line" smooth="yes"/>
      <point x="1123" y="377"/>
      <point x="1058" y="458"/>
      <point x="997" y="458" type="qcurve" smooth="yes"/>
      <point x="937" y="458"/>
      <point x="872" y="377"/>
      <point x="872" y="319" type="qcurve" smooth="yes"/>
    </contour>
    <contour>
      <point x="414" y="96" type="line"/>
      <point x="302" y="161" type="line"/>
      <point x="941" y="1185" type="line"/>
      <point x="1054" y="1120" type="line"/>
    </contour>
  </outline>
</glyph>
<glyph name="ampersand" format="1">
  <advance width="1178"/>
  <unicode hex="0026"/>
  <outline>
    <contour>
      <point x="56" y="352" type="qcurve" smooth="yes"/>
      <point x="56" y="460"/>
      <point x="178" y="619"/>
      <point x="301" y="700" type="qcurve"/>
      <point x="235" y="785"/>
      <point x="170" y="924"/>
      <point x="170" y="996" type="qcurve" smooth="yes"/>
      <point x="170" y="1150"/>
      <point x="356" y="1327"/>
      <point x="513" y="1327" type="qcurve" smooth="yes"/>
      <point x="656" y="1327"/>
      <point x="835" y="1155"/>
      <point x="835" y="1034" type="qcurve" smooth="yes"/>
      <point x="835" y="946"/>
      <point x="743" y="808"/>
      <point x="658" y="746" type="qcurve" smooth="yes"/>
      <point x="568" y="681" type="line"/>
      <point x="842" y="355" type="line"/>
      <point x="878" y="412"/>
      <point x="919" y="547"/>
      <point x="919" y="623" type="qcurve"/>
      <point x="1096" y="623" type="line"/>
      <point x="1096" y="499"/>
      <point x="1031" y="292"/>
      <point x="964" y="211" type="qcurve"/>
      <point x="1140" y="2" type="line"/>
      <point x="1139" y="-2" type="line"/>
      <point x="892" y="-2" type="line"/>
      <point x="819" y="83" type="line"/>
      <point x="745" y="32"/>
      <point x="577" y="-21"/>
      <point x="483" y="-21" type="qcurve" smooth="yes"/>
      <point x="288" y="-21"/>
      <point x="56" y="186"/>
    </contour>
    <contour>
      <point x="490" y="154" type="qcurve" smooth="yes"/>
      <point x="545" y="154"/>
      <point x="655" y="186"/>
      <point x="705" y="218" type="qcurve"/>
      <point x="410" y="566" type="line"/>
      <point x="383" y="546" type="line" smooth="yes"/>
      <point x="318" y="496"/>
      <point x="275" y="402"/>
      <point x="275" y="359" type="qcurve" smooth="yes"/>
      <point x="275" y="269"/>
      <point x="388" y="154"/>
    </contour>
    <contour>
      <point x="375" y="999" type="qcurve" smooth="yes"/>
      <point x="375" y="956"/>
      <point x="419" y="864"/>
      <point x="463" y="808" type="qcurve"/>
      <point x="565" y="876" type="line" smooth="yes"/>
      <point x="617" y="910"/>
      <point x="652" y="983"/>
      <point x="652" y="1027" type="qcurve" smooth="yes"/>
      <point x="652" y="1075"/>
      <point x="575" y="1152"/>
      <point x="513" y="1152" type="qcurve" smooth="yes"/>
      <point x="446" y="1152"/>
      <point x="375" y="1064"/>
    </contour>
  </outline>
</glyph>
<glyph name="quotesingle" format="1">
  <advance width="597"/>
  <unicode hex="0027"/>
  <outline>
    <contour>
      <point x="403" y="1188" type="line"/>
      <point x="298" y="931" type="line"/>
      <point x="200" y="931" type="line"/>
      <point x="188" y="1169" type="line"/>
      <point x="188" y="1404" type="line"/>
      <point x="403" y="1404" type="line"/>
    </contour>
  </outline>
</glyph>
<glyph name="asterisk" format="1">
  <advance width="806"/>
  <unicode hex="002A"/>
  <outline>
    <contour>
      <point x="293" y="934" type="line"/>
      <point x="24" y="1014" type="line"/>
      <point x="72" y="1166" type="line"/>
      <point x="338" y="1061" type="line"/>
      <point x="327" y="1370" type="line"/>
      <point x="483" y="1370" type="line"/>
      <point x="470" y="1055" type="line"/>
      <point x="732" y="1158" type="line"/>
      <point x="779" y="1004" type="line"/>
      <point x="507" y="925" type="line"/>
      <point x="682" y="686" type="line"/>
      <point x="555" y="591" type="line"/>
      <point x="396" y="849" type="line"/>
      <point x="239" y="598" type="line"/>
      <point x="111" y="690" type="line"/>
    </contour>
  </outline>
</glyph>
<glyph name="plus" format="1">
  <advance width="1027"/>
  <unicode hex="002B"/>
  <outline>
    <contour>
      <point x="617" y="736" type="line"/>
      <point x="959" y="736" type="line"/>
      <point x="959" y="536" type="line"/>
      <point x="617" y="536" type="line"/>
      <point x="617" y="146" type="line"/>
      <point x="405" y="146" type="line"/>
      <point x="405" y="536" type="line"/>
      <point x="61" y="536" type="line"/>
      <point x="61" y="736" type="line"/>
      <point x="405" y="736" type="line"/>
      <point x="405" y="1100" type="line"/>
      <point x="617" y="1100" type="line"/>
    </contour>
  </outline>
</glyph>
<glyph name="comma" format="1">
  <advance width="416"/>
  <unicode hex="002C"/>
  <outline>
    <contour>
      <point x="327" y="0" type="line"/>
      <point x="187" y="-281" type="line"/>
      <point x="49" y="-281" type="line"/>
      <point x="112" y="8" type="line"/>
      <point x="112" y="186" type="line"/>
      <point x="327" y="186" type="line"/>
    </contour>
  </outline>
</glyph>
<glyph name="hyphen" format="1">
  <advance width="605"/>
  <unicode hex="002D"/>
  <outline>
    <contour>
      <point x="536" y="521" type="line"/>
      <point x="64" y="521" type="line"/>
      <point x="64" y="697" type="line"/>
      <point x="536" y="697" type="line"/>
    </contour>
  </outline>
</glyph>
<glyph name="period" format="1">
  <advance width="515"/>
  <unicode hex="002E"/>
  <outline>
    <contour>
      <point x="356" y="0" type="line"/>
      <point x="138" y="0" type="line"/>
      <point x="138" y="210" type="line"/>
      <point x="356" y="210" type="line"/>
    </contour>
  </outline>
</glyph>
<glyph name="slash" format="1">
  <advance width="755"/>
  <unicode hex="002F"/>
  <outline>
    <contour>
      <point x="203" y="-125" type="line"/>
      <point x="2" y="-125" type="line"/>
      <point x="518" y="1298" type="line"/>
      <point x="718" y="1298" type="line"/>
    </contour>
  </outline>
</glyph>
<glyph name="zero" format="1">
  <advance width="1048"/>
  <unicode hex="0030"/>
  <outline>
    <contour>
      <point x="953" y="503" type="line" smooth="yes"/>
      <point x="953" y="247"/>
      <point x="723" y="-21"/>
      <point x="525" y="-21" type="qcurve" smooth="yes"/>
      <point x="326" y="-21"/>
      <point x="94" y="247"/>
      <point x="94" y="503" type="qcurve" smooth="yes"/>
      <point x="94" y="803" type="line" smooth="yes"/>
      <point x="94" y="1057"/>
      <point x="324" y="1327"/>
      <point x="523" y="1327" type="qcurve" smooth="yes"/>
      <point x="721" y="1327"/>
      <point x="953" y="1057"/>
      <point x="953" y="803" type="qcurve" smooth="yes"/>
    </contour>
    <contour>
      <point x="734" y="836" type="line" smooth="yes"/>
      <point x="734" y="997"/>
      <point x="626" y="1152"/>
      <point x="523" y="1152" type="qcurve" smooth="yes"/>
      <point x="419" y="1152"/>
      <point x="312" y="997"/>
      <point x="312" y="836" type="qcurve" smooth="yes"/>
      <point x="312" y="471" type="line" smooth="yes"/>
      <point x="312" y="309"/>
      <point x="421" y="154"/>
      <point x="525" y="154" type="qcurve" smooth="yes"/>
      <point x="628" y="154"/>
      <point x="734" y="308"/>
      <point x="734" y="471" type="qcurve" smooth="yes"/>
    </contour>
  </outline>
</glyph>
<glyph name="one" format="1">
  <advance width="1048"/>
  <unicode hex="0031"/>
  <outline>
    <contour>
      <point x="646" y="0" type="line"/>
      <point x="428" y="0" type="line"/>
      <point x="428" y="1103" type="line"/>
      <point x="161" y="1103" type="line"/>
      <point x="161" y="1264" type="line"/>
      <point x="646" y="1310" type="line"/>
    </contour>
  </outline>
</glyph>
<glyph name="two" format="1">
  <advance width="1048"/>
  <unicode hex="0032"/>
  <outline>
    <contour>
      <point x="968" y="0" type="line"/>
      <point x="98" y="0" type="line"/>
      <point x="98" y="150" type="line"/>
      <point x="525" y="616" type="line" smooth="yes"/>
      <point x="629" y="730"/>
      <point x="708" y="877"/>
      <point x="708" y="947" type="qcurve" smooth="yes"/>
      <point x="708" y="1035"/>
      <point x="606" y="1154"/>
      <point x="518" y="1154" type="qcurve" smooth="yes"/>
      <point x="403" y="1154"/>
      <point x="292" y="1024"/>
      <point x="292" y="911" type="qcurve"/>
      <point x="80" y="911" type="line"/>
      <point x="78" y="916" type="line"/>
      <point x="74" y="1091"/>
      <point x="311" y="1329"/>
      <point x="518" y="1329" type="qcurve" smooth="yes"/>
      <point x="707" y="1329"/>
      <point x="927" y="1121"/>
      <point x="927" y="952" type="qcurve" smooth="yes"/>
      <point x="927" y="840"/>
      <point x="800" y="635"/>
      <point x="667" y="488" type="qcurve" smooth="yes"/>
      <point x="375" y="180" type="line"/>
      <point x="378" y="175" type="line"/>
      <point x="968" y="175" type="line"/>
    </contour>
  </outline>
</glyph>
<glyph name="three" format="1">
  <advance width="1048"/>
  <unicode hex="0033"/>
  <outline>
    <contour>
      <point x="351" y="752" type="line"/>
      <point x="503" y="752" type="line" smooth="yes"/>
      <point x="609" y="752"/>
      <point x="703" y="857"/>
      <point x="703" y="954" type="qcurve" smooth="yes"/>
      <point x="703" y="1048"/>
      <point x="602" y="1152"/>
      <point x="504" y="1152" type="qcurve" smooth="yes"/>
      <point x="415" y="1152"/>
      <point x="302" y="1050"/>
      <point x="302" y="967" type="qcurve"/>
      <point x="92" y="967" type="line"/>
      <point x="90" y="973" type="line"/>
      <point x="85" y="1123"/>
      <point x="320" y="1327"/>
      <point x="501" y="1327" type="qcurve" smooth="yes"/>
      <point x="693" y="1327"/>
      <point x="922" y="1133"/>
      <point x="922" y="954" type="qcurve" smooth="yes"/>
      <point x="922" y="870"/>
      <point x="819" y="713"/>
      <point x="725" y="670" type="qcurve"/>
      <point x="836" y="631"/>
      <point x="941" y="469"/>
      <point x="941" y="365" type="qcurve" smooth="yes"/>
      <point x="941" y="185"/>
      <point x="694" y="-21"/>
      <point x="501" y="-21" type="qcurve" smooth="yes"/>
      <point x="320" y="-21"/>
      <point x="72" y="173"/>
      <point x="77" y="344" type="qcurve"/>
      <point x="79" y="349" type="line"/>
      <point x="290" y="349" type="line"/>
      <point x="290" y="262"/>
      <point x="407" y="154"/>
      <point x="504" y="154" type="qcurve" smooth="yes"/>
      <point x="606" y="154"/>
      <point x="723" y="263"/>
      <point x="723" y="364" type="qcurve" smooth="yes"/>
      <point x="723" y="475"/>
      <point x="616" y="580"/>
      <point x="503" y="580" type="qcurve" smooth="yes"/>
      <point x="351" y="580" type="line"/>
    </contour>
  </outline>
</glyph>
<glyph name="four" format="1">
  <advance width="1048"/>
  <unicode hex="0034"/>
  <outline>
    <contour>
      <point x="836" y="467" type="line"/>
      <point x="1002" y="467" type="line"/>
      <point x="1002" y="291" type="line"/>
      <point x="836" y="291" type="line"/>
      <point x="836" y="0" type="line"/>
      <point x="618" y="0" type="line"/>
      <point x="618" y="291" type="line"/>
      <point x="56" y="291" type="line"/>
      <point x="50" y="425" type="line"/>
      <point x="611" y="1310" type="line"/>
      <point x="836" y="1310" type="line"/>
    </contour>
    <contour>
      <point x="266" y="467" type="line"/>
      <point x="618" y="467" type="line"/>
      <point x="618" y="999" type="line"/>
      <point x="613" y="1001" type="line"/>
      <point x="595" y="962" type="line"/>
    </contour>
  </outline>
</glyph>
<glyph name="five" format="1">
  <advance width="1048"/>
  <unicode hex="0035"/>
  <outline>
    <contour>
      <point x="140" y="584" type="line"/>
      <point x="216" y="1308" type="line"/>
      <point x="908" y="1308" type="line"/>
      <point x="908" y="1119" type="line"/>
      <point x="398" y="1119" type="line"/>
      <point x="358" y="791" type="line"/>
      <point x="397" y="820"/>
      <point x="499" y="857"/>
      <point x="563" y="858" type="qcurve" smooth="yes"/>
      <point x="747" y="860"/>
      <point x="956" y="623"/>
      <point x="956" y="416" type="qcurve" smooth="yes"/>
      <point x="956" y="224"/>
      <point x="736" y="-21"/>
      <point x="528" y="-21" type="qcurve" smooth="yes"/>
      <point x="356" y="-21"/>
      <point x="117" y="169"/>
      <point x="122" y="344" type="qcurve"/>
      <point x="123" y="348" type="line"/>
      <point x="328" y="355" type="line"/>
      <point x="328" y="260"/>
      <point x="439" y="154"/>
      <point x="528" y="154" type="qcurve" smooth="yes"/>
      <point x="630" y="154"/>
      <point x="737" y="297"/>
      <point x="737" y="415" type="qcurve" smooth="yes"/>
      <point x="737" y="533"/>
      <point x="627" y="682"/>
      <point x="526" y="682" type="qcurve" smooth="yes"/>
      <point x="436" y="682"/>
      <point x="348" y="623"/>
      <point x="329" y="569" type="qcurve"/>
    </contour>
  </outline>
</glyph>
<glyph name="six" format="1">
  <advance width="1048"/>
  <unicode hex="0036"/>
  <outline>
    <contour>
      <point x="612" y="1327" type="qcurve" smooth="yes"/>
      <point x="682" y="1327"/>
      <point x="812" y="1298"/>
      <point x="863" y="1273" type="qcurve"/>
      <point x="822" y="1104" type="line"/>
      <point x="771" y="1126"/>
      <point x="676" y="1150"/>
      <point x="613" y="1150" type="qcurve" smooth="yes"/>
      <point x="482" y="1150"/>
      <point x="322" y="947"/>
      <point x="322" y="776" type="qcurve" smooth="yes"/>
      <point x="322" y="769" type="line"/>
      <point x="376" y="819"/>
      <point x="519" y="873"/>
      <point x="605" y="873" type="qcurve" smooth="yes"/>
      <point x="780" y="873"/>
      <point x="985" y="627"/>
      <point x="985" y="437" type="qcurve" smooth="yes"/>
      <point x="985" y="236"/>
      <point x="751" y="-21"/>
      <point x="561" y="-21" type="qcurve" smooth="yes"/>
      <point x="361" y="-21"/>
      <point x="104" y="260"/>
      <point x="104" y="512" type="qcurve" smooth="yes"/>
      <point x="104" y="762" type="line" smooth="yes"/>
      <point x="104" y="1018"/>
      <point x="393" y="1327"/>
    </contour>
    <contour>
      <point x="551" y="703" type="qcurve" smooth="yes"/>
      <point x="468" y="703"/>
      <point x="353" y="644"/>
      <point x="322" y="594" type="qcurve"/>
      <point x="322" y="500" type="line" smooth="yes"/>
      <point x="322" y="334"/>
      <point x="456" y="154"/>
      <point x="561" y="154" type="qcurve" smooth="yes"/>
      <point x="656" y="154"/>
      <point x="766" y="317"/>
      <point x="766" y="437" type="qcurve" smooth="yes"/>
      <point x="766" y="555"/>
      <point x="651" y="703"/>
    </contour>
  </outline>
</glyph>
<glyph name="seven" format="1">
  <advance width="1048"/>
  <unicode hex="0037"/>
  <outline>
    <contour>
      <point x="968" y="1135" type="line"/>
      <point x="742" y="869"/>
      <point x="583" y="443"/>
      <point x="547" y="139" type="qcurve" smooth="yes"/>
      <point x="534" y="0" type="line"/>
      <point x="315" y="0" type="line"/>
      <point x="329" y="139" type="line" smooth="yes"/>
      <point x="364" y="436"/>
      <point x="574" y="919"/>
      <point x="756" y="1135" type="qcurve"/>
      <point x="62" y="1135" type="line"/>
      <point x="62" y="1310" type="line"/>
      <point x="968" y="1310" type="line"/>
    </contour>
  </outline>
</glyph>
<glyph name="eight" format="1">
  <advance width="1048"/>
  <unicode hex="0038"/>
  <outline>
    <contour>
      <point x="926" y="963" type="qcurve" smooth="yes"/>
      <point x="926" y="864"/>
      <point x="818" y="711"/>
      <point x="725" y="670" type="qcurve"/>
      <point x="833" y="629"/>
      <point x="959" y="463"/>
      <point x="959" y="355" type="qcurve" smooth="yes"/>
      <point x="959" y="173"/>
      <point x="718" y="-21"/>
      <point x="525" y="-21" type="qcurve" smooth="yes"/>
      <point x="329" y="-21"/>
      <point x="87" y="173"/>
      <point x="87" y="355" type="qcurve" smooth="yes"/>
      <point x="87" y="463"/>
      <point x="212" y="629"/>
      <point x="321" y="671" type="qcurve"/>
      <point x="228" y="711"/>
      <point x="121" y="863"/>
      <point x="121" y="963" type="qcurve" smooth="yes"/>
      <point x="121" y="1137"/>
      <point x="342" y="1327"/>
      <point x="523" y="1327" type="qcurve" smooth="yes"/>
      <point x="702" y="1327"/>
      <point x="926" y="1137"/>
    </contour>
    <contour>
      <point x="742" y="366" type="qcurve" smooth="yes"/>
      <point x="742" y="462"/>
      <point x="618" y="583"/>
      <point x="523" y="583" type="qcurve" smooth="yes"/>
      <point x="426" y="583"/>
      <point x="306" y="463"/>
      <point x="306" y="366" type="qcurve" smooth="yes"/>
      <point x="306" y="267"/>
      <point x="425" y="154"/>
      <point x="525" y="154" type="qcurve" smooth="yes"/>
      <point x="621" y="154"/>
      <point x="742" y="268"/>
    </contour>
    <contour>
      <point x="707" y="955" type="qcurve" smooth="yes"/>
      <point x="707" y="1041"/>
      <point x="605" y="1152"/>
      <point x="523" y="1152" type="qcurve" smooth="yes"/>
      <point x="438" y="1152"/>
      <point x="340" y="1045"/>
      <point x="340" y="955" type="qcurve" smooth="yes"/>
      <point x="340" y="866"/>
      <point x="440" y="758"/>
      <point x="525" y="758" type="qcurve" smooth="yes"/>
      <point x="608" y="758"/>
      <point x="707" y="866"/>
    </contour>
  </outline>
</glyph>
<glyph name="nine" format="1">
  <advance width="1048"/>
  <unicode hex="0039"/>
  <outline>
    <contour>
      <point x="464" y="154" type="qcurve" smooth="yes"/>
      <point x="581" y="154"/>
      <point x="725" y="327"/>
      <point x="725" y="494" type="qcurve" smooth="yes"/>
      <point x="725" y="554" type="line"/>
      <point x="680" y="494"/>
      <point x="554" y="432"/>
      <point x="478" y="432" type="qcurve" smooth="yes"/>
      <point x="291" y="432"/>
      <point x="74" y="668"/>
      <point x="74" y="875" type="qcurve" smooth="yes"/>
      <point x="74" y="1071"/>
      <point x="317" y="1327"/>
      <point x="496" y="1327" type="qcurve" smooth="yes"/>
      <point x="699" y="1327"/>
      <point x="942" y="1060"/>
      <point x="942" y="809" type="qcurve" smooth="yes"/>
      <point x="942" y="502" type="line" smooth="yes"/>
      <point x="942" y="254"/>
      <point x="675" y="-21"/>
      <point x="464" y="-21" type="qcurve" smooth="yes"/>
      <point x="396" y="-21"/>
      <point x="252" y="6"/>
      <point x="192" y="33" type="qcurve"/>
      <point x="221" y="200" type="line"/>
      <point x="275" y="175"/>
      <point x="391" y="154"/>
    </contour>
    <contour>
      <point x="499" y="602" type="qcurve" smooth="yes"/>
      <point x="581" y="602"/>
      <point x="696" y="667"/>
      <point x="725" y="718" type="qcurve"/>
      <point x="725" y="835" type="line" smooth="yes"/>
      <point x="725" y="991"/>
      <point x="608" y="1152"/>
      <point x="500" y="1152" type="qcurve" smooth="yes"/>
      <point x="411" y="1152"/>
      <point x="293" y="994"/>
      <point x="293" y="875" type="qcurve" smooth="yes"/>
      <point x="293" y="752"/>
      <point x="401" y="602"/>
    </contour>
  </outline>
</glyph>
<glyph name="less" format="1">
  <advance width="937"/>
  <unicode hex="003C"/>
  <outline>
    <contour>
      <point x="290" y="512" type="line"/>
      <point x="273" y="509" type="line"/>
      <point x="273" y="504" type="line"/>
      <point x="290" y="501" type="line"/>
      <point x="810" y="305" type="line"/>
      <point x="810" y="86" type="line"/>
      <point x="57" y="421" type="line"/>
      <point x="57" y="595" type="line"/>
      <point x="810" y="929" type="line"/>
      <point x="810" y="712" type="line"/>
    </contour>
  </outline>
</glyph>
<glyph name="equal" format="1">
  <advance width="1049"/>
  <unicode hex="003D"/>
  <outline>
    <contour>
      <point x="906" y="748" type="line"/>
      <point x="131" y="748" type="line"/>
      <point x="131" y="929" type="line"/>
      <point x="906" y="929" type="line"/>
    </contour>
    <contour>
      <point x="906" y="366" type="line"/>
      <point x="131" y="366" type="line"/>
      <point x="131" y="547" type="line"/>
      <point x="906" y="547" type="line"/>
    </contour>
  </outline>
</glyph>
<glyph name="greater" format="1">
  <advance width="959"/>
  <unicode hex="003E"/>
  <outline>
    <contour>
      <point x="115" y="714" type="line"/>
      <point x="115" y="929" type="line"/>
      <point x="893" y="595" type="line"/>
      <point x="893" y="421" type="line"/>
      <point x="115" y="86" type="line"/>
      <point x="115" y="301" type="line"/>
      <point x="660" y="505" type="line"/>
      <point x="676" y="506" type="line"/>
      <point x="677" y="512" type="line"/>
      <point x="660" y="515" type="line"/>
    </contour>
  </outline>
</glyph>
<glyph name="at" format="1">
  <advance width="1643"/>
  <unicode hex="0040"/>
  <outline>
    <contour>
      <point x="1558" y="411" type="qcurve" smooth="yes"/>
      <point x="1550" y="217"/>
      <point x="1343" y="-64"/>
      <point x="1137" y="-64" type="qcurve" smooth="yes"/>
      <point x="1069" y="-64"/>
      <point x="971" y="11"/>
      <point x="950" y="81" type="qcurve"/>
      <point x="907" y="9"/>
      <point x="783" y="-62"/>
      <point x="700" y="-62" type="qcurve" smooth="yes"/>
      <point x="581" y="-62"/>
      <point x="452" y="153"/>
      <point x="468" y="329" type="qcurve" smooth="yes"/>
      <point x="490" y="560"/>
      <point x="699" y="839"/>
      <point x="849" y="839" type="qcurve" smooth="yes"/>
      <point x="948" y="839"/>
      <point x="1069" y="792"/>
      <point x="1141" y="743" type="qcurve"/>
      <point x="1139" y="740" type="line"/>
      <point x="1143" y="740" type="line"/>
      <point x="1097" y="218" type="line" smooth="yes"/>
      <point x="1090" y="128"/>
      <point x="1137" y="59"/>
      <point x="1175" y="59" type="qcurve" smooth="yes"/>
      <point x="1283" y="59"/>
      <point x="1411" y="258"/>
      <point x="1418" y="411" type="qcurve" smooth="yes"/>
      <point x="1433" y="741"/>
      <point x="1152" y="1110"/>
      <point x="857" y="1110" type="qcurve" smooth="yes"/>
      <point x="581" y="1110"/>
      <point x="251" y="713"/>
      <point x="238" y="385" type="qcurve" smooth="yes"/>
      <point x="221" y="56"/>
      <point x="519" y="-322"/>
      <point x="798" y="-322" type="qcurve" smooth="yes"/>
      <point x="877" y="-322"/>
      <point x="1039" y="-286"/>
      <point x="1096" y="-256" type="qcurve"/>
      <point x="1130" y="-373" type="line"/>
      <point x="1070" y="-411"/>
      <point x="884" y="-453"/>
      <point x="795" y="-453" type="qcurve" smooth="yes"/>
      <point x="446" y="-453"/>
      <point x="67" y="-4"/>
      <point x="82" y="385" type="qcurve" smooth="yes"/>
      <point x="98" y="767"/>
      <point x="519" y="1236"/>
      <point x="860" y="1236" type="qcurve" smooth="yes"/>
      <point x="1205" y="1236"/>
      <point x="1572" y="794"/>
    </contour>
    <contour>
      <point x="649" y="329" type="qcurve" smooth="yes"/>
      <point x="640" y="209"/>
      <point x="694" y="85"/>
      <point x="756" y="85" type="qcurve" smooth="yes"/>
      <point x="809" y="85"/>
      <point x="899" y="129"/>
      <point x="934" y="186" type="qcurve"/>
      <point x="934" y="193"/>
      <point x="935" y="208"/>
      <point x="936" y="218" type="qcurve" smooth="yes"/>
      <point x="977" y="682" type="line"/>
      <point x="956" y="690"/>
      <point x="909" y="700"/>
      <point x="884" y="700" type="qcurve" smooth="yes"/>
      <point x="778" y="700"/>
      <point x="666" y="515"/>
    </contour>
  </outline>
</glyph>
<glyph name="A" format="1">
  <advance width="1188.0"/>
  <unicode hex="0041"/>
  <outline>
    <contour>
      <point x="853" y="306" type="line"/>
      <point x="340" y="306" type="line"/>
      <point x="236" y="0" type="line"/>
      <point x="14" y="0" type="line"/>
      <point x="496" y="1310" type="line"/>
      <point x="703" y="1310" type="line"/>
      <point x="1179" y="0" type="line"/>
      <point x="957" y="0" type="line"/>
    </contour>
    <contour>
      <point x="403" y="489" type="line"/>
      <point x="791" y="489" type="line"/>
      <point x="601" y="1049" type="line"/>
      <point x="596" y="1049" type="line"/>
    </contour>
  </outline>
</glyph>
<glyph name="B" format="1">
  <advance width="1181"/>
  <unicode hex="0042"/>
  <outline>
    <contour>
      <point x="143" y="0" type="line"/>
      <point x="143" y="1310" type="line"/>
      <point x="579" y="1310" type="line" smooth="yes"/>
      <point x="797" y="1310"/>
      <point x="1041" y="1131"/>
      <point x="1041" y="953" type="qcurve" smooth="yes"/>
      <point x="1041" y="864"/>
      <point x="939" y="724"/>
      <point x="848" y="689" type="qcurve"/>
      <point x="965" y="663"/>
      <point x="1091" y="491"/>
      <point x="1091" y="376" type="qcurve" smooth="yes"/>
      <point x="1091" y="192"/>
      <point x="850" y="0"/>
      <point x="637" y="0" type="qcurve" smooth="yes"/>
    </contour>
    <contour>
      <point x="362" y="596" type="line"/>
      <point x="362" y="175" type="line"/>
      <point x="637" y="175" type="line" smooth="yes"/>
      <point x="751" y="175"/>
      <point x="873" y="278"/>
      <point x="873" y="376" type="qcurve" smooth="yes"/>
      <point x="873" y="481"/>
      <point x="770" y="596"/>
      <point x="662" y="596" type="qcurve" smooth="yes"/>
    </contour>
    <contour>
      <point x="362" y="759" type="line"/>
      <point x="603" y="759" type="line" smooth="yes"/>
      <point x="705" y="759"/>
      <point x="823" y="855"/>
      <point x="823" y="943" type="qcurve" smooth="yes"/>
      <point x="823" y="1040"/>
      <point x="698" y="1135"/>
      <point x="579" y="1135" type="qcurve" smooth="yes"/>
      <point x="362" y="1135" type="line"/>
    </contour>
  </outline>
</glyph>
<glyph name="C" format="1">
  <advance width="1172"/>
  <unicode hex="0043"/>
  <outline>
    <contour>
      <point x="1099" y="433" type="line"/>
      <point x="1101" y="427" type="line"/>
      <point x="1104" y="228"/>
      <point x="839" y="-21"/>
      <point x="612" y="-21" type="qcurve" smooth="yes"/>
      <point x="383" y="-21"/>
      <point x="95" y="288"/>
      <point x="95" y="528" type="qcurve" smooth="yes"/>
      <point x="95" y="777" type="line" smooth="yes"/>
      <point x="95" y="1017"/>
      <point x="379" y="1327"/>
      <point x="606" y="1327" type="qcurve" smooth="yes"/>
      <point x="838" y="1327"/>
      <point x="1105" y="1083"/>
      <point x="1102" y="877" type="qcurve"/>
      <point x="1100" y="872" type="line"/>
      <point x="888" y="872" type="line"/>
      <point x="888" y="1004"/>
      <point x="745" y="1152"/>
      <point x="606" y="1152" type="qcurve" smooth="yes"/>
      <point x="472" y="1152"/>
      <point x="314" y="939"/>
      <point x="314" y="779" type="qcurve" smooth="yes"/>
      <point x="314" y="528" type="line" smooth="yes"/>
      <point x="314" y="366"/>
      <point x="475" y="154"/>
      <point x="612" y="154" type="qcurve" smooth="yes"/>
      <point x="748" y="154"/>
      <point x="888" y="299"/>
      <point x="888" y="433" type="qcurve"/>
    </contour>
  </outline>
</glyph>
<glyph name="D" format="1">
  <advance width="1211"/>
  <unicode hex="0044"/>
  <outline>
    <contour>
      <point x="143" y="0" type="line"/>
      <point x="143" y="1310" type="line"/>
      <point x="568" y="1310" type="line" smooth="yes"/>
      <point x="817" y="1310"/>
      <point x="1130" y="999"/>
      <point x="1130" y="754" type="qcurve" smooth="yes"/>
      <point x="1130" y="555" type="line" smooth="yes"/>
      <point x="1130" y="310"/>
      <point x="817" y="0"/>
      <point x="568" y="0" type="qcurve" smooth="yes"/>
    </contour>
    <contour>
      <point x="362" y="1135" type="line"/>
      <point x="362" y="175" type="line"/>
      <point x="562" y="175" type="line" smooth="yes"/>
      <point x="725" y="175"/>
      <point x="911" y="387"/>
      <point x="911" y="555" type="qcurve" smooth="yes"/>
      <point x="911" y="756" type="line" smooth="yes"/>
      <point x="911" y="923"/>
      <point x="725" y="1135"/>
      <point x="562" y="1135" type="qcurve" smooth="yes"/>
    </contour>
  </outline>
</glyph>
<glyph name="E" format="1">
  <advance width="1068"/>
  <unicode hex="0045"/>
  <outline>
    <contour>
      <point x="935" y="590" type="line"/>
      <point x="362" y="590" type="line"/>
      <point x="362" y="175" type="line"/>
      <point x="1027" y="175" type="line"/>
      <point x="1027" y="0" type="line"/>
      <point x="143" y="0" type="line"/>
      <point x="143" y="1310" type="line"/>
      <point x="1021" y="1310" type="line"/>
      <point x="1021" y="1135" type="line"/>
      <point x="362" y="1135" type="line"/>
      <point x="362" y="765" type="line"/>
      <point x="935" y="765" type="line"/>
    </contour>
  </outline>
</glyph>
<glyph name="F" format="1">
  <advance width="1069"/>
  <unicode hex="0046"/>
  <outline>
    <contour>
      <point x="936" y="559" type="line"/>
      <point x="362" y="559" type="line"/>
      <point x="362" y="0" type="line"/>
      <point x="143" y="0" type="line"/>
      <point x="143" y="1310" type="line"/>
      <point x="1028" y="1310" type="line"/>
      <point x="1028" y="1135" type="line"/>
      <point x="362" y="1135" type="line"/>
      <point x="362" y="734" type="line"/>
      <point x="936" y="734" type="line"/>
    </contour>
  </outline>
</glyph>
<glyph name="G" format="1">
  <advance width="1245"/>
  <unicode hex="0047"/>
  <outline>
    <contour>
      <point x="1120" y="175" type="line"/>
      <point x="1067" y="101"/>
      <point x="829" y="-21"/>
      <point x="642" y="-21" type="qcurve" smooth="yes"/>
      <point x="405" y="-21"/>
      <point x="99" y="279"/>
      <point x="99" y="516" type="qcurve" smooth="yes"/>
      <point x="99" y="790" type="line" smooth="yes"/>
      <point x="99" y="1028"/>
      <point x="388" y="1327"/>
      <point x="617" y="1327" type="qcurve" smooth="yes"/>
      <point x="848" y="1327"/>
      <point x="1104" y="1100"/>
      <point x="1107" y="917" type="qcurve"/>
      <point x="1105" y="911" type="line"/>
      <point x="898" y="911" type="line"/>
      <point x="891" y="1019"/>
      <point x="752" y="1152"/>
      <point x="619" y="1152" type="qcurve" smooth="yes"/>
      <point x="483" y="1152"/>
      <point x="317" y="948"/>
      <point x="317" y="792" type="qcurve" smooth="yes"/>
      <point x="317" y="516" type="line" smooth="yes"/>
      <point x="317" y="358"/>
      <point x="498" y="154"/>
      <point x="642" y="154" type="qcurve" smooth="yes"/>
      <point x="744" y="154"/>
      <point x="872" y="201"/>
      <point x="901" y="234" type="qcurve"/>
      <point x="901" y="500" type="line"/>
      <point x="641" y="500" type="line"/>
      <point x="641" y="664" type="line"/>
      <point x="1120" y="664" type="line"/>
    </contour>
  </outline>
</glyph>
<glyph name="H" format="1">
  <advance width="1310"/>
  <unicode hex="0048"/>
  <outline>
    <contour>
      <point x="1166" y="0" type="line"/>
      <point x="949" y="0" type="line"/>
      <point x="949" y="559" type="line"/>
      <point x="362" y="559" type="line"/>
      <point x="362" y="0" type="line"/>
      <point x="143" y="0" type="line"/>
      <point x="143" y="1310" type="line"/>
      <point x="362" y="1310" type="line"/>
      <point x="362" y="734" type="line"/>
      <point x="949" y="734" type="line"/>
      <point x="949" y="1310" type="line"/>
      <point x="1166" y="1310" type="line"/>
    </contour>
  </outline>
</glyph>
<glyph name="J" format="1">
  <advance width="1033"/>
  <unicode hex="004A"/>
  <outline>
    <contour>
      <point x="680" y="1308" type="line"/>
      <point x="898" y="1308" type="line"/>
      <point x="898" y="377" type="line" smooth="yes"/>
      <point x="898" y="193"/>
      <point x="664" y="-21"/>
      <point x="481" y="-21" type="qcurve" smooth="yes"/>
      <point x="284" y="-21"/>
      <point x="53" y="175"/>
      <point x="58" y="364" type="qcurve"/>
      <point x="59" y="370" type="line"/>
      <point x="271" y="370" type="line"/>
      <point x="271" y="258"/>
      <point x="382" y="154"/>
      <point x="481" y="154" type="qcurve" smooth="yes"/>
      <point x="567" y="154"/>
      <point x="680" y="274"/>
      <point x="680" y="377" type="qcurve" smooth="yes"/>
    </contour>
  </outline>
</glyph>
<glyph name="K" format="1">
  <advance width="1188.0"/>
  <unicode hex="004B"/>
  <outline>
    <contour>
      <point x="513" y="567" type="line"/>
      <point x="362" y="567" type="line"/>
      <point x="362" y="0" type="line"/>
      <point x="143" y="0" type="line"/>
      <point x="143" y="1310" type="line"/>
      <point x="362" y="1310" type="line"/>
      <point x="362" y="755" type="line"/>
      <point x="487" y="755" type="line"/>
      <point x="898" y="1310" type="line"/>
      <point x="1157" y="1310" type="line"/>
      <point x="680" y="685" type="line"/>
      <point x="1194" y="0" type="line"/>
      <point x="927" y="0" type="line"/>
    </contour>
  </outline>
</glyph>
<glyph name="L" format="1">
  <advance width="997"/>
  <unicode hex="004C"/>
  <outline>
    <contour>
      <point x="362" y="175" type="line"/>
      <point x="964" y="175" type="line"/>
      <point x="964" y="0" type="line"/>
      <point x="143" y="0" type="line"/>
      <point x="143" y="1310" type="line"/>
      <point x="362" y="1310" type="line"/>
    </contour>
  </outline>
</glyph>
<glyph name="M" format="1">
  <advance width="1615"/>
  <unicode hex="004D"/>
  <outline>
    <contour>
      <point x="427" y="1310" type="line"/>
      <point x="804" y="302" type="line"/>
      <point x="809" y="302" type="line"/>
      <point x="1187" y="1310" type="line"/>
      <point x="1471" y="1310" type="line"/>
      <point x="1471" y="0" type="line"/>
      <point x="1252" y="0" type="line"/>
      <point x="1252" y="446" type="line"/>
      <point x="1274" y="1014" type="line"/>
      <point x="1268" y="1015" type="line"/>
      <point x="879" y="0" type="line"/>
      <point x="733" y="0" type="line"/>
      <point x="346" y="1013" type="line"/>
      <point x="340" y="1012" type="line"/>
      <point x="362" y="446" type="line"/>
      <point x="362" y="0" type="line"/>
      <point x="143" y="0" type="line"/>
      <point x="143" y="1310" type="line"/>
    </contour>
  </outline>
</glyph>
<glyph name="N" format="1">
  <advance width="1310"/>
  <unicode hex="004E"/>
  <outline>
    <contour>
      <point x="1166" y="0" type="line"/>
      <point x="949" y="0" type="line"/>
      <point x="367" y="957" type="line"/>
      <point x="362" y="955" type="line"/>
      <point x="362" y="0" type="line"/>
      <point x="143" y="0" type="line"/>
      <point x="143" y="1310" type="line"/>
      <point x="362" y="1310" type="line"/>
      <point x="943" y="355" type="line"/>
      <point x="949" y="356" type="line"/>
      <point x="949" y="1310" type="line"/>
      <point x="1166" y="1310" type="line"/>
    </contour>
  </outline>
</glyph>
<glyph name="O" format="1">
  <advance width="1258"/>
  <unicode hex="004F"/>
  <outline>
    <contour>
      <point x="1165" y="535" type="line" smooth="yes"/>
      <point x="1165" y="295"/>
      <point x="863" y="-21"/>
      <point x="623" y="-21" type="qcurve" smooth="yes"/>
      <point x="387" y="-21"/>
      <point x="93" y="295"/>
      <point x="93" y="535" type="qcurve" smooth="yes"/>
      <point x="93" y="771" type="line" smooth="yes"/>
      <point x="93" y="1010"/>
      <point x="387" y="1327"/>
      <point x="622" y="1327" type="qcurve" smooth="yes"/>
      <point x="862" y="1327"/>
      <point x="1165" y="1010"/>
      <point x="1165" y="771" type="qcurve" smooth="yes"/>
    </contour>
    <contour>
      <point x="947" y="773" type="line" smooth="yes"/>
      <point x="947" y="937"/>
      <point x="771" y="1147"/>
      <point x="622" y="1147" type="qcurve" smooth="yes"/>
      <point x="478" y="1147"/>
      <point x="311" y="937"/>
      <point x="311" y="773" type="qcurve" smooth="yes"/>
      <point x="311" y="535" type="line" smooth="yes"/>
      <point x="311" y="370"/>
      <point x="478" y="158"/>
      <point x="623" y="158" type="qcurve" smooth="yes"/>
      <point x="773" y="158"/>
      <point x="947" y="369"/>
      <point x="947" y="535" type="qcurve" smooth="yes"/>
    </contour>
  </outline>
</glyph>
<glyph name="P" format="1">
  <advance width="1191"/>
  <unicode hex="0050"/>
  <outline>
    <contour>
      <point x="362" y="497" type="line"/>
      <point x="362" y="0" type="line"/>
      <point x="143" y="0" type="line"/>
      <point x="143" y="1310" type="line"/>
      <point x="655" y="1310" type="line" smooth="yes"/>
      <point x="872" y="1310"/>
      <point x="1118" y="1086"/>
      <point x="1118" y="904" type="qcurve" smooth="yes"/>
      <point x="1118" y="719"/>
      <point x="872" y="497"/>
      <point x="655" y="497" type="qcurve" smooth="yes"/>
    </contour>
    <contour>
      <point x="362" y="672" type="line"/>
      <point x="655" y="672" type="line" smooth="yes"/>
      <point x="777" y="672"/>
      <point x="899" y="802"/>
      <point x="899" y="902" type="qcurve" smooth="yes"/>
      <point x="899" y="1002"/>
      <point x="777" y="1135"/>
      <point x="655" y="1135" type="qcurve" smooth="yes"/>
      <point x="362" y="1135" type="line"/>
    </contour>
  </outline>
</glyph>
<glyph name="Q" format="1">
  <advance width="1273"/>
  <unicode hex="0051"/>
  <outline>
    <contour>
      <point x="1165" y="514" type="line" smooth="yes"/>
      <point x="1165" y="392"/>
      <point x="1082" y="184"/>
      <point x="1006" y="108" type="qcurve"/>
      <point x="1224" y="-104" type="line"/>
      <point x="1078" y="-234" type="line"/>
      <point x="837" y="-4" type="line"/>
      <point x="788" y="-23"/>
      <point x="680" y="-42"/>
      <point x="623" y="-42" type="qcurve" smooth="yes"/>
      <point x="387" y="-42"/>
      <point x="93" y="274"/>
      <point x="93" y="514" type="qcurve" smooth="yes"/>
      <point x="93" y="750" type="line" smooth="yes"/>
      <point x="93" y="989"/>
      <point x="387" y="1306"/>
      <point x="622" y="1306" type="qcurve" smooth="yes"/>
      <point x="862" y="1306"/>
      <point x="1165" y="989"/>
      <point x="1165" y="750" type="qcurve" smooth="yes"/>
    </contour>
    <contour>
      <point x="947" y="752" type="line" smooth="yes"/>
      <point x="947" y="915"/>
      <point x="771" y="1126"/>
      <point x="622" y="1126" type="qcurve" smooth="yes"/>
      <point x="478" y="1126"/>
      <point x="311" y="915"/>
      <point x="311" y="752" type="qcurve" smooth="yes"/>
      <point x="311" y="514" type="line" smooth="yes"/>
      <point x="311" y="348"/>
      <point x="478" y="137"/>
      <point x="623" y="137" type="qcurve" smooth="yes"/>
      <point x="773" y="137"/>
      <point x="947" y="347"/>
      <point x="947" y="514" type="qcurve" smooth="yes"/>
    </contour>
  </outline>
</glyph>
<glyph name="R" format="1">
  <advance width="1220"/>
  <unicode hex="0052"/>
  <outline>
    <contour>
      <point x="362" y="544" type="line"/>
      <point x="362" y="0" type="line"/>
      <point x="143" y="0" type="line"/>
      <point x="143" y="1310" type="line"/>
      <point x="627" y="1310" type="line" smooth="yes"/>
      <point x="847" y="1310"/>
      <point x="1086" y="1112"/>
      <point x="1086" y="929" type="qcurve" smooth="yes"/>
      <point x="1086" y="827"/>
      <point x="981" y="680"/>
      <point x="880" y="636" type="qcurve"/>
      <point x="991" y="601"/>
      <point x="1088" y="442"/>
      <point x="1088" y="326" type="qcurve" smooth="yes"/>
      <point x="1088" y="217" type="line" smooth="yes"/>
      <point x="1088" y="159"/>
      <point x="1117" y="50"/>
      <point x="1151" y="21" type="qcurve"/>
      <point x="1151" y="0" type="line"/>
      <point x="926" y="0" type="line"/>
      <point x="890" y="30"/>
      <point x="869" y="158"/>
      <point x="869" y="219" type="qcurve" smooth="yes"/>
      <point x="869" y="324" type="line" smooth="yes"/>
      <point x="869" y="425"/>
      <point x="754" y="544"/>
      <point x="653" y="544" type="qcurve" smooth="yes"/>
    </contour>
    <contour>
      <point x="362" y="719" type="line"/>
      <point x="616" y="719" type="line" smooth="yes"/>
      <point x="747" y="719"/>
      <point x="868" y="820"/>
      <point x="868" y="923" type="qcurve" smooth="yes"/>
      <point x="868" y="1022"/>
      <point x="749" y="1135"/>
      <point x="627" y="1135" type="qcurve" smooth="yes"/>
      <point x="362" y="1135" type="line"/>
    </contour>
  </outline>
</glyph>
<glyph name="S" format="1">
  <advance width="1159"/>
  <unicode hex="0053"/>
  <outline>
    <contour>
      <point x="853" y="335" type="qcurve" smooth="yes"/>
      <point x="853" y="416"/>
      <point x="732" y="521"/>
      <point x="578" y="562" type="qcurve" smooth="yes"/>
      <point x="358" y="620"/>
      <point x="121" y="810"/>
      <point x="121" y="964" type="qcurve" smooth="yes"/>
      <point x="121" y="1122"/>
      <point x="383" y="1327"/>
      <point x="590" y="1327" type="qcurve" smooth="yes"/>
      <point x="806" y="1327"/>
      <point x="1068" y="1095"/>
      <point x="1064" y="932" type="qcurve"/>
      <point x="1062" y="927" type="line"/>
      <point x="852" y="927" type="line"/>
      <point x="852" y="1028"/>
      <point x="716" y="1153"/>
      <point x="589" y="1153" type="qcurve" smooth="yes"/>
      <point x="469" y="1153"/>
      <point x="340" y="1048"/>
      <point x="340" y="965" type="qcurve" smooth="yes"/>
      <point x="340" y="891"/>
      <point x="480" y="792"/>
      <point x="641" y="748" type="qcurve" smooth="yes"/>
      <point x="852" y="691"/>
      <point x="1072" y="491"/>
      <point x="1072" y="336" type="qcurve" smooth="yes"/>
      <point x="1072" y="173"/>
      <point x="810" y="-21"/>
      <point x="597" y="-21" type="qcurve" smooth="yes"/>
      <point x="392" y="-21"/>
      <point x="82" y="196"/>
      <point x="86" y="385" type="qcurve"/>
      <point x="88" y="390" type="line"/>
      <point x="299" y="390" type="line"/>
      <point x="299" y="271"/>
      <point x="464" y="153"/>
      <point x="597" y="153" type="qcurve" smooth="yes"/>
      <point x="718" y="153"/>
      <point x="853" y="251"/>
    </contour>
  </outline>
</glyph>
<glyph name="T" format="1">
  <advance width="1067"/>
  <unicode hex="0054"/>
  <outline>
    <contour>
      <point x="1039" y="1135" type="line"/>
      <point x="643" y="1135" type="line"/>
      <point x="643" y="0" type="line"/>
      <point x="424" y="0" type="line"/>
      <point x="424" y="1135" type="line"/>
      <point x="28" y="1135" type="line"/>
      <point x="28" y="1310" type="line"/>
      <point x="1039" y="1310" type="line"/>
    </contour>
  </outline>
</glyph>
<glyph name="U" format="1">
  <advance width="1256"/>
  <unicode hex="0055"/>
  <outline>
    <contour>
      <point x="1139" y="1308" type="line"/>
      <point x="1139" y="430" type="line" smooth="yes"/>
      <point x="1139" y="212"/>
      <point x="854" y="-21"/>
      <point x="625" y="-21" type="qcurve" smooth="yes"/>
      <point x="400" y="-21"/>
      <point x="121" y="213"/>
      <point x="121" y="430" type="qcurve" smooth="yes"/>
      <point x="121" y="1308" type="line"/>
      <point x="339" y="1308" type="line"/>
      <point x="339" y="430" type="line" smooth="yes"/>
      <point x="339" y="292"/>
      <point x="494" y="154"/>
      <point x="625" y="154" type="qcurve" smooth="yes"/>
      <point x="760" y="154"/>
      <point x="920" y="292"/>
      <point x="920" y="430" type="qcurve" smooth="yes"/>
      <point x="920" y="1308" type="line"/>
    </contour>
  </outline>
</glyph>
<glyph name="V" format="1">
  <advance width="1170.0"/>
  <unicode hex="0056"/>
  <outline>
    <contour>
      <point x="559" y="343" type="line"/>
      <point x="582" y="252" type="line"/>
      <point x="588" y="252" type="line"/>
      <point x="610" y="341" type="line"/>
      <point x="923" y="1310" type="line"/>
      <point x="1157" y="1310" type="line"/>
      <point x="689" y="0" type="line"/>
      <point x="481" y="0" type="line"/>
      <point x="14" y="1310" type="line"/>
      <point x="247" y="1310" type="line"/>
    </contour>
  </outline>
</glyph>
<glyph name="W" format="1">
  <advance width="1631"/>
  <unicode hex="0057"/>
  <outline>
    <contour>
      <point x="461" y="349" type="line"/>
      <point x="461" y="347" type="line"/>
      <point x="462" y="352" type="line"/>
      <point x="724" y="1310" type="line"/>
      <point x="898" y="1310" type="line"/>
      <point x="1163" y="349" type="line"/>
      <point x="1164" y="343" type="line"/>
      <point x="1165" y="352" type="line"/>
      <point x="1372" y="1310" type="line"/>
      <point x="1587" y="1310" type="line"/>
      <point x="1275" y="0" type="line"/>
      <point x="1076" y="0" type="line"/>
      <point x="815" y="941" type="line"/>
      <point x="809" y="941" type="line"/>
      <point x="546" y="0" type="line"/>
      <point x="347" y="0" type="line"/>
      <point x="36" y="1310" type="line"/>
      <point x="251" y="1310" type="line"/>
    </contour>
  </outline>
</glyph>
<glyph name="X" format="1">
  <advance width="1170.0"/>
  <unicode hex="0058"/>
  <outline>
    <contour>
      <point x="585" y="826" type="line"/>
      <point x="861" y="1310" type="line"/>
      <point x="1121" y="1310" type="line"/>
      <point x="717" y="661" type="line"/>
      <point x="1136" y="0" type="line"/>
      <point x="873" y="0" type="line"/>
      <point x="589" y="492" type="line"/>
      <point x="304" y="0" type="line"/>
      <point x="45" y="0" type="line"/>
      <point x="457" y="661" type="line"/>
      <point x="54" y="1310" type="line"/>
      <point x="311" y="1310" type="line"/>
    </contour>
  </outline>
</glyph>
<glyph name="Y" format="1">
  <advance width="1143.0"/>
  <unicode hex="0059"/>
  <outline>
    <contour>
      <point x="571" y="673" type="line"/>
      <point x="887" y="1310" type="line"/>
      <point x="1131" y="1310" type="line"/>
      <point x="677" y="460" type="line"/>
      <point x="677" y="0" type="line"/>
      <point x="459" y="0" type="line"/>
      <point x="459" y="472" type="line"/>
      <point x="12" y="1310" type="line"/>
      <point x="256" y="1310" type="line"/>
    </contour>
  </outline>
</glyph>
<glyph name="Z" format="1">
  <advance width="1094"/>
  <unicode hex="005A"/>
  <outline>
    <contour>
      <point x="339" y="175" type="line"/>
      <point x="1023" y="175" type="line"/>
      <point x="1023" y="0" type="line"/>
      <point x="79" y="0" type="line"/>
      <point x="79" y="137" type="line"/>
      <point x="737" y="1135" type="line"/>
      <point x="85" y="1135" type="line"/>
      <point x="85" y="1310" type="line"/>
      <point x="1001" y="1310" type="line"/>
      <point x="1001" y="1179" type="line"/>
    </contour>
  </outline>
</glyph>
<glyph name="bracketleft" format="1">
  <advance width="722"/>
  <unicode hex="005B"/>
  <outline>
    <contour>
      <point x="567" y="1345" type="line"/>
      <point x="416" y="1345" type="line"/>
      <point x="416" y="-127" type="line"/>
      <point x="567" y="-127" type="line"/>
      <point x="567" y="-291" type="line"/>
      <point x="201" y="-291" type="line"/>
      <point x="201" y="1509" type="line"/>
      <point x="567" y="1509" type="line"/>
    </contour>
  </outline>
</glyph>
<glyph name="backslash" format="1">
  <advance width="770"/>
  <unicode hex="005C"/>
  <outline>
    <contour>
      <point x="19" y="1298" type="line"/>
      <point x="231" y="1298" type="line"/>
      <point x="779" y="-125" type="line"/>
      <point x="566" y="-125" type="line"/>
    </contour>
  </outline>
</glyph>
<glyph name="bracketright" format="1">
  <advance width="723"/>
  <unicode hex="005D"/>
  <outline>
    <contour>
      <point x="156" y="1509" type="line"/>
      <point x="522" y="1509" type="line"/>
      <point x="522" y="-291" type="line"/>
      <point x="156" y="-291" type="line"/>
      <point x="156" y="-127" type="line"/>
      <point x="307" y="-127" type="line"/>
      <point x="307" y="1345" type="line"/>
      <point x="156" y="1345" type="line"/>
    </contour>
  </outline>
</glyph>
<glyph name="asciicircum" format="1">
  <advance width="788"/>
  <unicode hex="005E"/>
  <outline>
    <contour>
      <point x="233" y="729" type="line"/>
      <point x="48" y="729" type="line"/>
      <point x="317" y="1383" type="line"/>
      <point x="471" y="1383" type="line"/>
      <point x="739" y="729" type="line"/>
      <point x="554" y="729" type="line"/>
      <point x="406" y="1101" type="line"/>
      <point x="395" y="1149" type="line"/>
      <point x="390" y="1149" type="line"/>
      <point x="379" y="1101" type="line"/>
    </contour>
  </outline>
</glyph>
<glyph name="underscore" format="1">
  <advance width="832"/>
  <unicode hex="005F"/>
  <outline>
    <contour>
      <point x="828" y="-191" type="line"/>
      <point x="3" y="-191" type="line"/>
      <point x="3" y="-19" type="line"/>
      <point x="828" y="-19" type="line"/>
    </contour>
  </outline>
</glyph>
<glyph name="grave" format="1">
  <advance width="594.0"/>
  <unicode hex="0060"/>
  <outline>
    <contour>
      <point x="482" y="1212" type="line"/>
      <point x="305" y="1212" type="line"/>
      <point x="72" y="1446" type="line"/>
      <point x="74" y="1451" type="line"/>
      <point x="315" y="1451" type="line"/>
    </contour>
  </outline>
</glyph>
<glyph name="a" format="1">
  <advance width="1003"/>
  <unicode hex="0061"/>
  <outline>
    <contour>
      <point x="701" y="-2" type="line"/>
      <point x="689" y="35"/>
      <point x="674" y="105"/>
      <point x="671" y="140" type="qcurve"/>
      <point x="626" y="72"/>
      <point x="480" y="-21"/>
      <point x="389" y="-21" type="qcurve" smooth="yes"/>
      <point x="237" y="-21"/>
      <point x="74" y="136"/>
      <point x="74" y="272" type="qcurve" smooth="yes"/>
      <point x="74" y="414"/>
      <point x="297" y="571"/>
      <point x="500" y="571" type="qcurve" smooth="yes"/>
      <point x="670" y="571" type="line"/>
      <point x="670" y="657" type="line" smooth="yes"/>
      <point x="670" y="733"/>
      <point x="580" y="820"/>
      <point x="496" y="820" type="qcurve" smooth="yes"/>
      <point x="421" y="820"/>
      <point x="333" y="748"/>
      <point x="333" y="691" type="qcurve"/>
      <point x="122" y="691" type="line"/>
      <point x="121" y="696" type="line"/>
      <point x="115" y="812"/>
      <point x="334" y="990"/>
      <point x="509" y="990" type="qcurve" smooth="yes"/>
      <point x="680" y="990"/>
      <point x="888" y="817"/>
      <point x="888" y="655" type="qcurve" smooth="yes"/>
      <point x="888" y="222" type="line" smooth="yes"/>
      <point x="888" y="162"/>
      <point x="905" y="51"/>
      <point x="923" y="-2" type="qcurve"/>
    </contour>
    <contour>
      <point x="433" y="155" type="qcurve" smooth="yes"/>
      <point x="516" y="155"/>
      <point x="648" y="237"/>
      <point x="670" y="290" type="qcurve"/>
      <point x="670" y="434" type="line"/>
      <point x="496" y="434" type="line" smooth="yes"/>
      <point x="401" y="434"/>
      <point x="293" y="340"/>
      <point x="293" y="276" type="qcurve" smooth="yes"/>
      <point x="293" y="220"/>
      <point x="365" y="155"/>
    </contour>
  </outline>
</glyph>
<glyph name="b" format="1">
  <advance width="1044"/>
  <unicode hex="0062"/>
  <outline>
    <contour>
      <point x="970" y="452" type="line" smooth="yes"/>
      <point x="970" y="239"/>
      <point x="771" y="-21"/>
      <point x="590" y="-21" type="qcurve" smooth="yes"/>
      <point x="499" y="-21"/>
      <point x="365" y="53"/>
      <point x="320" y="124" type="qcurve"/>
      <point x="299" y="-2" type="line"/>
      <point x="115" y="-2" type="line"/>
      <point x="115" y="1402" type="line"/>
      <point x="334" y="1402" type="line"/>
      <point x="334" y="861" type="line"/>
      <point x="379" y="923"/>
      <point x="505" y="990"/>
      <point x="589" y="990" type="qcurve" smooth="yes"/>
      <point x="771" y="990"/>
      <point x="970" y="705"/>
      <point x="970" y="471" type="qcurve" smooth="yes"/>
    </contour>
    <contour>
      <point x="752" y="471" type="line" smooth="yes"/>
      <point x="752" y="623"/>
      <point x="647" y="811"/>
      <point x="534" y="811" type="qcurve" smooth="yes"/>
      <point x="461" y="811"/>
      <point x="363" y="746"/>
      <point x="334" y="688" type="qcurve"/>
      <point x="334" y="280" type="line"/>
      <point x="362" y="221"/>
      <point x="461" y="157"/>
      <point x="536" y="157" type="qcurve" smooth="yes"/>
      <point x="649" y="157"/>
      <point x="752" y="317"/>
      <point x="752" y="452" type="qcurve" smooth="yes"/>
    </contour>
  </outline>
</glyph>
<glyph name="c" format="1">
  <advance width="968"/>
  <unicode hex="0063"/>
  <outline>
    <contour>
      <point x="518" y="154" type="qcurve" smooth="yes"/>
      <point x="598" y="154"/>
      <point x="707" y="248"/>
      <point x="707" y="319" type="qcurve"/>
      <point x="905" y="319" type="line"/>
      <point x="907" y="314" type="line"/>
      <point x="912" y="177"/>
      <point x="680" y="-21"/>
      <point x="518" y="-21" type="qcurve" smooth="yes"/>
      <point x="302" y="-21"/>
      <point x="73" y="256"/>
      <point x="73" y="469" type="qcurve" smooth="yes"/>
      <point x="73" y="500" type="line" smooth="yes"/>
      <point x="73" y="712"/>
      <point x="302" y="990"/>
      <point x="518" y="990" type="qcurve" smooth="yes"/>
      <point x="693" y="990"/>
      <point x="912" y="785"/>
      <point x="908" y="628" type="qcurve"/>
      <point x="906" y="623" type="line"/>
      <point x="707" y="623" type="line"/>
      <point x="707" y="703"/>
      <point x="602" y="814"/>
      <point x="518" y="814" type="qcurve" smooth="yes"/>
      <point x="394" y="814"/>
      <point x="292" y="635"/>
      <point x="292" y="500" type="qcurve" smooth="yes"/>
      <point x="292" y="469" type="line" smooth="yes"/>
      <point x="292" y="331"/>
      <point x="394" y="154"/>
    </contour>
  </outline>
</glyph>
<glyph name="d" format="1">
  <advance width="1044"/>
  <unicode hex="0064"/>
  <outline>
    <contour>
      <point x="75" y="471" type="line" smooth="yes"/>
      <point x="75" y="704"/>
      <point x="275" y="990"/>
      <point x="455" y="990" type="qcurve" smooth="yes"/>
      <point x="535" y="990"/>
      <point x="660" y="926"/>
      <point x="706" y="866" type="qcurve"/>
      <point x="706" y="1402" type="line"/>
      <point x="924" y="1402" type="line"/>
      <point x="924" y="-2" type="line"/>
      <point x="741" y="-2" type="line"/>
      <point x="719" y="119" type="line"/>
      <point x="672" y="50"/>
      <point x="541" y="-21"/>
      <point x="454" y="-21" type="qcurve" smooth="yes"/>
      <point x="275" y="-21"/>
      <point x="75" y="240"/>
      <point x="75" y="452" type="qcurve" smooth="yes"/>
    </contour>
    <contour>
      <point x="293" y="452" type="line" smooth="yes"/>
      <point x="293" y="317"/>
      <point x="397" y="157"/>
      <point x="509" y="157" type="qcurve" smooth="yes"/>
      <point x="579" y="157"/>
      <point x="675" y="217"/>
      <point x="706" y="272" type="qcurve"/>
      <point x="706" y="696" type="line"/>
      <point x="675" y="750"/>
      <point x="578" y="811"/>
      <point x="511" y="811" type="qcurve" smooth="yes"/>
      <point x="400" y="811"/>
      <point x="293" y="623"/>
      <point x="293" y="471" type="qcurve" smooth="yes"/>
    </contour>
  </outline>
</glyph>
<glyph name="e" format="1">
  <advance width="976"/>
  <unicode hex="0065"/>
  <outline>
    <contour>
      <point x="533" y="-21" type="qcurve" smooth="yes"/>
      <point x="326" y="-21"/>
      <point x="80" y="250"/>
      <point x="80" y="462" type="qcurve" smooth="yes"/>
      <point x="80" y="498" type="line" smooth="yes"/>
      <point x="80" y="711"/>
      <point x="324" y="991"/>
      <point x="508" y="990" type="qcurve" smooth="yes"/>
      <point x="705" y="990"/>
      <point x="914" y="751"/>
      <point x="914" y="551" type="qcurve" smooth="yes"/>
      <point x="914" y="422" type="line"/>
      <point x="307" y="422" type="line"/>
      <point x="305" y="417" type="line"/>
      <point x="311" y="301"/>
      <point x="436" y="154"/>
      <point x="546" y="154" type="qcurve" smooth="yes"/>
      <point x="635" y="154"/>
      <point x="761" y="197"/>
      <point x="819" y="237" type="qcurve"/>
      <point x="889" y="94" type="line"/>
      <point x="834" y="46"/>
      <point x="653" y="-21"/>
    </contour>
    <contour>
      <point x="508" y="814" type="qcurve" smooth="yes"/>
      <point x="427" y="814"/>
      <point x="322" y="686"/>
      <point x="310" y="587" type="qcurve"/>
      <point x="311" y="582" type="line"/>
      <point x="698" y="582" type="line"/>
      <point x="698" y="605" type="line" smooth="yes"/>
      <point x="698" y="697"/>
      <point x="603" y="814"/>
    </contour>
  </outline>
</glyph>
<glyph name="f" format="1">
  <advance width="647"/>
  <unicode hex="0066"/>
  <outline>
    <contour>
      <point x="186" y="0" type="line"/>
      <point x="186" y="812" type="line"/>
      <point x="38" y="812" type="line"/>
      <point x="38" y="974" type="line"/>
      <point x="186" y="974" type="line"/>
      <point x="186" y="1087" type="line" smooth="yes"/>
      <point x="186" y="1248"/>
      <point x="362" y="1423"/>
      <point x="520" y="1423" type="qcurve" smooth="yes"/>
      <point x="552" y="1423"/>
      <point x="617" y="1413"/>
      <point x="657" y="1404" type="qcurve"/>
      <point x="635" y="1235" type="line"/>
      <point x="617" y="1238"/>
      <point x="572" y="1244"/>
      <point x="547" y="1244" type="qcurve" smooth="yes"/>
      <point x="476" y="1244"/>
      <point x="405" y="1163"/>
      <point x="405" y="1087" type="qcurve" smooth="yes"/>
      <point x="405" y="974" type="line"/>
      <point x="603" y="974" type="line"/>
      <point x="603" y="812" type="line"/>
      <point x="405" y="812" type="line"/>
      <point x="405" y="0" type="line"/>
    </contour>
  </outline>
</glyph>
<glyph name="g" format="1">
  <advance width="1044"/>
  <unicode hex="0067"/>
  <outline>
    <contour>
      <point x="76" y="430" type="line" smooth="yes"/>
      <point x="76" y="662"/>
      <point x="279" y="948"/>
      <point x="460" y="948" type="qcurve" smooth="yes"/>
      <point x="547" y="948"/>
      <point x="680" y="873"/>
      <point x="725" y="803" type="qcurve"/>
      <point x="747" y="930" type="line"/>
      <point x="929" y="930" type="line"/>
      <point x="929" y="-44" type="line" smooth="yes"/>
      <point x="929" y="-232"/>
      <point x="697" y="-437"/>
      <point x="483" y="-437" type="qcurve" smooth="yes"/>
      <point x="412" y="-437"/>
      <point x="248" y="-397"/>
      <point x="181" y="-363" type="qcurve"/>
      <point x="228" y="-191" type="line"/>
      <point x="282" y="-219"/>
      <point x="412" y="-251"/>
      <point x="482" y="-251" type="qcurve" smooth="yes"/>
      <point x="600" y="-251"/>
      <point x="710" y="-149"/>
      <point x="710" y="-44" type="qcurve" smooth="yes"/>
      <point x="710" y="56" type="line"/>
      <point x="664" y="-2"/>
      <point x="539" y="-63"/>
      <point x="458" y="-63" type="qcurve" smooth="yes"/>
      <point x="279" y="-63"/>
      <point x="76" y="198"/>
      <point x="76" y="411" type="qcurve" smooth="yes"/>
    </contour>
    <contour>
      <point x="294" y="411" type="line" smooth="yes"/>
      <point x="294" y="277"/>
      <point x="401" y="116"/>
      <point x="514" y="116" type="qcurve" smooth="yes"/>
      <point x="584" y="116"/>
      <point x="680" y="174"/>
      <point x="710" y="229" type="qcurve"/>
      <point x="710" y="656" type="line"/>
      <point x="680" y="709"/>
      <point x="583" y="769"/>
      <point x="516" y="769" type="qcurve" smooth="yes"/>
      <point x="403" y="769"/>
      <point x="294" y="580"/>
      <point x="294" y="430" type="qcurve" smooth="yes"/>
    </contour>
  </outline>
</glyph>
<glyph name="h" format="1">
  <advance width="1044"/>
  <unicode hex="0068"/>
  <outline>
    <contour>
      <point x="331" y="848" type="line"/>
      <point x="380" y="916"/>
      <point x="519" y="992"/>
      <point x="604" y="992" type="qcurve" smooth="yes"/>
      <point x="759" y="992"/>
      <point x="932" y="797"/>
      <point x="932" y="593" type="qcurve" smooth="yes"/>
      <point x="932" y="0" type="line"/>
      <point x="714" y="0" type="line"/>
      <point x="714" y="595" type="line" smooth="yes"/>
      <point x="714" y="710"/>
      <point x="622" y="813"/>
      <point x="530" y="813" type="qcurve" smooth="yes"/>
      <point x="466" y="813"/>
      <point x="365" y="760"/>
      <point x="331" y="713" type="qcurve"/>
      <point x="331" y="0" type="line"/>
      <point x="113" y="0" type="line"/>
      <point x="113" y="1404" type="line"/>
      <point x="331" y="1404" type="line"/>
    </contour>
  </outline>
</glyph>
<glyph name="j" format="1">
  <advance width="483"/>
  <unicode hex="006A"/>
  <outline>
    <contour>
      <point x="358" y="930" type="line"/>
      <point x="358" y="-100" type="line" smooth="yes"/>
      <point x="358" y="-262"/>
      <point x="191" y="-437"/>
      <point x="41" y="-437" type="qcurve" smooth="yes"/>
      <point x="9" y="-437"/>
      <point x="-43" y="-430"/>
      <point x="-72" y="-422" type="qcurve"/>
      <point x="-59" y="-247" type="line"/>
      <point x="-44" y="-252"/>
      <point x="1" y="-258"/>
      <point x="20" y="-258" type="qcurve" smooth="yes"/>
      <point x="76" y="-258"/>
      <point x="140" y="-181"/>
      <point x="140" y="-100" type="qcurve" smooth="yes"/>
      <point x="140" y="930" type="line"/>
    </contour>
    <contour>
      <point x="353" y="1169" type="line"/>
      <point x="134" y="1169" type="line"/>
      <point x="134" y="1360" type="line"/>
      <point x="353" y="1360" type="line"/>
    </contour>
  </outline>
</glyph>
<glyph name="k" format="1">
  <advance width="965"/>
  <unicode hex="006B"/>
  <outline>
    <contour>
      <point x="432" y="426" type="line"/>
      <point x="334" y="426" type="line"/>
      <point x="334" y="0" type="line"/>
      <point x="116" y="0" type="line"/>
      <point x="116" y="1404" type="line"/>
      <point x="334" y="1404" type="line"/>
      <point x="334" y="601" type="line"/>
      <point x="425" y="601" type="line"/>
      <point x="671" y="974" type="line"/>
      <point x="928" y="974" type="line"/>
      <point x="607" y="531" type="line"/>
      <point x="976" y="0" type="line"/>
      <point x="722" y="0" type="line"/>
    </contour>
  </outline>
</glyph>
<glyph name="l" format="1">
  <advance width="478"/>
  <unicode hex="006C"/>
  <outline>
    <contour>
      <point x="348" y="0" type="line"/>
      <point x="130" y="0" type="line"/>
      <point x="130" y="1404" type="line"/>
      <point x="348" y="1404" type="line"/>
    </contour>
  </outline>
</glyph>
<glyph name="m" format="1">
  <advance width="1603"/>
  <unicode hex="006D"/>
  <outline>
    <contour>
      <point x="315" y="974" type="line"/>
      <point x="327" y="847" type="line"/>
      <point x="374" y="916"/>
      <point x="518" y="992"/>
      <point x="613" y="992" type="qcurve" smooth="yes"/>
      <point x="708" y="992"/>
      <point x="845" y="905"/>
      <point x="879" y="819" type="qcurve"/>
      <point x="924" y="900"/>
      <point x="1072" y="992"/>
      <point x="1171" y="992" type="qcurve" smooth="yes"/>
      <point x="1318" y="992"/>
      <point x="1488" y="791"/>
      <point x="1488" y="587" type="qcurve" smooth="yes"/>
      <point x="1488" y="0" type="line"/>
      <point x="1269" y="0" type="line"/>
      <point x="1269" y="588" type="line" smooth="yes"/>
      <point x="1269" y="712"/>
      <point x="1184" y="813"/>
      <point x="1098" y="813" type="qcurve" smooth="yes"/>
      <point x="1028" y="813"/>
      <point x="931" y="737"/>
      <point x="909" y="673" type="qcurve"/>
      <point x="909" y="660"/>
      <point x="911" y="640"/>
      <point x="911" y="631" type="qcurve" smooth="yes"/>
      <point x="911" y="0" type="line"/>
      <point x="692" y="0" type="line"/>
      <point x="692" y="588" type="line" smooth="yes"/>
      <point x="692" y="707"/>
      <point x="605" y="813"/>
      <point x="520" y="813" type="qcurve" smooth="yes"/>
      <point x="454" y="813"/>
      <point x="361" y="761"/>
      <point x="334" y="715" type="qcurve"/>
      <point x="334" y="0" type="line"/>
      <point x="115" y="0" type="line"/>
      <point x="115" y="974" type="line"/>
    </contour>
  </outline>
</glyph>
<glyph name="n" format="1">
  <advance width="1044"/>
  <unicode hex="006E"/>
  <outline>
    <contour>
      <point x="313" y="974" type="line"/>
      <point x="326" y="833" type="line"/>
      <point x="374" y="908"/>
      <point x="518" y="992"/>
      <point x="609" y="992" type="qcurve" smooth="yes"/>
      <point x="761" y="992"/>
      <point x="932" y="807"/>
      <point x="932" y="612" type="qcurve" smooth="yes"/>
      <point x="932" y="0" type="line"/>
      <point x="713" y="0" type="line"/>
      <point x="713" y="610" type="line" smooth="yes"/>
      <point x="713" y="720"/>
      <point x="622" y="813"/>
      <point x="529" y="813" type="qcurve" smooth="yes"/>
      <point x="465" y="813"/>
      <point x="365" y="756"/>
      <point x="332" y="707" type="qcurve"/>
      <point x="332" y="0" type="line"/>
      <point x="113" y="0" type="line"/>
      <point x="113" y="974" type="line"/>
    </contour>
  </outline>
</glyph>
<glyph name="o" format="1">
  <advance width="1044"/>
  <unicode hex="006F"/>
  <outline>
    <contour>
      <point x="75" y="494" type="line" smooth="yes"/>
      <point x="75" y="602" name="inserted"/>
      <point x="134" y="780"/>
      <point x="194" y="850" type="qcurve" smooth="yes"/>
      <point x="254" y="920" name="inserted"/>
      <point x="417" y="990"/>
      <point x="520" y="990" type="qcurve" smooth="yes"/>
      <point x="625" y="990" name="inserted"/>
      <point x="789" y="920"/>
      <point x="849" y="850" type="qcurve" smooth="yes"/>
      <point x="909" y="781" name="inserted"/>
      <point x="968" y="603"/>
      <point x="968" y="494" type="qcurve" smooth="yes"/>
      <point x="968" y="475" type="line" smooth="yes"/>
      <point x="968" y="365" name="inserted"/>
      <point x="909" y="186"/>
      <point x="849" y="117" type="qcurve" smooth="yes"/>
      <point x="789" y="48" name="inserted"/>
      <point x="626" y="-21"/>
      <point x="522" y="-21" type="qcurve" smooth="yes"/>
      <point x="418" y="-21" name="inserted"/>
      <point x="253" y="48"/>
      <point x="194" y="118" type="qcurve" smooth="yes"/>
      <point x="134" y="187" name="inserted"/>
      <point x="75" y="366"/>
      <point x="75" y="475" type="qcurve" smooth="yes"/>
    </contour>
    <contour>
      <point x="293" y="475" type="line" smooth="yes"/>
      <point x="293" y="404" name="inserted"/>
      <point x="321" y="288"/>
      <point x="349" y="243" type="qcurve" smooth="yes"/>
      <point x="377" y="198" name="inserted"/>
      <point x="463" y="154"/>
      <point x="522" y="154" type="qcurve" smooth="yes"/>
      <point x="579" y="154" name="inserted"/>
      <point x="665" y="198"/>
      <point x="693" y="243" type="qcurve" smooth="yes"/>
      <point x="722" y="288" name="inserted"/>
      <point x="751" y="404"/>
      <point x="751" y="475" type="qcurve" smooth="yes"/>
      <point x="751" y="494" type="line" smooth="yes"/>
      <point x="751" y="564" name="inserted"/>
      <point x="722" y="678"/>
      <point x="693" y="723" type="qcurve" smooth="yes"/>
      <point x="665" y="769" name="inserted"/>
      <point x="578" y="814"/>
      <point x="520" y="814" type="qcurve" smooth="yes"/>
      <point x="463" y="814" name="inserted"/>
      <point x="378" y="769"/>
      <point x="349" y="723" type="qcurve" smooth="yes"/>
      <point x="321" y="678" name="inserted"/>
      <point x="293" y="563"/>
      <point x="293" y="494" type="qcurve" smooth="yes"/>
    </contour>
  </outline>
</glyph>
<glyph name="p" format="1">
  <advance width="1044"/>
  <unicode hex="0070"/>
  <outline>
    <contour>
      <point x="968" y="413" type="line" smooth="yes"/>
      <point x="968" y="201"/>
      <point x="769" y="-60"/>
      <point x="590" y="-60" type="qcurve" smooth="yes"/>
      <point x="508" y="-60"/>
      <point x="380" y="-1"/>
      <point x="334" y="57" type="qcurve"/>
      <point x="334" y="-416" type="line"/>
      <point x="115" y="-416" type="line"/>
      <point x="115" y="932" type="line"/>
      <point x="300" y="932" type="line"/>
      <point x="321" y="810" type="line"/>
      <point x="368" y="878"/>
      <point x="500" y="950"/>
      <point x="588" y="950" type="qcurve" smooth="yes"/>
      <point x="768" y="950"/>
      <point x="968" y="665"/>
      <point x="968" y="432" type="qcurve" smooth="yes"/>
    </contour>
    <contour>
      <point x="751" y="432" type="line" smooth="yes"/>
      <point x="751" y="581"/>
      <point x="638" y="771"/>
      <point x="527" y="771" type="qcurve" smooth="yes"/>
      <point x="458" y="771"/>
      <point x="363" y="713"/>
      <point x="334" y="660" type="qcurve"/>
      <point x="334" y="220" type="line"/>
      <point x="363" y="169"/>
      <point x="458" y="114"/>
      <point x="528" y="114" type="qcurve" smooth="yes"/>
      <point x="640" y="114"/>
      <point x="751" y="279"/>
      <point x="751" y="413" type="qcurve" smooth="yes"/>
    </contour>
  </outline>
</glyph>
<glyph name="q" format="1">
  <advance width="1044"/>
  <unicode hex="0071"/>
  <outline>
    <contour>
      <point x="75" y="432" type="line" smooth="yes"/>
      <point x="75" y="665"/>
      <point x="275" y="950"/>
      <point x="455" y="950" type="qcurve" smooth="yes"/>
      <point x="540" y="950"/>
      <point x="670" y="880"/>
      <point x="716" y="814" type="qcurve"/>
      <point x="741" y="932" type="line"/>
      <point x="918" y="932" type="line"/>
      <point x="918" y="-416" type="line"/>
      <point x="699" y="-416" type="line"/>
      <point x="699" y="50" type="line"/>
      <point x="654" y="-5"/>
      <point x="532" y="-60"/>
      <point x="454" y="-60" type="qcurve" smooth="yes"/>
      <point x="275" y="-60"/>
      <point x="75" y="201"/>
      <point x="75" y="413" type="qcurve" smooth="yes"/>
    </contour>
    <contour>
      <point x="293" y="413" type="line" smooth="yes"/>
      <point x="293" y="278"/>
      <point x="397" y="114"/>
      <point x="509" y="114" type="qcurve" smooth="yes"/>
      <point x="576" y="114"/>
      <point x="669" y="167"/>
      <point x="699" y="218" type="qcurve"/>
      <point x="699" y="671" type="line"/>
      <point x="669" y="720"/>
      <point x="575" y="775"/>
      <point x="511" y="775" type="qcurve" smooth="yes"/>
      <point x="400" y="775"/>
      <point x="293" y="583"/>
      <point x="293" y="432" type="qcurve" smooth="yes"/>
    </contour>
  </outline>
</glyph>
<glyph name="r" format="1">
  <advance width="638"/>
  <unicode hex="0072"/>
  <outline>
    <contour>
      <point x="600" y="777" type="line"/>
      <point x="507" y="780" type="line" smooth="yes"/>
      <point x="443" y="780"/>
      <point x="357" y="726"/>
      <point x="334" y="677" type="qcurve"/>
      <point x="334" y="0" type="line"/>
      <point x="115" y="0" type="line"/>
      <point x="115" y="974" type="line"/>
      <point x="315" y="974" type="line"/>
      <point x="329" y="833" type="line"/>
      <point x="366" y="907"/>
      <point x="482" y="992"/>
      <point x="558" y="992" type="qcurve" smooth="yes"/>
      <point x="578" y="992"/>
      <point x="612" y="986"/>
      <point x="626" y="981" type="qcurve"/>
    </contour>
  </outline>
</glyph>
<glyph name="s" format="1">
  <advance width="959"/>
  <unicode hex="0073"/>
  <outline>
    <contour>
      <point x="662" y="263" type="qcurve" smooth="yes"/>
      <point x="662" y="313"/>
      <point x="576" y="380"/>
      <point x="458" y="405" type="qcurve" smooth="yes"/>
      <point x="284" y="442"/>
      <point x="104" y="578"/>
      <point x="104" y="695" type="qcurve" smooth="yes"/>
      <point x="104" y="817"/>
      <point x="311" y="990"/>
      <point x="481" y="990" type="qcurve" smooth="yes"/>
      <point x="659" y="990"/>
      <point x="869" y="814"/>
      <point x="864" y="685" type="qcurve"/>
      <point x="862" y="679" type="line"/>
      <point x="653" y="679" type="line"/>
      <point x="653" y="740"/>
      <point x="561" y="826"/>
      <point x="481" y="826" type="qcurve" smooth="yes"/>
      <point x="401" y="826"/>
      <point x="319" y="755"/>
      <point x="319" y="704" type="qcurve" smooth="yes"/>
      <point x="319" y="652"/>
      <point x="397" y="592"/>
      <point x="517" y="569" type="qcurve" smooth="yes"/>
      <point x="700" y="531"/>
      <point x="878" y="393"/>
      <point x="878" y="274" type="qcurve" smooth="yes"/>
      <point x="878" y="143"/>
      <point x="661" y="-21"/>
      <point x="483" y="-21" type="qcurve" smooth="yes"/>
      <point x="293" y="-21"/>
      <point x="74" y="173"/>
      <point x="79" y="299" type="qcurve"/>
      <point x="81" y="305" type="line"/>
      <point x="284" y="305" type="line"/>
      <point x="288" y="220"/>
      <point x="403" y="143"/>
      <point x="486" y="143" type="qcurve" smooth="yes"/>
      <point x="571" y="143"/>
      <point x="662" y="208"/>
    </contour>
  </outline>
</glyph>
<glyph name="t" format="1">
  <advance width="641"/>
  <unicode hex="0074"/>
  <outline>
    <contour>
      <point x="387" y="1208" type="line"/>
      <point x="387" y="972" type="line"/>
      <point x="562" y="972" type="line"/>
      <point x="562" y="810" type="line"/>
      <point x="387" y="810" type="line"/>
      <point x="387" y="272" type="line" smooth="yes"/>
      <point x="387" y="211"/>
      <point x="439" y="160"/>
      <point x="482" y="160" type="qcurve" smooth="yes"/>
      <point x="500" y="160"/>
      <point x="535" y="166"/>
      <point x="550" y="172" type="qcurve"/>
      <point x="573" y="11" type="line"/>
      <point x="545" y="-4"/>
      <point x="468" y="-21"/>
      <point x="427" y="-21" type="qcurve" smooth="yes"/>
      <point x="306" y="-21"/>
      <point x="169" y="120"/>
      <point x="169" y="272" type="qcurve" smooth="yes"/>
      <point x="169" y="810" type="line"/>
      <point x="21" y="810" type="line"/>
      <point x="21" y="972" type="line"/>
      <point x="169" y="972" type="line"/>
      <point x="169" y="1208" type="line"/>
    </contour>
  </outline>
</glyph>
<glyph name="u" format="1">
  <advance width="1044"/>
  <unicode hex="0075"/>
  <outline>
    <contour>
      <point x="722" y="140" type="line"/>
      <point x="676" y="63"/>
      <point x="536" y="-21"/>
      <point x="444" y="-21" type="qcurve" smooth="yes"/>
      <point x="287" y="-21"/>
      <point x="111" y="179"/>
      <point x="111" y="389" type="qcurve" smooth="yes"/>
      <point x="111" y="972" type="line"/>
      <point x="329" y="972" type="line"/>
      <point x="329" y="388" type="line" smooth="yes"/>
      <point x="329" y="260"/>
      <point x="411" y="157"/>
      <point x="495" y="157" type="qcurve" smooth="yes"/>
      <point x="574" y="157"/>
      <point x="681" y="214"/>
      <point x="712" y="268" type="qcurve"/>
      <point x="712" y="972" type="line"/>
      <point x="931" y="972" type="line"/>
      <point x="931" y="-2" type="line"/>
      <point x="740" y="-2" type="line"/>
    </contour>
  </outline>
</glyph>
<glyph name="v" format="1">
  <advance width="934"/>
  <unicode hex="0076"/>
  <outline>
    <contour>
      <point x="454" y="329" type="line"/>
      <point x="470" y="250" type="line"/>
      <point x="475" y="250" type="line"/>
      <point x="492" y="329" type="line"/>
      <point x="686" y="974" type="line"/>
      <point x="912" y="974" type="line"/>
      <point x="566" y="0" type="line"/>
      <point x="376" y="0" type="line"/>
      <point x="29" y="974" type="line"/>
      <point x="255" y="974" type="line"/>
    </contour>
  </outline>
</glyph>
<glyph name="w" format="1">
  <advance width="1377.0"/>
  <unicode hex="0077"/>
  <outline>
    <contour>
      <point x="972" y="281" type="line"/>
      <point x="977" y="282" type="line"/>
      <point x="1130" y="974" type="line"/>
      <point x="1339" y="974" type="line"/>
      <point x="1073" y="0" type="line"/>
      <point x="894" y="0" type="line"/>
      <point x="687" y="665" type="line"/>
      <point x="685" y="674" type="line"/>
      <point x="684" y="665" type="line"/>
      <point x="479" y="0" type="line"/>
      <point x="300" y="0" type="line"/>
      <point x="33" y="974" type="line"/>
      <point x="243" y="974" type="line"/>
      <point x="399" y="292" type="line"/>
      <point x="404" y="291" type="line"/>
      <point x="607" y="974" type="line"/>
      <point x="766" y="974" type="line"/>
    </contour>
  </outline>
</glyph>
<glyph name="x" format="1">
  <advance width="934"/>
  <unicode hex="0078"/>
  <outline>
    <contour>
      <point x="464" y="640" type="line"/>
      <point x="644" y="974" type="line"/>
      <point x="896" y="974" type="line"/>
      <point x="590" y="492" type="line"/>
      <point x="905" y="0" type="line"/>
      <point x="656" y="0" type="line"/>
      <point x="468" y="342" type="line"/>
      <point x="280" y="0" type="line"/>
      <point x="30" y="0" type="line"/>
      <point x="345" y="492" type="line"/>
      <point x="39" y="974" type="line"/>
      <point x="287" y="974" type="line"/>
    </contour>
  </outline>
</glyph>
<glyph name="y" format="1">
  <advance width="934"/>
  <unicode hex="0079"/>
  <outline>
    <contour>
      <point x="438" y="347" type="line"/>
      <point x="460" y="250" type="line"/>
      <point x="465" y="250" type="line"/>
      <point x="679" y="930" type="line"/>
      <point x="918" y="930" type="line"/>
      <point x="515" y="-191" type="line" smooth="yes"/>
      <point x="476" y="-293"/>
      <point x="336" y="-437"/>
      <point x="207" y="-437" type="qcurve" smooth="yes"/>
      <point x="180" y="-437"/>
      <point x="118" y="-426"/>
      <point x="89" y="-419" type="qcurve"/>
      <point x="113" y="-250" type="line"/>
      <point x="125" y="-251"/>
      <point x="168" y="-254"/>
      <point x="179" y="-254" type="qcurve" smooth="yes"/>
      <point x="239" y="-254"/>
      <point x="310" y="-173"/>
      <point x="332" y="-120" type="qcurve" smooth="yes"/>
      <point x="368" y="-32" type="line"/>
      <point x="14" y="930" type="line"/>
      <point x="253" y="930" type="line"/>
    </contour>
  </outline>
</glyph>
<glyph name="z" format="1">
  <advance width="934"/>
  <unicode hex="007A"/>
  <outline>
    <contour>
      <point x="347" y="175" type="line"/>
      <point x="868" y="175" type="line"/>
      <point x="868" y="0" type="line"/>
      <point x="77" y="0" type="line"/>
      <point x="77" y="143" type="line"/>
      <point x="568" y="797" type="line"/>
      <point x="86" y="797" type="line"/>
      <point x="86" y="974" type="line"/>
      <point x="844" y="974" type="line"/>
      <point x="844" y="835" type="line"/>
    </contour>
  </outline>
</glyph>
<glyph name="bar" format="1">
  <advance width="623"/>
  <unicode hex="007C"/>
  <outline>
    <contour>
      <point x="387" y="-243" type="line"/>
      <point x="237" y="-243" type="line"/>
      <point x="237" y="1310" type="line"/>
      <point x="387" y="1310" type="line"/>
    </contour>
  </outline>
</glyph>
<glyph name="braceright" format="1">
  <advance width="842"/>
  <unicode hex="007D"/>
  <outline>
    <contour>
      <point x="169" y="-204" type="line"/>
      <point x="257" y="-174"/>
      <point x="333" y="-21"/>
      <point x="333" y="92" type="qcurve"/>
      <point x="333" y="276" type="line"/>
      <point x="333" y="372"/>
      <point x="414" y="516"/>
      <point x="498" y="555" type="qcurve"/>
      <point x="414" y="593"/>
      <point x="333" y="737"/>
      <point x="333" y="834" type="qcurve"/>
      <point x="333" y="1019" type="line"/>
      <point x="333" y="1133"/>
      <point x="257" y="1286"/>
      <point x="169" y="1316" type="qcurve"/>
      <point x="212" y="1437" type="line"/>
      <point x="386" y="1388"/>
      <point x="535" y="1173"/>
      <point x="535" y="1019" type="qcurve"/>
      <point x="535" y="834" type="line"/>
      <point x="535" y="738"/>
      <point x="620" y="632"/>
      <point x="711" y="632" type="qcurve"/>
      <point x="711" y="479" type="line"/>
      <point x="620" y="479"/>
      <point x="535" y="372"/>
      <point x="535" y="276" type="qcurve"/>
      <point x="535" y="92" type="line"/>
      <point x="535" y="-61"/>
      <point x="386" y="-277"/>
      <point x="212" y="-327" type="qcurve"/>
    </contour>
  </outline>
</glyph>
<glyph name="asciitilde" format="1">
  <advance width="1225"/>
  <unicode hex="007E"/>
  <outline>
    <contour>
      <point x="1120" y="714" type="line"/>
      <point x="1120" y="578"/>
      <point x="961" y="387"/>
      <point x="842" y="387" type="qcurve" smooth="yes"/>
      <point x="763" y="387"/>
      <point x="633" y="446"/>
      <point x="558" y="509" type="qcurve" smooth="yes"/>
      <point x="509" y="551"/>
      <point x="429" y="590"/>
      <point x="388" y="590" type="qcurve" smooth="yes"/>
      <point x="334" y="590"/>
      <point x="258" y="498"/>
      <point x="258" y="433" type="qcurve"/>
      <point x="105" y="453" type="line"/>
      <point x="105" y="588"/>
      <point x="260" y="772"/>
      <point x="382" y="772" type="qcurve" smooth="yes"/>
      <point x="459" y="772"/>
      <point x="595" y="712"/>
      <point x="667" y="651" type="qcurve" smooth="yes"/>
      <point x="716" y="608"/>
      <point x="793" y="570"/>
      <point x="835" y="570" type="qcurve" smooth="yes"/>
      <point x="888" y="570"/>
      <point x="966" y="668"/>
      <point x="966" y="734" type="qcurve"/>
    </contour>
  </outline>
</glyph>
<glyph name="exclamdown" format="1">
  <advance width="488"/>
  <unicode hex="00A1"/>
  <outline>
    <contour>
      <point x="153" y="559" type="line"/>
      <point x="341" y="559" type="line"/>
      <point x="363" y="-364" type="line"/>
      <point x="131" y="-364" type="line"/>
    </contour>
    <contour>
      <point x="368" y="838" type="qcurve" smooth="yes"/>
      <point x="368" y="787"/>
      <point x="303" y="720"/>
      <point x="245" y="720" type="qcurve" smooth="yes"/>
      <point x="185" y="720"/>
      <point x="121" y="787"/>
      <point x="121" y="838" type="qcurve" smooth="yes"/>
      <point x="121" y="887"/>
      <point x="185" y="955"/>
      <point x="245" y="955" type="qcurve" smooth="yes"/>
      <point x="303" y="955"/>
      <point x="368" y="887"/>
    </contour>
  </outline>
</glyph>
<glyph name="cent" format="1">
  <advance width="1034"/>
  <unicode hex="00A2"/>
  <outline>
    <contour>
      <point x="532" y="132" type="qcurve" smooth="yes"/>
      <point x="612" y="132"/>
      <point x="720" y="226"/>
      <point x="725" y="298" type="qcurve"/>
      <point x="931" y="298" type="line"/>
      <point x="927" y="175"/>
      <point x="750" y="-9"/>
      <point x="618" y="-34" type="qcurve"/>
      <point x="618" y="-245" type="line"/>
      <point x="438" y="-245" type="line"/>
      <point x="438" y="-34" type="line"/>
      <point x="274" y="-4"/>
      <point x="90" y="255"/>
      <point x="90" y="453" type="qcurve" smooth="yes"/>
      <point x="90" y="478" type="line" smooth="yes"/>
      <point x="90" y="669"/>
      <point x="274" y="929"/>
      <point x="438" y="959" type="qcurve"/>
      <point x="438" y="1162" type="line"/>
      <point x="618" y="1162" type="line"/>
      <point x="618" y="960" type="line"/>
      <point x="761" y="935"/>
      <point x="927" y="741"/>
      <point x="931" y="600" type="qcurve"/>
      <point x="725" y="600" type="line"/>
      <point x="719" y="687"/>
      <point x="613" y="792"/>
      <point x="531" y="792" type="qcurve" smooth="yes"/>
      <point x="428" y="792" name="inserted"/>
      <point x="317" y="651"/>
      <point x="310" y="511" type="qcurve" smooth="yes"/>
      <point x="309" y="446" type="line"/>
      <point x="309" y="288"/>
      <point x="423" y="132"/>
    </contour>
  </outline>
</glyph>
<glyph name="sterling" format="1">
  <advance width="1085"/>
  <unicode hex="00A3"/>
  <outline>
    <contour>
      <point x="458" y="538" type="line"/>
      <point x="464" y="380" type="line" smooth="yes"/>
      <point x="464" y="319" name="inserted"/>
      <point x="436" y="220"/>
      <point x="407" y="182" type="qcurve"/>
      <point x="1033" y="182" type="line"/>
      <point x="1032" y="0" type="line"/>
      <point x="88" y="0" type="line"/>
      <point x="88" y="182" type="line"/>
      <point x="162" y="182" type="line"/>
      <point x="197" y="190"/>
      <point x="236" y="290"/>
      <point x="236" y="372" type="qcurve" smooth="yes"/>
      <point x="230" y="538" type="line"/>
      <point x="85" y="538" type="line"/>
      <point x="85" y="717" type="line"/>
      <point x="224" y="717" type="line"/>
      <point x="217" y="935" type="line" smooth="yes"/>
      <point x="217" y="1117"/>
      <point x="442" y="1328"/>
      <point x="625" y="1328" type="qcurve" smooth="yes" name="inserted"/>
      <point x="807" y="1328"/>
      <point x="1016" y="1131"/>
      <point x="1016" y="966" type="qcurve"/>
      <point x="796" y="966" type="line"/>
      <point x="796" y="1051"/>
      <point x="701" y="1146"/>
      <point x="617" y="1146" type="qcurve" smooth="yes"/>
      <point x="536" y="1146"/>
      <point x="444" y="1029"/>
      <point x="444" y="935" type="qcurve" smooth="yes"/>
      <point x="452" y="717" type="line"/>
      <point x="732" y="717" type="line"/>
      <point x="732" y="538" type="line"/>
    </contour>
  </outline>
</glyph>
<glyph name="currency" format="1">
  <advance width="1293"/>
  <unicode hex="00A4"/>
  <outline>
    <contour>
      <point x="977" y="94" type="line"/>
      <point x="905" y="36" name="inserted"/>
      <point x="742" y="-21"/>
      <point x="651" y="-21" type="qcurve" smooth="yes"/>
      <point x="560" y="-21" name="inserted"/>
      <point x="398" y="36"/>
      <point x="327" y="93" type="qcurve"/>
      <point x="211" y="-26" type="line"/>
      <point x="84" y="104" type="line"/>
      <point x="205" y="227" type="line"/>
      <point x="160" y="297" name="inserted"/>
      <point x="115" y="456"/>
      <point x="115" y="545" type="qcurve" smooth="yes"/>
      <point x="115" y="635" name="inserted"/>
      <point x="164" y="799"/>
      <point x="213" y="873" type="qcurve"/>
      <point x="84" y="1005" type="line"/>
      <point x="211" y="1135" type="line"/>
      <point x="338" y="1004" type="line"/>
      <point x="408" y="1056" name="inserted"/>
      <point x="564" y="1108"/>
      <point x="651" y="1108" type="qcurve" smooth="yes"/>
      <point x="738" y="1108" name="inserted"/>
      <point x="895" y="1055"/>
      <point x="965" y="1003" type="qcurve"/>
      <point x="1095" y="1136" type="line"/>
      <point x="1223" y="1005" type="line"/>
      <point x="1090" y="869" type="line"/>
      <point x="1138" y="798" name="inserted"/>
      <point x="1186" y="635"/>
      <point x="1186" y="545" type="qcurve" smooth="yes"/>
      <point x="1186" y="458" name="inserted"/>
      <point x="1142" y="301"/>
      <point x="1098" y="230" type="qcurve"/>
      <point x="1223" y="104" type="line"/>
      <point x="1095" y="-27" type="line"/>
    </contour>
    <contour>
      <point x="282" y="545" type="qcurve" smooth="yes"/>
      <point x="282" y="437"/>
      <point x="381" y="251"/>
      <point x="466" y="198" type="qcurve" smooth="yes" name="inserted"/>
      <point x="552" y="146"/>
      <point x="750" y="146"/>
      <point x="835" y="199" type="qcurve" smooth="yes" name="inserted"/>
      <point x="921" y="252"/>
      <point x="1019" y="437"/>
      <point x="1019" y="545" type="qcurve" smooth="yes" name="inserted"/>
      <point x="1019" y="652"/>
      <point x="921" y="835"/>
      <point x="836" y="888" type="qcurve" smooth="yes" name="inserted"/>
      <point x="751" y="941"/>
      <point x="551" y="941"/>
      <point x="465" y="888" type="qcurve" smooth="yes" name="inserted"/>
      <point x="380" y="835"/>
      <point x="282" y="652"/>
    </contour>
  </outline>
</glyph>
<glyph name="yen" format="1">
  <advance width="1123"/>
  <unicode hex="00A5"/>
  <outline>
    <contour>
      <point x="559" y="738" type="line"/>
      <point x="842" y="1310" type="line"/>
      <point x="1094" y="1310" type="line"/>
      <point x="741" y="668" type="line"/>
      <point x="983" y="668" type="line"/>
      <point x="983" y="531" type="line"/>
      <point x="669" y="531" type="line"/>
      <point x="669" y="407" type="line"/>
      <point x="983" y="407" type="line"/>
      <point x="983" y="271" type="line"/>
      <point x="669" y="271" type="line"/>
      <point x="669" y="0" type="line"/>
      <point x="442" y="0" type="line"/>
      <point x="442" y="271" type="line"/>
      <point x="123" y="271" type="line"/>
      <point x="123" y="407" type="line"/>
      <point x="442" y="407" type="line"/>
      <point x="442" y="531" type="line"/>
      <point x="123" y="531" type="line"/>
      <point x="123" y="668" type="line"/>
      <point x="376" y="668" type="line"/>
      <point x="23" y="1310" type="line"/>
      <point x="275" y="1310" type="line"/>
    </contour>
  </outline>
</glyph>
<glyph name="brokenbar" format="1">
  <advance width="457"/>
  <unicode hex="00A6"/>
  <outline>
    <contour>
      <point x="122" y="-270" type="line"/>
      <point x="122" y="446" type="line"/>
      <point x="329" y="446" type="line"/>
      <point x="329" y="-270" type="line"/>
    </contour>
    <contour>
      <point x="329" y="601" type="line"/>
      <point x="122" y="601" type="line"/>
      <point x="122" y="1283" type="line"/>
      <point x="329" y="1283" type="line"/>
    </contour>
  </outline>
</glyph>
<glyph name="section" format="1">
  <advance width="1145"/>
  <unicode hex="00A7"/>
  <outline>
    <contour>
      <point x="1048" y="362" type="qcurve" smooth="yes"/>
      <point x="1048" y="279" name="inserted"/>
      <point x="971" y="156"/>
      <point x="894" y="116" type="qcurve"/>
      <point x="954" y="71" name="inserted"/>
      <point x="1015" y="-57"/>
      <point x="1015" y="-140" type="qcurve" smooth="yes"/>
      <point x="1015" y="-296"/>
      <point x="772" y="-474"/>
      <point x="562" y="-474" type="qcurve" smooth="yes"/>
      <point x="340" y="-474"/>
      <point x="81" y="-279"/>
      <point x="81" y="-92" type="qcurve"/>
      <point x="299" y="-91" type="line"/>
      <point x="299" y="-190"/>
      <point x="439" y="-299"/>
      <point x="562" y="-299" type="qcurve" smooth="yes"/>
      <point x="671" y="-299"/>
      <point x="797" y="-213"/>
      <point x="797" y="-142" type="qcurve" smooth="yes"/>
      <point x="797" y="-73"/>
      <point x="677" y="9"/>
      <point x="509" y="59" type="qcurve" smooth="yes"/>
      <point x="339" y="105"/>
      <point x="168" y="204"/>
      <point x="126" y="273" type="qcurve" smooth="yes" name="inserted"/>
      <point x="106" y="308" name="inserted"/>
      <point x="85" y="391"/>
      <point x="85" y="440" type="qcurve" smooth="yes"/>
      <point x="85" y="523" name="inserted"/>
      <point x="161" y="647"/>
      <point x="237" y="687" type="qcurve"/>
      <point x="178" y="732"/>
      <point x="117" y="854"/>
      <point x="117" y="944" type="qcurve" smooth="yes"/>
      <point x="117" y="1097"/>
      <point x="365" y="1281"/>
      <point x="572" y="1281" type="qcurve" smooth="yes"/>
      <point x="788" y="1281"/>
      <point x="1029" y="1079"/>
      <point x="1029" y="895" type="qcurve"/>
      <point x="810" y="895" type="line"/>
      <point x="810" y="990"/>
      <point x="680" y="1106"/>
      <point x="572" y="1106" type="qcurve" smooth="yes"/>
      <point x="461" y="1106"/>
      <point x="336" y="1020"/>
      <point x="336" y="946" type="qcurve" smooth="yes"/>
      <point x="336" y="871"/>
      <point x="444" y="792"/>
      <point x="618" y="746" type="qcurve" smooth="yes" name="inserted"/>
      <point x="792" y="699"/>
      <point x="967" y="597"/>
      <point x="1007" y="528" type="qcurve" smooth="yes" name="inserted"/>
      <point x="1027" y="494" name="inserted"/>
      <point x="1048" y="411"/>
    </contour>
    <contour>
      <point x="541" y="558" type="qcurve" smooth="yes"/>
      <point x="504" y="568" name="inserted"/>
      <point x="434" y="590"/>
      <point x="400" y="602" type="qcurve"/>
      <point x="351" y="584" name="inserted"/>
      <point x="302" y="511"/>
      <point x="302" y="455" type="qcurve" smooth="yes"/>
      <point x="302" y="382"/>
      <point x="392" y="305"/>
      <point x="526" y="262" type="qcurve" smooth="yes"/>
      <point x="687" y="215" type="line"/>
      <point x="728" y="200" type="line"/>
      <point x="780" y="221" name="inserted"/>
      <point x="832" y="295"/>
      <point x="832" y="348" type="qcurve" smooth="yes"/>
      <point x="832" y="421"/>
      <point x="709" y="508"/>
    </contour>
  </outline>
</glyph>
<glyph name="dieresis" format="1">
  <advance width="811"/>
  <unicode hex="00A8"/>
  <outline>
    <contour>
      <point x="84" y="1354" type="qcurve" smooth="yes"/>
      <point x="84" y="1399"/>
      <point x="144" y="1460"/>
      <point x="197" y="1460" type="qcurve" smooth="yes" name="inserted"/>
      <point x="250" y="1460"/>
      <point x="311" y="1399"/>
      <point x="311" y="1354" type="qcurve" smooth="yes" name="inserted"/>
      <point x="311" y="1309"/>
      <point x="250" y="1248"/>
      <point x="197" y="1248" type="qcurve" smooth="yes" name="inserted"/>
      <point x="144" y="1248"/>
      <point x="84" y="1309"/>
    </contour>
    <contour>
      <point x="494" y="1353" type="qcurve" smooth="yes"/>
      <point x="494" y="1398"/>
      <point x="555" y="1459"/>
      <point x="608" y="1459" type="qcurve" smooth="yes" name="inserted"/>
      <point x="662" y="1459"/>
      <point x="723" y="1398"/>
      <point x="723" y="1353" type="qcurve" smooth="yes" name="inserted"/>
      <point x="723" y="1308"/>
      <point x="662" y="1247"/>
      <point x="608" y="1247" type="qcurve" smooth="yes" name="inserted"/>
      <point x="555" y="1247"/>
      <point x="494" y="1308"/>
    </contour>
  </outline>
</glyph>
<glyph name="copyright" format="1">
  <advance width="1444"/>
  <unicode hex="00A9"/>
  <outline>
    <contour>
      <point x="999" y="534" type="line"/>
      <point x="1001" y="529" type="line"/>
      <point x="1004" y="393"/>
      <point x="846" y="252"/>
      <point x="705" y="252" type="qcurve" smooth="yes"/>
      <point x="561" y="252"/>
      <point x="391" y="443"/>
      <point x="391" y="600" type="qcurve" smooth="yes"/>
      <point x="391" y="707" type="line" smooth="yes"/>
      <point x="391" y="863"/>
      <point x="561" y="1055"/>
      <point x="705" y="1055" type="qcurve" smooth="yes"/>
      <point x="846" y="1055"/>
      <point x="1005" y="912"/>
      <point x="1002" y="778" type="qcurve"/>
      <point x="1000" y="773" type="line"/>
      <point x="867" y="773" type="line"/>
      <point x="867" y="857"/>
      <point x="786" y="934"/>
      <point x="705" y="934" type="qcurve" smooth="yes"/>
      <point x="620" y="934"/>
      <point x="529" y="810"/>
      <point x="529" y="708" type="qcurve" smooth="yes"/>
      <point x="529" y="600" type="line" smooth="yes"/>
      <point x="529" y="497"/>
      <point x="620" y="373"/>
      <point x="705" y="373" type="qcurve" smooth="yes"/>
      <point x="786" y="373"/>
      <point x="866" y="448"/>
      <point x="866" y="534" type="qcurve"/>
    </contour>
    <contour>
      <point x="188" y="654" type="qcurve" smooth="yes"/>
      <point x="188" y="416"/>
      <point x="497" y="92"/>
      <point x="717" y="92" type="qcurve" smooth="yes"/>
      <point x="937" y="92"/>
      <point x="1246" y="416"/>
      <point x="1246" y="654" type="qcurve" smooth="yes"/>
      <point x="1246" y="891"/>
      <point x="937" y="1214"/>
      <point x="717" y="1214" type="qcurve" smooth="yes"/>
      <point x="496" y="1214"/>
      <point x="188" y="891"/>
    </contour>
    <contour>
      <point x="78" y="654" type="qcurve" smooth="yes"/>
      <point x="78" y="938"/>
      <point x="451" y="1326"/>
      <point x="717" y="1326" type="qcurve" smooth="yes"/>
      <point x="983" y="1326"/>
      <point x="1355" y="938"/>
      <point x="1355" y="654" type="qcurve" smooth="yes"/>
      <point x="1355" y="370"/>
      <point x="982" y="-21"/>
      <point x="717" y="-21" type="qcurve" smooth="yes"/>
      <point x="451" y="-21"/>
      <point x="78" y="370"/>
    </contour>
  </outline>
</glyph>
<glyph name="ordfeminine" format="1">
  <advance width="822"/>
  <unicode hex="00AA"/>
  <outline>
    <contour>
      <point x="547" y="704" type="line"/>
      <point x="532" y="765" type="line"/>
      <point x="497" y="728" name="inserted"/>
      <point x="407" y="691"/>
      <point x="351" y="691" type="qcurve" smooth="yes"/>
      <point x="245" y="691"/>
      <point x="127" y="802"/>
      <point x="127" y="896" type="qcurve" smooth="yes"/>
      <point x="127" y="995"/>
      <point x="278" y="1104"/>
      <point x="434" y="1104" type="qcurve" smooth="yes"/>
      <point x="526" y="1104" type="line"/>
      <point x="526" y="1150" type="line" smooth="yes"/>
      <point x="526" y="1207" name="inserted"/>
      <point x="473" y="1264"/>
      <point x="421" y="1264" type="qcurve" smooth="yes"/>
      <point x="363" y="1264"/>
      <point x="297" y="1218"/>
      <point x="297" y="1175" type="qcurve"/>
      <point x="141" y="1188" type="line"/>
      <point x="141" y="1281"/>
      <point x="299" y="1398"/>
      <point x="421" y="1398" type="qcurve" smooth="yes"/>
      <point x="545" y="1398"/>
      <point x="683" y="1267"/>
      <point x="683" y="1148" type="qcurve" smooth="yes"/>
      <point x="683" y="864" type="line" smooth="yes"/>
      <point x="683" y="820" name="inserted"/>
      <point x="695" y="740"/>
      <point x="707" y="704" type="qcurve"/>
    </contour>
    <contour>
      <point x="390" y="821" type="qcurve" smooth="yes"/>
      <point x="426" y="821"/>
      <point x="501" y="853"/>
      <point x="526" y="876" type="qcurve"/>
      <point x="526" y="999" type="line"/>
      <point x="430" y="999" type="line" smooth="yes"/>
      <point x="362" y="998"/>
      <point x="284" y="944"/>
      <point x="284" y="900" type="qcurve" smooth="yes"/>
      <point x="284" y="860" name="inserted"/>
      <point x="337" y="821"/>
    </contour>
  </outline>
</glyph>
<glyph name="logicalnot" format="1">
  <advance width="1020"/>
  <unicode hex="00AC"/>
  <outline>
    <contour>
      <point x="866" y="374" type="line"/>
      <point x="686" y="374" type="line"/>
      <point x="686" y="608" type="line"/>
      <point x="114" y="608" type="line"/>
      <point x="114" y="762" type="line"/>
      <point x="866" y="762" type="line"/>
    </contour>
  </outline>
</glyph>
<glyph name="registered" format="1">
  <advance width="1444"/>
  <unicode hex="00AE"/>
  <outline>
    <contour>
      <point x="78" y="654" type="qcurve" smooth="yes"/>
      <point x="78" y="836"/>
      <point x="247" y="1147"/>
      <point x="396" y="1237" type="qcurve" smooth="yes" name="inserted"/>
      <point x="545" y="1326"/>
      <point x="890" y="1326"/>
      <point x="1039" y="1237" type="qcurve" smooth="yes" name="inserted"/>
      <point x="1187" y="1147"/>
      <point x="1355" y="836"/>
      <point x="1355" y="654" type="qcurve" smooth="yes" name="inserted"/>
      <point x="1355" y="472"/>
      <point x="1187" y="161"/>
      <point x="1040" y="70" type="qcurve" smooth="yes" name="inserted"/>
      <point x="966" y="25" name="inserted"/>
      <point x="805" y="-20"/>
      <point x="717" y="-20" type="qcurve" smooth="yes"/>
      <point x="544" y="-20"/>
      <point x="248" y="160"/>
      <point x="163" y="316" type="qcurve" smooth="yes" name="inserted"/>
      <point x="121" y="394" name="inserted"/>
      <point x="78" y="563"/>
    </contour>
    <contour>
      <point x="1246" y="654" type="qcurve" smooth="yes"/>
      <point x="1246" y="804"/>
      <point x="1111" y="1060"/>
      <point x="987" y="1137" type="qcurve" smooth="yes" name="inserted"/>
      <point x="926" y="1175" name="inserted"/>
      <point x="791" y="1214"/>
      <point x="717" y="1214" type="qcurve" smooth="yes"/>
      <point x="574" y="1214"/>
      <point x="329" y="1066"/>
      <point x="258" y="937" type="qcurve" smooth="yes" name="inserted"/>
      <point x="188" y="807"/>
      <point x="188" y="501"/>
      <point x="258" y="372" type="qcurve" smooth="yes" name="inserted"/>
      <point x="328" y="242"/>
      <point x="573" y="92"/>
      <point x="717" y="92" type="qcurve" smooth="yes" name="inserted"/>
      <point x="861" y="92"/>
      <point x="1109" y="245"/>
      <point x="1177" y="374" type="qcurve" smooth="yes" name="inserted"/>
      <point x="1211" y="439" name="inserted"/>
      <point x="1246" y="579"/>
    </contour>
    <contour>
      <point x="588" y="586" type="line"/>
      <point x="588" y="282" type="line"/>
      <point x="452" y="282" type="line"/>
      <point x="452" y="1047" type="line"/>
      <point x="705" y="1047" type="line" smooth="yes"/>
      <point x="842" y="1047"/>
      <point x="997" y="926"/>
      <point x="997" y="813" type="qcurve" smooth="yes"/>
      <point x="997" y="761" name="inserted"/>
      <point x="943" y="680"/>
      <point x="889" y="651" type="qcurve"/>
      <point x="948" y="625"/>
      <point x="995" y="525"/>
      <point x="995" y="452" type="qcurve" smooth="yes" name="inserted"/>
      <point x="995" y="379"/>
      <point x="1001" y="318"/>
      <point x="1010" y="297" type="qcurve"/>
      <point x="1010" y="282" type="line"/>
      <point x="870" y="282" type="line"/>
      <point x="864" y="298" name="inserted"/>
      <point x="859" y="385"/>
      <point x="859" y="457" type="qcurve" smooth="yes"/>
      <point x="859" y="525"/>
      <point x="799" y="586"/>
      <point x="730" y="586" type="qcurve" smooth="yes"/>
    </contour>
    <contour>
      <point x="588" y="706" type="line"/>
      <point x="716" y="706" type="line" smooth="yes"/>
      <point x="779" y="706"/>
      <point x="862" y="762"/>
      <point x="862" y="811" type="qcurve" smooth="yes"/>
      <point x="862" y="874"/>
      <point x="798" y="927"/>
      <point x="715" y="928" type="qcurve" smooth="yes"/>
      <point x="588" y="928" type="line"/>
    </contour>
  </outline>
</glyph>
<glyph name="macron" format="1">
  <advance width="888"/>
  <unicode hex="00AF"/>
  <outline>
    <contour>
      <point x="776" y="1298" type="line"/>
      <point x="122" y="1298" type="line"/>
      <point x="122" y="1440" type="line"/>
      <point x="776" y="1440" type="line"/>
    </contour>
  </outline>
</glyph>
<glyph name="degree" format="1">
  <advance width="700"/>
  <unicode hex="00B0"/>
  <outline>
    <contour>
      <point x="352" y="1423" type="qcurve" smooth="yes"/>
      <point x="447" y="1423"/>
      <point x="586" y="1281"/>
      <point x="586" y="1182" type="qcurve" smooth="yes" name="inserted"/>
      <point x="586" y="1083"/>
      <point x="449" y="943"/>
      <point x="352" y="943" type="qcurve" smooth="yes"/>
      <point x="254" y="943"/>
      <point x="114" y="1083"/>
      <point x="114" y="1182" type="qcurve" smooth="yes" name="inserted"/>
      <point x="114" y="1281"/>
      <point x="256" y="1423"/>
    </contour>
    <contour>
      <point x="352" y="1070" type="qcurve" smooth="yes"/>
      <point x="400" y="1070"/>
      <point x="462" y="1134"/>
      <point x="462" y="1182" type="qcurve" smooth="yes"/>
      <point x="462" y="1228"/>
      <point x="400" y="1297"/>
      <point x="352" y="1297" type="qcurve" smooth="yes" name="inserted"/>
      <point x="304" y="1297"/>
      <point x="239" y="1228"/>
      <point x="239" y="1182" type="qcurve" smooth="yes" name="inserted"/>
      <point x="239" y="1135"/>
      <point x="305" y="1070"/>
    </contour>
  </outline>
</glyph>
<glyph name="uni00B5" format="1">
  <advance width="1090"/>
  <unicode hex="00B5"/>
  <outline>
    <contour>
      <point x="349" y="932" type="line"/>
      <point x="349" y="360" type="line" smooth="yes"/>
      <point x="351" y="233"/>
      <point x="431" y="116"/>
      <point x="527" y="116" type="qcurve" smooth="yes"/>
      <point x="602" y="116" name="inserted"/>
      <point x="704" y="170"/>
      <point x="731" y="225" type="qcurve"/>
      <point x="731" y="932" type="line"/>
      <point x="950" y="932" type="line"/>
      <point x="950" y="-42" type="line"/>
      <point x="749" y="-42" type="line"/>
      <point x="743" y="36" type="line"/>
      <point x="701" y="-12" name="inserted"/>
      <point x="594" y="-60"/>
      <point x="527" y="-60" type="qcurve" smooth="yes"/>
      <point x="473" y="-60" name="inserted"/>
      <point x="384" y="-36"/>
      <point x="349" y="-11" type="qcurve"/>
      <point x="349" y="-416" type="line"/>
      <point x="131" y="-416" type="line"/>
      <point x="131" y="932" type="line"/>
    </contour>
  </outline>
</glyph>
<glyph name="paragraph" format="1">
  <advance width="905"/>
  <unicode hex="00B6"/>
  <outline>
    <contour>
      <point x="580" y="0" type="line"/>
      <point x="580" y="468" type="line"/>
      <point x="508" y="468" type="line" smooth="yes"/>
      <point x="301" y="468"/>
      <point x="62" y="697"/>
      <point x="62" y="889" type="qcurve" smooth="yes"/>
      <point x="62" y="1081"/>
      <point x="302" y="1310"/>
      <point x="509" y="1310" type="qcurve" smooth="yes"/>
      <point x="769" y="1310" type="line"/>
      <point x="769" y="0" type="line"/>
    </contour>
  </outline>
</glyph>
<glyph name="periodcentered" format="1">
  <advance width="520"/>
  <unicode hex="00B7"/>
  <outline>
    <contour>
      <point x="128" y="701" type="qcurve" smooth="yes"/>
      <point x="128" y="753"/>
      <point x="194" y="823"/>
      <point x="255" y="823" type="qcurve" smooth="yes" name="inserted"/>
      <point x="315" y="823"/>
      <point x="383" y="753"/>
      <point x="383" y="701" type="qcurve" smooth="yes"/>
      <point x="383" y="648"/>
      <point x="312" y="581"/>
      <point x="255" y="581" type="qcurve" smooth="yes"/>
      <point x="196" y="581"/>
      <point x="128" y="648"/>
    </contour>
  </outline>
</glyph>
<glyph name="cedilla" format="1">
  <advance width="475"/>
  <unicode hex="00B8"/>
  <outline>
    <contour>
      <point x="286" y="-42" type="line"/>
      <point x="276" y="-91" type="line"/>
      <point x="344" y="-103" name="inserted"/>
      <point x="411" y="-181"/>
      <point x="411" y="-246" type="qcurve" smooth="yes"/>
      <point x="411" y="-341"/>
      <point x="257" y="-447"/>
      <point x="117" y="-447" type="qcurve"/>
      <point x="111" y="-324" type="line"/>
      <point x="170" y="-324"/>
      <point x="234" y="-281"/>
      <point x="234" y="-244" type="qcurve" smooth="yes"/>
      <point x="234" y="-203"/>
      <point x="170" y="-172"/>
      <point x="98" y="-167" type="qcurve"/>
      <point x="127" y="-42" type="line"/>
    </contour>
  </outline>
</glyph>
<glyph name="ordmasculine" format="1">
  <advance width="842"/>
  <unicode hex="00BA"/>
  <outline>
    <contour>
      <point x="107" y="1078" type="line" smooth="yes"/>
      <point x="107" y="1222"/>
      <point x="279" y="1397"/>
      <point x="419" y="1397" type="qcurve" smooth="yes" name="inserted"/>
      <point x="558" y="1397"/>
      <point x="731" y="1223"/>
      <point x="731" y="1073" type="qcurve" smooth="yes"/>
      <point x="731" y="1009" type="line" smooth="yes"/>
      <point x="731" y="866"/>
      <point x="562" y="690"/>
      <point x="420" y="690" type="qcurve" smooth="yes"/>
      <point x="278" y="690"/>
      <point x="107" y="866"/>
      <point x="107" y="1013" type="qcurve" smooth="yes"/>
    </contour>
    <contour>
      <point x="265" y="1009" type="line" smooth="yes"/>
      <point x="265" y="920"/>
      <point x="348" y="821"/>
      <point x="420" y="821" type="qcurve" smooth="yes"/>
      <point x="491" y="821"/>
      <point x="572" y="919"/>
      <point x="573" y="1006" type="qcurve" smooth="yes"/>
      <point x="573" y="1078" type="line" smooth="yes"/>
      <point x="573" y="1165"/>
      <point x="490" y="1264"/>
      <point x="419" y="1264" type="qcurve" smooth="yes"/>
      <point x="348" y="1264"/>
      <point x="265" y="1166"/>
      <point x="265" y="1074" type="qcurve" smooth="yes"/>
    </contour>
  </outline>
</glyph>
<glyph name="questiondown" format="1">
  <advance width="896"/>
  <unicode hex="00BF"/>
  <outline>
    <contour>
      <point x="567" y="556" type="line"/>
      <point x="565" y="445"/>
      <point x="518" y="314"/>
      <point x="452" y="243" type="qcurve" smooth="yes"/>
      <point x="359" y="148" type="line" smooth="yes"/>
      <point x="319" y="104" name="inserted"/>
      <point x="278" y="13"/>
      <point x="278" y="-35" type="qcurve" smooth="yes"/>
      <point x="278" y="-120"/>
      <point x="366" y="-203"/>
      <point x="446" y="-203" type="qcurve" smooth="yes"/>
      <point x="526" y="-203"/>
      <point x="621" y="-113"/>
      <point x="621" y="-39" type="qcurve"/>
      <point x="840" y="-39" type="line"/>
      <point x="838" y="-198"/>
      <point x="623" y="-385"/>
      <point x="448" y="-385" type="qcurve" smooth="yes"/>
      <point x="263" y="-385"/>
      <point x="59" y="-204"/>
      <point x="59" y="-39" type="qcurve" smooth="yes"/>
      <point x="59" y="36" name="inserted"/>
      <point x="129" y="183"/>
      <point x="199" y="257" type="qcurve" smooth="yes"/>
      <point x="282" y="340" type="line" smooth="yes"/>
      <point x="317" y="373" name="inserted"/>
      <point x="356" y="457"/>
      <point x="361" y="509" type="qcurve" smooth="yes"/>
      <point x="363" y="556" type="line"/>
    </contour>
    <contour>
      <point x="585" y="836" type="qcurve" smooth="yes"/>
      <point x="585" y="786"/>
      <point x="521" y="718"/>
      <point x="462" y="718" type="qcurve" smooth="yes" name="inserted"/>
      <point x="402" y="718"/>
      <point x="338" y="786"/>
      <point x="338" y="836" type="qcurve" smooth="yes"/>
      <point x="338" y="886"/>
      <point x="402" y="953"/>
      <point x="462" y="953" type="qcurve" smooth="yes" name="inserted"/>
      <point x="521" y="953"/>
      <point x="585" y="886"/>
    </contour>
  </outline>
</glyph>
<glyph name="AE" format="1">
  <advance width="1733"/>
  <unicode hex="00C6"/>
  <outline>
    <contour>
      <point x="1691" y="0" type="line"/>
      <point x="883" y="0" type="line"/>
      <point x="869" y="306" type="line"/>
      <point x="418" y="306" type="line"/>
      <point x="252" y="0" type="line"/>
      <point x="-9" y="0" type="line"/>
      <point x="743" y="1310" type="line"/>
      <point x="1635" y="1310" type="line"/>
      <point x="1635" y="1133" type="line"/>
      <point x="1054" y="1133" type="line"/>
      <point x="1069" y="766" type="line"/>
      <point x="1562" y="766" type="line"/>
      <point x="1562" y="589" type="line"/>
      <point x="1076" y="589" type="line"/>
      <point x="1094" y="176" type="line"/>
      <point x="1691" y="176" type="line"/>
    </contour>
    <contour>
      <point x="522" y="500" type="line"/>
      <point x="861" y="500" type="line"/>
      <point x="837" y="1083" type="line"/>
    </contour>
  </outline>
</glyph>
<glyph name="Eth" format="1">
  <advance width="1231"/>
  <unicode hex="00D0"/>
  <outline>
    <contour>
      <point x="160" y="0" type="line"/>
      <point x="160" y="587" type="line"/>
      <point x="-8" y="587" type="line"/>
      <point x="-8" y="740" type="line"/>
      <point x="160" y="740" type="line"/>
      <point x="160" y="1310" type="line"/>
      <point x="547" y="1310" type="line" smooth="yes"/>
      <point x="721" y="1310"/>
      <point x="990" y="1156"/>
      <point x="1064" y="1013" type="qcurve" smooth="yes" name="inserted"/>
      <point x="1101" y="942" name="inserted"/>
      <point x="1138" y="779"/>
      <point x="1138" y="688" type="qcurve" smooth="yes"/>
      <point x="1138" y="622" type="line" smooth="yes"/>
      <point x="1138" y="436"/>
      <point x="989" y="153"/>
      <point x="852" y="77" type="qcurve" smooth="yes" name="inserted"/>
      <point x="783" y="38" name="inserted"/>
      <point x="626" y="0"/>
      <point x="537" y="0" type="qcurve" smooth="yes"/>
    </contour>
    <contour>
      <point x="594" y="587" type="line"/>
      <point x="388" y="587" type="line"/>
      <point x="388" y="182" type="line"/>
      <point x="535" y="182" type="line" smooth="yes"/>
      <point x="717" y="182"/>
      <point x="909" y="410"/>
      <point x="909" y="626" type="qcurve" smooth="yes"/>
      <point x="909" y="689" type="line" smooth="yes"/>
      <point x="909" y="902"/>
      <point x="724" y="1127"/>
      <point x="547" y="1127" type="qcurve" smooth="yes"/>
      <point x="388" y="1127" type="line"/>
      <point x="388" y="740" type="line"/>
      <point x="594" y="740" type="line"/>
    </contour>
  </outline>
</glyph>
<glyph name="multiply" format="1">
  <advance width="983"/>
  <unicode hex="00D7"/>
  <outline>
    <contour>
      <point x="69" y="349" type="line"/>
      <point x="354" y="639" type="line"/>
      <point x="69" y="929" type="line"/>
      <point x="203" y="1064" type="line"/>
      <point x="486" y="774" type="line"/>
      <point x="770" y="1064" type="line"/>
      <point x="904" y="929" type="line"/>
      <point x="619" y="639" type="line"/>
      <point x="904" y="349" type="line"/>
      <point x="770" y="214" type="line"/>
      <point x="486" y="503" type="line"/>
      <point x="203" y="214" type="line"/>
    </contour>
  </outline>
</glyph>
<glyph name="Oslash" format="1">
  <advance width="1271"/>
  <unicode hex="00D8"/>
  <outline>
    <contour>
      <point x="1183" y="612" type="line" smooth="yes"/>
      <point x="1183" y="419"/>
      <point x="1049" y="128"/>
      <point x="926" y="50" type="qcurve" smooth="yes" name="inserted"/>
      <point x="864" y="11" name="inserted"/>
      <point x="721" y="-28"/>
      <point x="640" y="-28" type="qcurve" smooth="yes"/>
      <point x="566" y="-28" name="inserted"/>
      <point x="433" y="6"/>
      <point x="374" y="40" type="qcurve"/>
      <point x="292" y="-95" type="line"/>
      <point x="140" y="-95" type="line"/>
      <point x="270" y="119" type="line"/>
      <point x="182" y="207" name="inserted"/>
      <point x="95" y="456"/>
      <point x="95" y="618" type="qcurve" smooth="yes"/>
      <point x="95" y="678" type="line" smooth="yes"/>
      <point x="95" y="870"/>
      <point x="230" y="1161"/>
      <point x="354" y="1240" type="qcurve" smooth="yes" name="inserted"/>
      <point x="416" y="1280" name="inserted"/>
      <point x="558" y="1319"/>
      <point x="638" y="1319" type="qcurve" smooth="yes"/>
      <point x="727" y="1319" name="inserted"/>
      <point x="880" y="1273"/>
      <point x="944" y="1228" type="qcurve"/>
      <point x="1022" y="1357" type="line"/>
      <point x="1173" y="1357" type="line"/>
      <point x="1040" y="1138" type="line"/>
      <point x="1111" y="1051" name="inserted"/>
      <point x="1182" y="822"/>
      <point x="1183" y="679" type="qcurve" smooth="yes"/>
    </contour>
    <contour>
      <point x="322" y="612" type="line" smooth="yes"/>
      <point x="322" y="518" name="inserted"/>
      <point x="354" y="368"/>
      <point x="386" y="310" type="qcurve"/>
      <point x="838" y="1053" type="line"/>
      <point x="799" y="1092" name="inserted"/>
      <point x="699" y="1130"/>
      <point x="638" y="1130" type="qcurve" smooth="yes"/>
      <point x="491" y="1130"/>
      <point x="324" y="899"/>
      <point x="322" y="687" type="qcurve"/>
    </contour>
    <contour>
      <point x="955" y="680" type="line" smooth="yes"/>
      <point x="955" y="755" name="inserted"/>
      <point x="935" y="881"/>
      <point x="915" y="932" type="qcurve"/>
      <point x="475" y="208" type="line"/>
      <point x="510" y="184" name="inserted"/>
      <point x="593" y="160"/>
      <point x="640" y="160" type="qcurve" smooth="yes"/>
      <point x="792" y="160"/>
      <point x="955" y="390"/>
      <point x="955" y="612" type="qcurve" smooth="yes"/>
    </contour>
  </outline>
</glyph>
<glyph name="Thorn" format="1">
  <advance width="1103"/>
  <unicode hex="00DE"/>
  <outline>
    <contour>
      <point x="352" y="1310" type="line"/>
      <point x="352" y="1058" type="line"/>
      <point x="569" y="1058" type="line" smooth="yes"/>
      <point x="788" y="1058"/>
      <point x="1035" y="844"/>
      <point x="1035" y="664" type="qcurve" smooth="yes"/>
      <point x="1035" y="485"/>
      <point x="788" y="270"/>
      <point x="570" y="270" type="qcurve" smooth="yes"/>
      <point x="352" y="270" type="line"/>
      <point x="352" y="0" type="line"/>
      <point x="133" y="0" type="line"/>
      <point x="133" y="1310" type="line"/>
    </contour>
    <contour>
      <point x="352" y="883" type="line"/>
      <point x="352" y="446" type="line"/>
      <point x="573" y="446" type="line" smooth="yes"/>
      <point x="686" y="446"/>
      <point x="816" y="563"/>
      <point x="816" y="662" type="qcurve" smooth="yes" name="inserted"/>
      <point x="816" y="762"/>
      <point x="690" y="881"/>
      <point x="581" y="883" type="qcurve" smooth="yes"/>
    </contour>
  </outline>
</glyph>
<glyph name="germandbls" format="1">
  <advance width="1130"/>
  <unicode hex="00DF"/>
  <outline>
    <contour>
      <point x="340" y="-2" type="line"/>
      <point x="122" y="-2" type="line"/>
      <point x="122" y="993" type="line" smooth="yes"/>
      <point x="122" y="1185"/>
      <point x="329" y="1399"/>
      <point x="514" y="1399" type="qcurve" smooth="yes"/>
      <point x="682" y="1399"/>
      <point x="876" y="1231"/>
      <point x="876" y="1079" type="qcurve" smooth="yes"/>
      <point x="876" y="1023"/>
      <point x="851" y="935"/>
      <point x="820" y="884" type="qcurve" smooth="yes" name="inserted"/>
      <point x="789" y="833"/>
      <point x="770" y="775"/>
      <point x="770" y="740" type="qcurve" smooth="yes"/>
      <point x="770" y="700"/>
      <point x="828" y="624"/>
      <point x="908" y="558" type="qcurve" smooth="yes" name="inserted"/>
      <point x="988" y="491"/>
      <point x="1061" y="368"/>
      <point x="1061" y="300" type="qcurve" smooth="yes"/>
      <point x="1061" y="147"/>
      <point x="866" y="-20"/>
      <point x="688" y="-20" type="qcurve" smooth="yes"/>
      <point x="616" y="-20"/>
      <point x="462" y="15"/>
      <point x="428" y="38" type="qcurve"/>
      <point x="472" y="213" type="line"/>
      <point x="512" y="188"/>
      <point x="626" y="155"/>
      <point x="675" y="155" type="qcurve" smooth="yes"/>
      <point x="762" y="155"/>
      <point x="843" y="232"/>
      <point x="843" y="292" type="qcurve" smooth="yes"/>
      <point x="843" y="336"/>
      <point x="780" y="418"/>
      <point x="702" y="480" type="qcurve" smooth="yes" name="inserted"/>
      <point x="624" y="541"/>
      <point x="551" y="663"/>
      <point x="551" y="735" type="qcurve" smooth="yes"/>
      <point x="551" y="814"/>
      <point x="664" y="995"/>
      <point x="664" y="1065" type="qcurve" smooth="yes"/>
      <point x="664" y="1137"/>
      <point x="581" y="1225"/>
      <point x="509" y="1225" type="qcurve" smooth="yes"/>
      <point x="427" y="1225" name="inserted"/>
      <point x="342" y="1114"/>
      <point x="340" y="1002" type="qcurve"/>
    </contour>
  </outline>
</glyph>
<glyph name="ae" format="1">
  <advance width="1556"/>
  <unicode hex="00E6"/>
  <outline>
    <contour>
      <point x="1129" y="-20" type="qcurve" smooth="yes"/>
      <point x="1015" y="-20" name="inserted"/>
      <point x="838" y="52"/>
      <point x="775" y="125" type="qcurve"/>
      <point x="716" y="56"/>
      <point x="524" y="-20"/>
      <point x="403" y="-20" type="qcurve" smooth="yes"/>
      <point x="245" y="-20"/>
      <point x="65" y="138"/>
      <point x="65" y="279" type="qcurve" smooth="yes"/>
      <point x="65" y="421"/>
      <point x="279" y="576"/>
      <point x="489" y="576" type="qcurve" smooth="yes"/>
      <point x="661" y="576" type="line"/>
      <point x="661" y="640" type="line" smooth="yes"/>
      <point x="661" y="722"/>
      <point x="575" y="814"/>
      <point x="496" y="814" type="qcurve" smooth="yes"/>
      <point x="414" y="814"/>
      <point x="311" y="734"/>
      <point x="311" y="675" type="qcurve"/>
      <point x="93" y="692" type="line"/>
      <point x="93" y="823"/>
      <point x="320" y="990"/>
      <point x="498" y="990" type="qcurve" smooth="yes"/>
      <point x="598" y="990" name="inserted"/>
      <point x="748" y="930"/>
      <point x="798" y="870" type="qcurve"/>
      <point x="857" y="931" name="inserted"/>
      <point x="1006" y="991"/>
      <point x="1096" y="990" type="qcurve" smooth="yes"/>
      <point x="1287" y="990"/>
      <point x="1501" y="757"/>
      <point x="1501" y="545" type="qcurve" smooth="yes"/>
      <point x="1501" y="422" type="line"/>
      <point x="876" y="422" type="line"/>
      <point x="884" y="297"/>
      <point x="1021" y="155"/>
      <point x="1141" y="155" type="qcurve" smooth="yes"/>
      <point x="1203" y="155" name="inserted"/>
      <point x="1313" y="181"/>
      <point x="1361" y="207" type="qcurve" smooth="yes"/>
      <point x="1416" y="237" type="line"/>
      <point x="1481" y="88" type="line"/>
      <point x="1418" y="38"/>
      <point x="1230" y="-20"/>
    </contour>
    <contour>
      <point x="446" y="146" type="qcurve" smooth="yes"/>
      <point x="498" y="146"/>
      <point x="620" y="199"/>
      <point x="661" y="237" type="qcurve"/>
      <point x="661" y="426" type="line"/>
      <point x="484" y="426" type="line" smooth="yes"/>
      <point x="391" y="424"/>
      <point x="283" y="338"/>
      <point x="283" y="275" type="qcurve" smooth="yes"/>
      <point x="283" y="217"/>
      <point x="366" y="146"/>
    </contour>
    <contour>
      <point x="1096" y="814" type="qcurve" smooth="yes"/>
      <point x="1007" y="814"/>
      <point x="893" y="690"/>
      <point x="878" y="576" type="qcurve"/>
      <point x="1285" y="576" type="line"/>
      <point x="1285" y="603" type="line" smooth="yes"/>
      <point x="1285" y="705"/>
      <point x="1187" y="814"/>
    </contour>
  </outline>
</glyph>
<glyph name="eth" format="1">
  <advance width="1072"/>
  <unicode hex="00F0"/>
  <outline>
    <contour>
      <point x="751" y="1171" type="line"/>
      <point x="865" y="1051" name="inserted"/>
      <point x="979" y="752"/>
      <point x="979" y="571" type="qcurve" smooth="yes"/>
      <point x="979" y="498" type="line" smooth="yes"/>
      <point x="979" y="348"/>
      <point x="866" y="111"/>
      <point x="763" y="46" type="qcurve" smooth="yes" name="inserted"/>
      <point x="711" y="13" name="inserted"/>
      <point x="597" y="-20"/>
      <point x="534" y="-20" type="qcurve" smooth="yes"/>
      <point x="410" y="-20"/>
      <point x="206" y="93"/>
      <point x="149" y="195" type="qcurve" smooth="yes" name="inserted"/>
      <point x="121" y="246" name="inserted"/>
      <point x="93" y="358"/>
      <point x="93" y="419" type="qcurve" smooth="yes"/>
      <point x="93" y="553"/>
      <point x="194" y="761"/>
      <point x="287" y="817" type="qcurve" smooth="yes" name="inserted"/>
      <point x="333" y="846" name="inserted"/>
      <point x="439" y="874"/>
      <point x="499" y="874" type="qcurve" smooth="yes"/>
      <point x="564" y="874" name="inserted"/>
      <point x="681" y="833"/>
      <point x="732" y="792" type="qcurve"/>
      <point x="710" y="868" name="inserted"/>
      <point x="631" y="999"/>
      <point x="574" y="1054" type="qcurve"/>
      <point x="391" y="932" type="line"/>
      <point x="320" y="1030" type="line"/>
      <point x="475" y="1133" type="line"/>
      <point x="419" y="1170" name="inserted"/>
      <point x="289" y="1226"/>
      <point x="216" y="1245" type="qcurve"/>
      <point x="284" y="1420" type="line"/>
      <point x="391" y="1398" name="inserted"/>
      <point x="577" y="1314"/>
      <point x="657" y="1254" type="qcurve"/>
      <point x="819" y="1362" type="line"/>
      <point x="889" y="1263" type="line"/>
    </contour>
    <contour>
      <point x="761" y="595" type="line"/>
      <point x="760" y="611" type="line"/>
      <point x="731" y="654"/>
      <point x="620" y="705"/>
      <point x="550" y="705" type="qcurve" smooth="yes"/>
      <point x="437" y="705"/>
      <point x="311" y="553"/>
      <point x="311" y="419" type="qcurve" smooth="yes"/>
      <point x="311" y="306"/>
      <point x="438" y="155"/>
      <point x="537" y="155" type="qcurve" smooth="yes"/>
      <point x="637" y="155"/>
      <point x="761" y="335"/>
      <point x="761" y="490" type="qcurve" smooth="yes"/>
    </contour>
  </outline>
</glyph>
<glyph name="divide" format="1">
  <advance width="1052"/>
  <unicode hex="00F7"/>
  <outline>
    <contour>
      <point x="971" y="541" type="line"/>
      <point x="60" y="541" type="line"/>
      <point x="60" y="732" type="line"/>
      <point x="971" y="732" type="line"/>
    </contour>
    <contour>
      <point x="626" y="904" type="line"/>
      <point x="408" y="904" type="line"/>
      <point x="408" y="1102" type="line"/>
      <point x="626" y="1102" type="line"/>
    </contour>
    <contour>
      <point x="626" y="170" type="line"/>
      <point x="408" y="170" type="line"/>
      <point x="408" y="369" type="line"/>
      <point x="626" y="369" type="line"/>
    </contour>
  </outline>
</glyph>
<glyph name="oslash" format="1">
  <advance width="1044.0"/>
  <unicode hex="00F8"/>
  <outline>
    <contour>
      <point x="71" y="482" type="qcurve" smooth="yes"/>
      <point x="71" y="625"/>
      <point x="185" y="855"/>
      <point x="287" y="916" type="qcurve" smooth="yes" name="inserted"/>
      <point x="338" y="947" name="inserted"/>
      <point x="456" y="978"/>
      <point x="523" y="978" type="qcurve" smooth="yes"/>
      <point x="571" y="978" name="inserted"/>
      <point x="658" y="963"/>
      <point x="698" y="948" type="qcurve"/>
      <point x="761" y="1076" type="line"/>
      <point x="892" y="1076" type="line"/>
      <point x="800" y="889" type="line"/>
      <point x="888" y="820" name="inserted"/>
      <point x="977" y="607"/>
      <point x="977" y="463" type="qcurve" smooth="yes"/>
      <point x="977" y="319"/>
      <point x="866" y="93"/>
      <point x="763" y="30" type="qcurve" smooth="yes" name="inserted"/>
      <point x="711" y="-1" name="inserted"/>
      <point x="592" y="-32"/>
      <point x="525" y="-32" type="qcurve" smooth="yes"/>
      <point x="483" y="-32" name="inserted"/>
      <point x="401" y="-18"/>
      <point x="360" y="-5" type="qcurve"/>
      <point x="295" y="-137" type="line"/>
      <point x="165" y="-137" type="line"/>
      <point x="257" y="49" type="line"/>
      <point x="164" y="117" name="inserted"/>
      <point x="71" y="333"/>
    </contour>
    <contour>
      <point x="290" y="463" type="qcurve" smooth="yes"/>
      <point x="290" y="393" name="inserted"/>
      <point x="319" y="279"/>
      <point x="347" y="235" type="qcurve"/>
      <point x="617" y="783" type="line"/>
      <point x="595" y="793" name="inserted"/>
      <point x="549" y="803"/>
      <point x="523" y="803" type="qcurve" smooth="yes"/>
      <point x="416" y="803"/>
      <point x="290" y="633"/>
    </contour>
    <contour>
      <point x="759" y="482" type="qcurve" smooth="yes"/>
      <point x="759" y="549" name="inserted"/>
      <point x="733" y="657"/>
      <point x="707" y="699" type="qcurve"/>
      <point x="440" y="158" type="line"/>
      <point x="459" y="151" name="inserted"/>
      <point x="502" y="143"/>
      <point x="525" y="143" type="qcurve" smooth="yes"/>
      <point x="635" y="143"/>
      <point x="759" y="316"/>
    </contour>
  </outline>
</glyph>
<glyph name="thorn" format="1">
  <advance width="1058"/>
  <unicode hex="00FE"/>
  <outline>
    <contour>
      <point x="971" y="435" type="line" smooth="yes"/>
      <point x="971" y="213"/>
      <point x="767" y="-60"/>
      <point x="592" y="-60" type="qcurve" smooth="yes"/>
      <point x="512" y="-60" name="inserted"/>
      <point x="384" y="-7"/>
      <point x="336" y="46" type="qcurve"/>
      <point x="336" y="-416" type="line"/>
      <point x="117" y="-416" type="line"/>
      <point x="117" y="1341" type="line"/>
      <point x="336" y="1341" type="line"/>
      <point x="336" y="843" type="line"/>
      <point x="383" y="897" name="inserted"/>
      <point x="510" y="950"/>
      <point x="590" y="950" type="qcurve" smooth="yes"/>
      <point x="767" y="950"/>
      <point x="971" y="686"/>
      <point x="971" y="450" type="qcurve" smooth="yes"/>
    </contour>
    <contour>
      <point x="752" y="454" type="qcurve" smooth="yes"/>
      <point x="752" y="604"/>
      <point x="635" y="771"/>
      <point x="528" y="771" type="qcurve" smooth="yes"/>
      <point x="461" y="771" name="inserted"/>
      <point x="365" y="716"/>
      <point x="336" y="660" type="qcurve"/>
      <point x="336" y="228" type="line"/>
      <point x="365" y="172" name="inserted"/>
      <point x="463" y="115"/>
      <point x="530" y="115" type="qcurve" smooth="yes"/>
      <point x="635" y="115"/>
      <point x="752" y="283"/>
    </contour>
  </outline>
</glyph>
<glyph name="Aogonek" format="1">
  <advance width="1227"/>
  <unicode hex="0104"/>
  <outline>
    <contour>
      <point x="716" y="1267" type="line"/>
      <point x="1211" y="-43" type="line"/>
      <point x="1156" y="-43" type="line"/>
      <point x="1077" y="-93"/>
      <point x="1011" y="-178"/>
      <point x="1011" y="-222" type="qcurve" smooth="yes"/>
      <point x="1011" y="-253" name="inserted"/>
      <point x="1043" y="-283"/>
      <point x="1075" y="-283" type="qcurve" smooth="yes"/>
      <point x="1094" y="-283" name="inserted"/>
      <point x="1135" y="-273"/>
      <point x="1156" y="-263" type="qcurve"/>
      <point x="1175" y="-390" type="line"/>
      <point x="1142" y="-410" name="inserted"/>
      <point x="1067" y="-430"/>
      <point x="1026" y="-430" type="qcurve" smooth="yes"/>
      <point x="941" y="-430"/>
      <point x="836" y="-331"/>
      <point x="836" y="-249" type="qcurve" smooth="yes"/>
      <point x="836" y="-186" name="inserted"/>
      <point x="903" y="-78"/>
      <point x="970" y="-34" type="qcurve"/>
      <point x="867" y="262" type="line"/>
      <point x="359" y="262" type="line"/>
      <point x="253" y="-43" type="line"/>
      <point x="16" y="-43" type="line"/>
      <point x="511" y="1267" type="line"/>
    </contour>
    <contour>
      <point x="423" y="446" type="line"/>
      <point x="803" y="446" type="line"/>
      <point x="613" y="989" type="line"/>
    </contour>
  </outline>
</glyph>
<glyph name="aogonek" format="1">
  <advance width="997"/>
  <unicode hex="0105"/>
  <outline>
    <contour>
      <point x="690" y="-37" type="qcurve"/>
      <point x="685" y="-25" name="inserted"/>
      <point x="675" y="17"/>
      <point x="669" y="48" type="qcurve"/>
      <point x="617" y="-7" name="inserted"/>
      <point x="489" y="-61"/>
      <point x="413" y="-61" type="qcurve" smooth="yes"/>
      <point x="266" y="-61"/>
      <point x="81" y="106"/>
      <point x="81" y="230" type="qcurve" smooth="yes"/>
      <point x="81" y="385"/>
      <point x="312" y="552"/>
      <point x="527" y="552" type="qcurve" smooth="yes"/>
      <point x="662" y="552" type="line"/>
      <point x="662" y="616" type="line" smooth="yes"/>
      <point x="662" y="691"/>
      <point x="577" y="782"/>
      <point x="491" y="782" type="qcurve" smooth="yes"/>
      <point x="416" y="782"/>
      <point x="320" y="708"/>
      <point x="320" y="650" type="qcurve"/>
      <point x="102" y="650" type="line"/>
      <point x="102" y="730"/>
      <point x="208" y="870"/>
      <point x="299" y="909" type="qcurve" smooth="yes" name="inserted"/>
      <point x="345" y="929" name="inserted"/>
      <point x="447" y="949"/>
      <point x="503" y="949" type="qcurve" smooth="yes"/>
      <point x="674" y="949"/>
      <point x="878" y="777"/>
      <point x="880" y="621" type="qcurve" smooth="yes"/>
      <point x="880" y="182" type="line" smooth="yes"/>
      <point x="880" y="116" name="inserted"/>
      <point x="899" y="11"/>
      <point x="917" y="-28" type="qcurve"/>
      <point x="917" y="-43" type="line"/>
      <point x="879" y="-43" type="line"/>
      <point x="801" y="-93"/>
      <point x="734" y="-178"/>
      <point x="734" y="-222" type="qcurve" smooth="yes"/>
      <point x="734" y="-253" name="inserted"/>
      <point x="766" y="-283"/>
      <point x="798" y="-283" type="qcurve" smooth="yes"/>
      <point x="818" y="-283" name="inserted"/>
      <point x="859" y="-273"/>
      <point x="879" y="-263" type="qcurve"/>
      <point x="898" y="-390" type="line"/>
      <point x="865" y="-410" name="inserted"/>
      <point x="791" y="-430"/>
      <point x="750" y="-430" type="qcurve" smooth="yes"/>
      <point x="664" y="-430"/>
      <point x="560" y="-331"/>
      <point x="560" y="-249" type="qcurve" smooth="yes"/>
      <point x="560" y="-186" name="inserted"/>
      <point x="625" y="-80"/>
    </contour>
    <contour>
      <point x="454" y="115" type="qcurve" smooth="yes"/>
      <point x="518" y="115"/>
      <point x="633" y="178"/>
      <point x="662" y="231" type="qcurve"/>
      <point x="662" y="414" type="line"/>
      <point x="544" y="414" type="line" smooth="yes"/>
      <point x="422" y="414"/>
      <point x="300" y="330"/>
      <point x="300" y="252" type="qcurve" smooth="yes"/>
      <point x="300" y="189"/>
      <point x="383" y="115"/>
    </contour>
  </outline>
</glyph>
<glyph name="dcroat" format="1">
  <advance width="1067"/>
  <unicode hex="0111"/>
  <outline>
    <contour>
      <point x="1082" y="1101" type="line"/>
      <point x="924" y="1101" type="line"/>
      <point x="924" y="-2" type="line"/>
      <point x="726" y="-2" type="line"/>
      <point x="716" y="99" type="line"/>
      <point x="666" y="39" name="inserted"/>
      <point x="536" y="-20"/>
      <point x="454" y="-20" type="qcurve" smooth="yes"/>
      <point x="283" y="-20"/>
      <point x="71" y="255"/>
      <point x="71" y="492" type="qcurve" smooth="yes"/>
      <point x="71" y="717"/>
      <point x="280" y="990"/>
      <point x="455" y="990" type="qcurve" smooth="yes"/>
      <point x="533" y="990" name="inserted"/>
      <point x="658" y="936"/>
      <point x="706" y="882" type="qcurve"/>
      <point x="706" y="1101" type="line"/>
      <point x="480" y="1101" type="line"/>
      <point x="480" y="1254" type="line"/>
      <point x="706" y="1254" type="line"/>
      <point x="706" y="1380" type="line"/>
      <point x="924" y="1380" type="line"/>
      <point x="924" y="1254" type="line"/>
      <point x="1082" y="1254" type="line"/>
    </contour>
    <contour>
      <point x="290" y="473" type="qcurve" smooth="yes"/>
      <point x="290" y="325"/>
      <point x="404" y="158"/>
      <point x="509" y="158" type="qcurve" smooth="yes"/>
      <point x="576" y="158" name="inserted"/>
      <point x="675" y="218"/>
      <point x="706" y="278" type="qcurve"/>
      <point x="706" y="694" type="line"/>
      <point x="675" y="752" name="inserted"/>
      <point x="578" y="811"/>
      <point x="511" y="811" type="qcurve" smooth="yes"/>
      <point x="405" y="811"/>
      <point x="290" y="642"/>
    </contour>
  </outline>
</glyph>
<glyph name="Eogonek" format="1">
  <advance width="1042"/>
  <unicode hex="0118"/>
  <outline>
    <contour>
      <point x="899" y="542" type="line"/>
      <point x="361" y="542" type="line"/>
      <point x="361" y="139" type="line"/>
      <point x="990" y="139" type="line"/>
      <point x="990" y="-43" type="line"/>
      <point x="890" y="-43" type="line"/>
      <point x="812" y="-93"/>
      <point x="745" y="-178"/>
      <point x="745" y="-222" type="qcurve" smooth="yes"/>
      <point x="745" y="-253" name="inserted"/>
      <point x="777" y="-283"/>
      <point x="809" y="-283" type="qcurve" smooth="yes"/>
      <point x="829" y="-283" name="inserted"/>
      <point x="869" y="-273"/>
      <point x="890" y="-263" type="qcurve"/>
      <point x="909" y="-390" type="line"/>
      <point x="876" y="-410" name="inserted"/>
      <point x="802" y="-430"/>
      <point x="761" y="-430" type="qcurve" smooth="yes"/>
      <point x="675" y="-430"/>
      <point x="571" y="-331"/>
      <point x="571" y="-249" type="qcurve" smooth="yes"/>
      <point x="571" y="-189" name="inserted"/>
      <point x="631" y="-86"/>
      <point x="692" y="-43" type="qcurve"/>
      <point x="133" y="-43" type="line"/>
      <point x="133" y="1267" type="line"/>
      <point x="984" y="1267" type="line"/>
      <point x="984" y="1084" type="line"/>
      <point x="361" y="1084" type="line"/>
      <point x="361" y="722" type="line"/>
      <point x="899" y="722" type="line"/>
    </contour>
  </outline>
</glyph>
<glyph name="eogonek" format="1">
  <advance width="989"/>
  <unicode hex="0119"/>
  <outline>
    <contour>
      <point x="916" y="125" type="line"/>
      <point x="883" y="78" name="inserted"/>
      <point x="800" y="7"/>
      <point x="749" y="-16" type="qcurve"/>
      <point x="671" y="-66"/>
      <point x="604" y="-151"/>
      <point x="604" y="-195" type="qcurve" smooth="yes"/>
      <point x="604" y="-226" name="inserted"/>
      <point x="636" y="-256"/>
      <point x="668" y="-256" type="qcurve" smooth="yes"/>
      <point x="688" y="-256" name="inserted"/>
      <point x="728" y="-246"/>
      <point x="749" y="-236" type="qcurve"/>
      <point x="768" y="-363" type="line"/>
      <point x="735" y="-383" name="inserted"/>
      <point x="661" y="-403"/>
      <point x="619" y="-403" type="qcurve" smooth="yes"/>
      <point x="534" y="-403"/>
      <point x="429" y="-304"/>
      <point x="429" y="-222" type="qcurve" smooth="yes"/>
      <point x="429" y="-176" name="inserted"/>
      <point x="465" y="-93"/>
      <point x="501" y="-57" type="qcurve"/>
      <point x="315" y="-45"/>
      <point x="80" y="203"/>
      <point x="75" y="396" type="qcurve" smooth="yes"/>
      <point x="75" y="448" type="line" smooth="yes"/>
      <point x="75" y="594"/>
      <point x="187" y="824"/>
      <point x="289" y="888" type="qcurve" smooth="yes" name="inserted"/>
      <point x="340" y="920" name="inserted"/>
      <point x="453" y="952"/>
      <point x="516" y="952" type="qcurve" smooth="yes"/>
      <point x="715" y="952"/>
      <point x="932" y="698"/>
      <point x="932" y="466" type="qcurve" smooth="yes"/>
      <point x="932" y="377" type="line"/>
      <point x="295" y="377" type="line"/>
      <point x="305" y="257"/>
      <point x="446" y="116"/>
      <point x="554" y="116" type="qcurve" smooth="yes"/>
      <point x="629" y="116" name="inserted"/>
      <point x="751" y="177"/>
      <point x="798" y="238" type="qcurve"/>
    </contour>
    <contour>
      <point x="515" y="776" type="qcurve" smooth="yes"/>
      <point x="425" y="776"/>
      <point x="314" y="650"/>
      <point x="299" y="538" type="qcurve"/>
      <point x="716" y="538" type="line"/>
      <point x="716" y="554" type="line"/>
      <point x="708" y="664"/>
      <point x="606" y="776"/>
    </contour>
  </outline>
</glyph>
<glyph name="Lslash" format="1">
  <advance width="1012"/>
  <unicode hex="0141"/>
  <outline>
    <contour>
      <point x="375" y="784" type="line"/>
      <point x="586" y="848" type="line"/>
      <point x="586" y="716" type="line"/>
      <point x="375" y="652" type="line"/>
      <point x="375" y="182" type="line"/>
      <point x="970" y="182" type="line"/>
      <point x="970" y="0" type="line"/>
      <point x="148" y="0" type="line"/>
      <point x="148" y="582" type="line"/>
      <point x="31" y="547" type="line"/>
      <point x="31" y="680" type="line"/>
      <point x="148" y="715" type="line"/>
      <point x="148" y="1310" type="line"/>
      <point x="375" y="1310" type="line"/>
    </contour>
  </outline>
</glyph>
<glyph name="lslash" format="1">
  <advance width="532"/>
  <unicode hex="0142"/>
  <outline>
    <contour>
      <point x="369" y="800" type="line"/>
      <point x="502" y="848" type="line"/>
      <point x="502" y="716" type="line"/>
      <point x="369" y="669" type="line"/>
      <point x="369" y="0" type="line"/>
      <point x="150" y="0" type="line"/>
      <point x="150" y="590" type="line"/>
      <point x="30" y="548" type="line"/>
      <point x="30" y="680" type="line"/>
      <point x="150" y="722" type="line"/>
      <point x="150" y="1382" type="line"/>
      <point x="369" y="1382" type="line"/>
    </contour>
  </outline>
</glyph>
<glyph name="OE" format="1">
  <advance width="1775"/>
  <unicode hex="0152"/>
  <outline>
    <contour>
      <point x="1653" y="-2" type="line"/>
      <point x="873" y="-2" type="line"/>
      <point x="798" y="-11" name="inserted"/>
      <point x="668" y="-20"/>
      <point x="614" y="-20" type="qcurve" smooth="yes"/>
      <point x="464" y="-20"/>
      <point x="225" y="112"/>
      <point x="158" y="233" type="qcurve" smooth="yes" name="inserted"/>
      <point x="125" y="294" name="inserted"/>
      <point x="91" y="431"/>
      <point x="90" y="507" type="qcurve" smooth="yes"/>
      <point x="90" y="790" type="line" smooth="yes"/>
      <point x="90" y="945"/>
      <point x="221" y="1191"/>
      <point x="341" y="1259" type="qcurve" smooth="yes" name="inserted"/>
      <point x="401" y="1293" name="inserted"/>
      <point x="536" y="1326"/>
      <point x="612" y="1326" type="qcurve" smooth="yes"/>
      <point x="667" y="1326" name="inserted"/>
      <point x="798" y="1317"/>
      <point x="873" y="1308" type="qcurve"/>
      <point x="1647" y="1308" type="line"/>
      <point x="1647" y="1125" type="line"/>
      <point x="1024" y="1125" type="line"/>
      <point x="1024" y="763" type="line"/>
      <point x="1562" y="763" type="line"/>
      <point x="1562" y="583" type="line"/>
      <point x="1024" y="583" type="line"/>
      <point x="1024" y="180" type="line"/>
      <point x="1653" y="180" type="line"/>
    </contour>
    <contour>
      <point x="614" y="155" type="qcurve" smooth="yes"/>
      <point x="658" y="155" name="inserted"/>
      <point x="750" y="160"/>
      <point x="797" y="166" type="qcurve"/>
      <point x="797" y="1138" type="line"/>
      <point x="745" y="1145" name="inserted"/>
      <point x="653" y="1151"/>
      <point x="612" y="1151" type="qcurve" smooth="yes"/>
      <point x="467" y="1151"/>
      <point x="310" y="965"/>
      <point x="309" y="795" type="qcurve"/>
      <point x="309" y="516" type="line" smooth="yes"/>
      <point x="309" y="343"/>
      <point x="469" y="155"/>
    </contour>
  </outline>
</glyph>
<glyph name="oe" format="1">
  <advance width="1665.0"/>
  <unicode hex="0153"/>
  <outline>
    <contour>
      <point x="82" y="494" type="line" smooth="yes"/>
      <point x="82" y="717"/>
      <point x="326" y="990"/>
      <point x="527" y="990" type="qcurve" smooth="yes"/>
      <point x="639" y="990" name="inserted"/>
      <point x="812" y="910"/>
      <point x="872" y="831" type="qcurve"/>
      <point x="931" y="906"/>
      <point x="1095" y="991"/>
      <point x="1193" y="990" type="qcurve" smooth="yes"/>
      <point x="1386" y="990"/>
      <point x="1600" y="757"/>
      <point x="1600" y="544" type="qcurve" smooth="yes"/>
      <point x="1600" y="422" type="line"/>
      <point x="986" y="422" type="line"/>
      <point x="996" y="297"/>
      <point x="1127" y="155"/>
      <point x="1232" y="155" type="qcurve" smooth="yes"/>
      <point x="1312" y="155"/>
      <point x="1441" y="192"/>
      <point x="1505" y="237" type="qcurve"/>
      <point x="1576" y="95" type="line"/>
      <point x="1512" y="39"/>
      <point x="1328" y="-20"/>
      <point x="1220" y="-20" type="qcurve" smooth="yes"/>
      <point x="1108" y="-20" name="inserted"/>
      <point x="934" y="58"/>
      <point x="871" y="137" type="qcurve"/>
      <point x="811" y="58" name="inserted"/>
      <point x="640" y="-20"/>
      <point x="529" y="-20" type="qcurve" smooth="yes"/>
      <point x="325" y="-20"/>
      <point x="82" y="251"/>
      <point x="82" y="483" type="qcurve" smooth="yes"/>
    </contour>
    <contour>
      <point x="300" y="475" type="qcurve" smooth="yes"/>
      <point x="300" y="322"/>
      <point x="420" y="155"/>
      <point x="529" y="155" type="qcurve" smooth="yes"/>
      <point x="636" y="155"/>
      <point x="757" y="321"/>
      <point x="757" y="494" type="qcurve" smooth="yes"/>
      <point x="757" y="643"/>
      <point x="635" y="814"/>
      <point x="527" y="814" type="qcurve" smooth="yes"/>
      <point x="422" y="814"/>
      <point x="300" y="647"/>
    </contour>
    <contour>
      <point x="1193" y="814" type="qcurve" smooth="yes"/>
      <point x="1117" y="814"/>
      <point x="1009" y="691"/>
      <point x="991" y="582" type="qcurve"/>
      <point x="1384" y="582" type="line"/>
      <point x="1384" y="605" type="line" smooth="yes"/>
      <point x="1384" y="705"/>
      <point x="1283" y="814"/>
    </contour>
  </outline>
</glyph>
<glyph name="Uogonek" format="1">
  <advance width="1202"/>
  <unicode hex="0172"/>
  <outline>
    <contour>
      <point x="1092" y="1273" type="line"/>
      <point x="1092" y="396" type="line" smooth="yes"/>
      <point x="1092" y="260"/>
      <point x="972" y="54"/>
      <point x="859" y="-1" type="qcurve"/>
      <point x="804" y="-38"/>
      <point x="733" y="-118"/>
      <point x="733" y="-167" type="qcurve" smooth="yes"/>
      <point x="733" y="-198" name="inserted"/>
      <point x="765" y="-228"/>
      <point x="797" y="-228" type="qcurve" smooth="yes"/>
      <point x="816" y="-228" name="inserted"/>
      <point x="857" y="-218"/>
      <point x="878" y="-208" type="qcurve"/>
      <point x="896" y="-335" type="line"/>
      <point x="864" y="-355" name="inserted"/>
      <point x="789" y="-375"/>
      <point x="748" y="-375" type="qcurve" smooth="yes"/>
      <point x="662" y="-375"/>
      <point x="558" y="-276"/>
      <point x="558" y="-194" type="qcurve" smooth="yes"/>
      <point x="558" y="-156" name="inserted"/>
      <point x="582" y="-87"/>
      <point x="607" y="-56" type="qcurve"/>
      <point x="376" y="-56"/>
      <point x="113" y="186"/>
      <point x="113" y="397" type="qcurve" smooth="yes"/>
      <point x="113" y="1273" type="line"/>
      <point x="339" y="1273" type="line"/>
      <point x="339" y="396" type="line" smooth="yes"/>
      <point x="339" y="265"/>
      <point x="473" y="126"/>
      <point x="602" y="126" type="qcurve" smooth="yes"/>
      <point x="734" y="126" name="inserted"/>
      <point x="865" y="265"/>
      <point x="865" y="404" type="qcurve" smooth="yes"/>
      <point x="865" y="1273" type="line"/>
    </contour>
  </outline>
</glyph>
<glyph name="uogonek" format="1">
  <advance width="1024"/>
  <unicode hex="0173"/>
  <outline>
    <contour>
      <point x="895" y="-43" type="line"/>
      <point x="816" y="-93"/>
      <point x="750" y="-178"/>
      <point x="750" y="-222" type="qcurve" smooth="yes"/>
      <point x="750" y="-253" name="inserted"/>
      <point x="782" y="-283"/>
      <point x="814" y="-283" type="qcurve" smooth="yes"/>
      <point x="833" y="-283" name="inserted"/>
      <point x="874" y="-273"/>
      <point x="895" y="-263" type="qcurve"/>
      <point x="914" y="-390" type="line"/>
      <point x="881" y="-410" name="inserted"/>
      <point x="806" y="-430"/>
      <point x="765" y="-430" type="qcurve" smooth="yes"/>
      <point x="680" y="-430"/>
      <point x="575" y="-331"/>
      <point x="575" y="-249" type="qcurve" smooth="yes"/>
      <point x="575" y="-186" name="inserted"/>
      <point x="641" y="-79"/>
      <point x="707" y="-36" type="qcurve"/>
      <point x="702" y="52" type="line"/>
      <point x="654" y="-4" name="inserted"/>
      <point x="517" y="-61"/>
      <point x="428" y="-61" type="qcurve" smooth="yes"/>
      <point x="270" y="-61"/>
      <point x="107" y="124"/>
      <point x="107" y="300" type="qcurve" smooth="yes"/>
      <point x="107" y="931" type="line"/>
      <point x="326" y="931" type="line"/>
      <point x="326" y="303" type="line" smooth="yes"/>
      <point x="326" y="210" name="inserted"/>
      <point x="403" y="117"/>
      <point x="480" y="117" type="qcurve" smooth="yes"/>
      <point x="559" y="117" name="inserted"/>
      <point x="667" y="174"/>
      <point x="695" y="232" type="qcurve"/>
      <point x="695" y="931" type="line"/>
      <point x="914" y="931" type="line"/>
      <point x="914" y="-43" type="line"/>
    </contour>
  </outline>
</glyph>
<glyph name="florin" format="1">
  <advance width="648.0"/>
  <unicode hex="0192"/>
  <outline>
    <contour>
      <point x="580" y="768" type="line"/>
      <point x="399" y="768" type="line"/>
      <point x="399" y="-106" type="line" smooth="yes"/>
      <point x="399" y="-264"/>
      <point x="236" y="-437"/>
      <point x="88" y="-437" type="qcurve" smooth="yes"/>
      <point x="56" y="-437" name="inserted"/>
      <point x="-1" y="-429"/>
      <point x="-25" y="-422" type="qcurve"/>
      <point x="-12" y="-250" type="line"/>
      <point x="-5" y="-253"/>
      <point x="56" y="-262"/>
      <point x="72" y="-262" type="qcurve" smooth="yes"/>
      <point x="126" y="-262" name="inserted"/>
      <point x="180" y="-183"/>
      <point x="180" y="-105" type="qcurve" smooth="yes"/>
      <point x="180" y="768" type="line"/>
      <point x="32" y="768" type="line"/>
      <point x="32" y="930" type="line"/>
      <point x="180" y="930" type="line"/>
      <point x="180" y="1018" type="line" smooth="yes"/>
      <point x="180" y="1182"/>
      <point x="355" y="1358"/>
      <point x="514" y="1358" type="qcurve" smooth="yes"/>
      <point x="541" y="1358" name="inserted"/>
      <point x="610" y="1348"/>
      <point x="651" y="1339" type="qcurve"/>
      <point x="628" y="1170" type="line"/>
      <point x="611" y="1174" name="inserted"/>
      <point x="567" y="1179"/>
      <point x="541" y="1179" type="qcurve" smooth="yes"/>
      <point x="470" y="1179" name="inserted"/>
      <point x="399" y="1101"/>
      <point x="399" y="1023" type="qcurve"/>
      <point x="399" y="930" type="line"/>
      <point x="580" y="930" type="line"/>
    </contour>
  </outline>
</glyph>
<glyph name="circumflex" format="1">
  <advance width="898"/>
  <unicode hex="02C6"/>
  <outline>
    <contour>
      <point x="752" y="1258" type="line"/>
      <point x="752" y="1248" type="line"/>
      <point x="576" y="1248" type="line"/>
      <point x="441" y="1388" type="line"/>
      <point x="307" y="1248" type="line"/>
      <point x="133" y="1248" type="line"/>
      <point x="133" y="1260" type="line"/>
      <point x="377" y="1508" type="line"/>
      <point x="506" y="1508" type="line"/>
    </contour>
  </outline>
</glyph>
<glyph name="caron" format="1">
  <advance width="850"/>
  <unicode hex="02C7"/>
  <outline>
    <contour>
      <point x="419" y="1369" type="line"/>
      <point x="551" y="1508" type="line"/>
      <point x="738" y="1508" type="line"/>
      <point x="738" y="1499" type="line"/>
      <point x="487" y="1248" type="line"/>
      <point x="352" y="1248" type="line"/>
      <point x="103" y="1500" type="line"/>
      <point x="103" y="1508" type="line"/>
      <point x="288" y="1508" type="line"/>
    </contour>
  </outline>
</glyph>
<glyph name="breve" format="1">
  <advance width="803"/>
  <unicode hex="02D8"/>
  <outline>
    <contour>
      <point x="687" y="1482" type="line"/>
      <point x="687" y="1368"/>
      <point x="528" y="1228"/>
      <point x="396" y="1228" type="qcurve" smooth="yes" name="inserted"/>
      <point x="264" y="1228"/>
      <point x="105" y="1368"/>
      <point x="105" y="1482" type="qcurve"/>
      <point x="269" y="1482" type="line"/>
      <point x="269" y="1422"/>
      <point x="337" y="1357"/>
      <point x="396" y="1357" type="qcurve" smooth="yes" name="inserted"/>
      <point x="455" y="1357"/>
      <point x="522" y="1422"/>
      <point x="522" y="1482" type="qcurve"/>
    </contour>
  </outline>
</glyph>
<glyph name="dotaccent" format="1">
  <advance width="471"/>
  <unicode hex="02D9"/>
  <outline>
    <contour>
      <point x="116" y="1357" type="qcurve" smooth="yes"/>
      <point x="116" y="1405"/>
      <point x="177" y="1468"/>
      <point x="234" y="1468" type="qcurve" smooth="yes" name="inserted"/>
      <point x="291" y="1468"/>
      <point x="352" y="1405"/>
      <point x="352" y="1357" type="qcurve" smooth="yes"/>
      <point x="352" y="1310"/>
      <point x="291" y="1247"/>
      <point x="234" y="1247" type="qcurve" smooth="yes" name="inserted"/>
      <point x="177" y="1247"/>
      <point x="116" y="1310"/>
    </contour>
  </outline>
</glyph>
<glyph name="ring" format="1">
  <advance width="621.0"/>
  <unicode hex="02DA"/>
  <outline>
    <contour>
      <point x="308" y="1537" type="qcurve" smooth="yes"/>
      <point x="392" y="1537"/>
      <point x="507" y="1426"/>
      <point x="507" y="1350" type="qcurve" smooth="yes" name="inserted"/>
      <point x="507" y="1273"/>
      <point x="394" y="1165"/>
      <point x="308" y="1165" type="qcurve" smooth="yes"/>
      <point x="221" y="1165"/>
      <point x="108" y="1273"/>
      <point x="108" y="1350" type="qcurve" smooth="yes" name="inserted"/>
      <point x="108" y="1426"/>
      <point x="222" y="1537"/>
    </contour>
    <contour>
      <point x="207" y="1350" type="qcurve" smooth="yes"/>
      <point x="207" y="1307"/>
      <point x="266" y="1249"/>
      <point x="308" y="1249" type="qcurve" smooth="yes"/>
      <point x="350" y="1249"/>
      <point x="409" y="1306"/>
      <point x="409" y="1350" type="qcurve" smooth="yes"/>
      <point x="409" y="1391"/>
      <point x="352" y="1451"/>
      <point x="308" y="1451" type="qcurve" smooth="yes" name="inserted"/>
      <point x="264" y="1451"/>
      <point x="207" y="1391"/>
    </contour>
  </outline>
</glyph>
<glyph name="ogonek" format="1">
  <advance width="530"/>
  <unicode hex="02DB"/>
  <outline>
    <contour>
      <point x="356" y="-43" type="line"/>
      <point x="278" y="-93"/>
      <point x="212" y="-178"/>
      <point x="212" y="-222" type="qcurve" smooth="yes"/>
      <point x="212" y="-253" name="inserted"/>
      <point x="243" y="-283"/>
      <point x="275" y="-283" type="qcurve" smooth="yes"/>
      <point x="295" y="-283" name="inserted"/>
      <point x="336" y="-273"/>
      <point x="356" y="-263" type="qcurve"/>
      <point x="375" y="-390" type="line"/>
      <point x="342" y="-410" name="inserted"/>
      <point x="268" y="-430"/>
      <point x="227" y="-430" type="qcurve" smooth="yes"/>
      <point x="141" y="-430"/>
      <point x="37" y="-331"/>
      <point x="37" y="-249" type="qcurve" smooth="yes"/>
      <point x="37" y="-168" name="inserted"/>
      <point x="147" y="-38"/>
      <point x="257" y="11" type="qcurve"/>
    </contour>
  </outline>
</glyph>
<glyph name="tilde" format="1">
  <advance width="886"/>
  <unicode hex="02DC"/>
  <outline>
    <contour>
      <point x="770" y="1486" type="line"/>
      <point x="770" y="1387"/>
      <point x="655" y="1256"/>
      <point x="569" y="1256" type="qcurve" smooth="yes"/>
      <point x="534" y="1256"/>
      <point x="482" y="1271"/>
      <point x="435" y="1298" type="qcurve" smooth="yes" name="inserted"/>
      <point x="388" y="1325"/>
      <point x="349" y="1336"/>
      <point x="326" y="1336" type="qcurve" smooth="yes"/>
      <point x="292" y="1336"/>
      <point x="244" y="1284"/>
      <point x="244" y="1243" type="qcurve"/>
      <point x="110" y="1250" type="line"/>
      <point x="110" y="1349"/>
      <point x="224" y="1484"/>
      <point x="310" y="1484" type="qcurve" smooth="yes"/>
      <point x="361" y="1484"/>
      <point x="506" y="1403"/>
      <point x="553" y="1403" type="qcurve" smooth="yes"/>
      <point x="587" y="1403"/>
      <point x="635" y="1455"/>
      <point x="635" y="1497" type="qcurve"/>
    </contour>
  </outline>
</glyph>
<glyph name="hungarumlaut" format="1">
  <advance width="719"/>
  <unicode hex="02DD"/>
  <outline>
    <contour>
      <point x="554" y="1505" type="line"/>
      <point x="769" y="1505" type="line"/>
      <point x="529" y="1233" type="line"/>
      <point x="352" y="1233" type="line"/>
    </contour>
    <contour>
      <point x="222" y="1505" type="line"/>
      <point x="432" y="1505" type="line"/>
      <point x="232" y="1233" type="line"/>
      <point x="66" y="1233" type="line"/>
    </contour>
  </outline>
</glyph>
<glyph name="pi" format="1">
  <advance width="1140"/>
  <unicode hex="03C0"/>
  <outline>
    <contour>
      <point x="1074" y="802" type="line"/>
      <point x="931" y="802" type="line"/>
      <point x="931" y="274" type="line" smooth="yes"/>
      <point x="931" y="218"/>
      <point x="975" y="169"/>
      <point x="1031" y="169" type="qcurve" smooth="yes"/>
      <point x="1049" y="169" name="inserted"/>
      <point x="1087" y="173"/>
      <point x="1108" y="178" type="qcurve"/>
      <point x="1108" y="9" type="line"/>
      <point x="1075" y="-2" name="inserted"/>
      <point x="1003" y="-12"/>
      <point x="964" y="-12" type="qcurve" smooth="yes"/>
      <point x="838" y="-12" name="inserted"/>
      <point x="712" y="127"/>
      <point x="712" y="266" type="qcurve" smooth="yes"/>
      <point x="712" y="802" type="line"/>
      <point x="413" y="802" type="line"/>
      <point x="413" y="-1" type="line"/>
      <point x="194" y="-1" type="line"/>
      <point x="194" y="802" type="line"/>
      <point x="41" y="802" type="line"/>
      <point x="41" y="973" type="line"/>
      <point x="1074" y="973" type="line"/>
    </contour>
  </outline>
</glyph>
<glyph name="candrabindudeva" format="1">
  <advance width="0"/>
  <unicode hex="0901"/>
  <outline>
    <contour>
      <point x="-463" y="1671" type="line"/>
      <point x="-657" y="1671" type="line"/>
      <point x="-657" y="1862" type="line"/>
      <point x="-463" y="1862" type="line"/>
    </contour>
    <component base="ecandravowelsigndeva" xOffset="28"/>
    <contour>
      <point x="-371" y="1291" type="move" name="_top"/>
    </contour>
  </outline>
</glyph>
<glyph name="visargadeva" format="1">
  <advance width="543"/>
  <unicode hex="0903"/>
  <outline>
    <contour>
      <point x="353" y="129" type="line"/>
      <point x="138" y="129" type="line"/>
      <point x="138" y="333" type="line"/>
      <point x="353" y="333" type="line"/>
    </contour>
    <contour>
      <point x="353" y="767" type="line"/>
      <point x="138" y="767" type="line"/>
      <point x="138" y="971" type="line"/>
      <point x="353" y="971" type="line"/>
    </contour>
  </outline>
</glyph>
<glyph name="ideva" format="1">
  <advance width="1069"/>
  <unicode hex="0907"/>
  <outline>
    <contour>
      <point x="1099" y="1119" type="line"/>
      <point x="-30" y="1119" type="line"/>
      <point x="-30" y="1283" type="line"/>
      <point x="1099" y="1283" type="line"/>
    </contour>
    <contour>
      <point x="602" y="-245" type="line"/>
      <point x="353" y="63" type="line"/>
      <point x="489" y="14" type="line"/>
      <point x="389" y="14" type="line"/>
      <point x="272" y="14"/>
      <point x="130" y="97"/>
      <point x="130" y="162" type="qcurve" smooth="yes"/>
      <point x="130" y="224"/>
      <point x="216" y="314"/>
      <point x="288" y="314" type="qcurve" smooth="yes"/>
      <point x="357" y="314"/>
      <point x="467" y="243"/>
      <point x="532" y="167" type="qcurve"/>
      <point x="532" y="127" type="line"/>
      <point x="768" y="-164" type="line"/>
    </contour>
    <contour>
      <point x="434" y="953" type="qcurve" smooth="yes"/>
      <point x="712" y="953" type="line"/>
      <point x="646" y="885" type="line"/>
      <point x="646" y="1170" type="line"/>
      <point x="860" y="1170" type="line"/>
      <point x="860" y="788" type="line"/>
      <point x="443" y="788" type="line"/>
      <point x="377" y="788"/>
      <point x="310" y="728"/>
      <point x="310" y="680" type="qcurve" smooth="yes"/>
      <point x="310" y="630"/>
      <point x="390" y="564"/>
      <point x="465" y="553" type="qcurve"/>
      <point x="308" y="553" type="line"/>
      <point x="377" y="593"/>
      <point x="520" y="633"/>
      <point x="605" y="633" type="qcurve" smooth="yes"/>
      <point x="769" y="633"/>
      <point x="958" y="466"/>
      <point x="958" y="336" type="qcurve" smooth="yes"/>
      <point x="958" y="200"/>
      <point x="730" y="26"/>
      <point x="530" y="26" type="qcurve" smooth="yes"/>
      <point x="423" y="26"/>
      <point x="307" y="77"/>
      <point x="223" y="122" type="qcurve"/>
      <point x="266" y="246" type="line"/>
      <point x="334" y="217"/>
      <point x="456" y="185"/>
      <point x="511" y="185" type="qcurve" smooth="yes"/>
      <point x="623" y="185"/>
      <point x="743" y="279"/>
      <point x="743" y="342" type="qcurve" smooth="yes"/>
      <point x="743" y="399"/>
      <point x="671" y="464"/>
      <point x="601" y="464" type="qcurve" smooth="yes"/>
      <point x="530" y="465"/>
      <point x="435" y="434"/>
      <point x="386" y="402" type="qcurve"/>
      <point x="362" y="402" type="line"/>
      <point x="254" y="437"/>
      <point x="103" y="602"/>
      <point x="103" y="708" type="qcurve" smooth="yes"/>
      <point x="103" y="811"/>
      <point x="269" y="953"/>
    </contour>
  </outline>
</glyph>
<glyph name="rvocalicdeva" format="1">
  <advance width="1569"/>
  <unicode hex="090B"/>
  <outline>
    <contour>
      <point x="961" y="1119" type="line"/>
      <point x="961" y="1283" type="line"/>
      <point x="1599" y="1283" type="line"/>
      <point x="1599" y="1119" type="line"/>
    </contour>
    <contour>
      <point x="1270" y="769" type="line"/>
      <point x="1371" y="682"/>
      <point x="1471" y="492"/>
      <point x="1471" y="398" type="qcurve" smooth="yes"/>
      <point x="1471" y="273"/>
      <point x="1307" y="119"/>
      <point x="1178" y="119" type="qcurve" smooth="yes"/>
      <point x="1138" y="119"/>
      <point x="1089" y="124"/>
      <point x="1065" y="129" type="qcurve"/>
      <point x="1047" y="280" type="line"/>
      <point x="1067" y="277"/>
      <point x="1093" y="276"/>
      <point x="1120" y="276" type="qcurve" smooth="yes"/>
      <point x="1192" y="276"/>
      <point x="1272" y="349"/>
      <point x="1272" y="410" type="qcurve" smooth="yes"/>
      <point x="1272" y="468"/>
      <point x="1198" y="595"/>
      <point x="1117" y="660" type="qcurve"/>
    </contour>
    <contour>
      <point x="1342" y="709" type="qcurve" smooth="yes"/>
      <point x="1267" y="633"/>
      <point x="982" y="529"/>
      <point x="813" y="529" type="qcurve"/>
      <point x="822" y="717" type="line"/>
      <point x="916" y="717"/>
      <point x="1067" y="751"/>
      <point x="1124" y="791" type="qcurve"/>
      <point x="1086" y="737" type="line"/>
      <point x="1058" y="775"/>
      <point x="1036" y="822"/>
      <point x="1036" y="854" type="qcurve" smooth="yes"/>
      <point x="1036" y="898"/>
      <point x="1119" y="965"/>
      <point x="1193" y="965" type="qcurve" smooth="yes"/>
      <point x="1281" y="965"/>
      <point x="1399" y="881"/>
      <point x="1399" y="825" type="qcurve" smooth="yes"/>
      <point x="1399" y="789"/>
      <point x="1369" y="736"/>
    </contour>
    <contour>
      <point x="830" y="508" type="line"/>
      <point x="258" y="155" type="line"/>
      <point x="144" y="322" type="line"/>
      <point x="748" y="680" type="line"/>
    </contour>
    <contour>
      <point x="-30" y="1119" type="line"/>
      <point x="-30" y="1283" type="line"/>
      <point x="1130" y="1283" type="line"/>
      <point x="1130" y="1119" type="line"/>
    </contour>
    <contour>
      <point x="23" y="872" type="line"/>
      <point x="72" y="899"/>
      <point x="214" y="941"/>
      <point x="304" y="941" type="qcurve" smooth="yes"/>
      <point x="382" y="941"/>
      <point x="538" y="883"/>
      <point x="617" y="834" type="qcurve" smooth="yes"/>
      <point x="778" y="731" type="line"/>
      <point x="778" y="517" type="line"/>
      <point x="575" y="647" type="line"/>
      <point x="492" y="700"/>
      <point x="368" y="754"/>
      <point x="307" y="754" type="qcurve" smooth="yes"/>
      <point x="245" y="754"/>
      <point x="119" y="714"/>
      <point x="63" y="685" type="qcurve"/>
    </contour>
    <contour>
      <point x="675" y="1179" type="line"/>
      <point x="890" y="1179" type="line"/>
      <point x="890" y="0" type="line"/>
      <point x="675" y="0" type="line"/>
    </contour>
    <contour>
      <point x="752" y="1268" type="move" name="mark0"/>
    </contour>
  </outline>
</glyph>
<glyph name="lvocalicdeva" format="1">
  <advance width="1460"/>
  <unicode hex="090C"/>
  <outline>
    <contour>
      <point x="1034" y="1170" type="line"/>
      <point x="1250" y="1170" type="line"/>
      <point x="1250" y="725" type="line"/>
      <point x="1034" y="725" type="line"/>
    </contour>
    <contour>
      <point x="-30" y="1119" type="line"/>
      <point x="-30" y="1283" type="line"/>
      <point x="1490" y="1283" type="line"/>
      <point x="1490" y="1119" type="line"/>
    </contour>
    <contour>
      <point x="793" y="530" type="qcurve"/>
      <point x="622" y="423" type="line"/>
      <point x="621" y="558"/>
      <point x="507" y="694"/>
      <point x="432" y="694" type="qcurve" smooth="yes"/>
      <point x="369" y="694"/>
      <point x="282" y="590"/>
      <point x="282" y="494" type="qcurve" smooth="yes"/>
      <point x="282" y="394"/>
      <point x="363" y="206"/>
      <point x="452" y="93" type="qcurve"/>
      <point x="279" y="27" type="line"/>
      <point x="186" y="133"/>
      <point x="73" y="386"/>
      <point x="73" y="519" type="qcurve" smooth="yes"/>
      <point x="73" y="684"/>
      <point x="260" y="884"/>
      <point x="406" y="884" type="qcurve" smooth="yes"/>
      <point x="573" y="884"/>
      <point x="783" y="678"/>
    </contour>
    <contour>
      <point x="1252" y="435" type="line"/>
      <point x="1138" y="370" type="line"/>
      <point x="1142" y="398"/>
      <point x="1157" y="463"/>
      <point x="1157" y="505" type="qcurve" smooth="yes"/>
      <point x="1157" y="596"/>
      <point x="1082" y="705"/>
      <point x="1008" y="705" type="qcurve" smooth="yes"/>
      <point x="935" y="705"/>
      <point x="832" y="567"/>
      <point x="832" y="420" type="qcurve" smooth="yes"/>
      <point x="832" y="285" type="line"/>
      <point x="620" y="285" type="line"/>
      <point x="620" y="444" type="line"/>
      <point x="620" y="632"/>
      <point x="831" y="884"/>
      <point x="995" y="884" type="qcurve" smooth="yes"/>
      <point x="1167" y="884"/>
      <point x="1364" y="677"/>
      <point x="1364" y="515" type="qcurve" smooth="yes"/>
      <point x="1364" y="455"/>
      <point x="1339" y="342"/>
      <point x="1324" y="292" type="qcurve"/>
      <point x="1266" y="292" type="line"/>
      <point x="1190" y="292"/>
      <point x="1119" y="231"/>
      <point x="1119" y="181" type="qcurve" smooth="yes"/>
      <point x="1119" y="133"/>
      <point x="1196" y="80"/>
      <point x="1252" y="80" type="qcurve" smooth="yes"/>
      <point x="1294" y="80"/>
      <point x="1369" y="97"/>
      <point x="1391" y="107" type="qcurve"/>
      <point x="1413" y="-33" type="line"/>
      <point x="1381" y="-47"/>
      <point x="1290" y="-63"/>
      <point x="1248" y="-63" type="qcurve" smooth="yes"/>
      <point x="1093" y="-63"/>
      <point x="927" y="79"/>
      <point x="927" y="193" type="qcurve" smooth="yes"/>
      <point x="927" y="304"/>
      <point x="1090" y="435"/>
      <point x="1221" y="435" type="qcurve" smooth="yes"/>
    </contour>
    <contour>
      <point x="910" y="1265" type="move" name="mark0"/>
    </contour>
  </outline>
</glyph>
<glyph name="edeva" format="1">
  <advance width="1139"/>
  <unicode hex="090F"/>
  <outline>
    <contour>
      <point x="950" y="1183" type="line"/>
      <point x="950" y="808" type="line"/>
      <point x="950" y="681"/>
      <point x="849" y="490"/>
      <point x="738" y="431" type="qcurve"/>
      <point x="604" y="552" type="line"/>
      <point x="667" y="597"/>
      <point x="735" y="730"/>
      <point x="735" y="829" type="qcurve" smooth="yes"/>
      <point x="735" y="1183" type="line"/>
    </contour>
    <contour>
      <point x="-30" y="1119" type="line"/>
      <point x="-30" y="1283" type="line"/>
      <point x="1169" y="1283" type="line"/>
      <point x="1169" y="1119" type="line"/>
    </contour>
    <contour>
      <point x="155" y="1183" type="line"/>
      <point x="370" y="1183" type="line"/>
      <point x="370" y="725" type="line"/>
      <point x="370" y="441"/>
      <point x="639" y="174"/>
      <point x="921" y="174" type="qcurve"/>
      <point x="883" y="2" type="line"/>
      <point x="530" y="2"/>
      <point x="155" y="392"/>
      <point x="155" y="718" type="qcurve" smooth="yes"/>
    </contour>
    <contour>
      <point x="-35" y="15" type="move" name="x44"/>
    </contour>
  </outline>
</glyph>
<glyph name="ngadeva" format="1">
  <advance width="1254"/>
  <unicode hex="0919"/>
  <outline>
    <contour>
      <point x="1003" y="1119" type="line"/>
      <point x="1003" y="1283" type="line"/>
      <point x="1284" y="1283" type="line"/>
      <point x="1284" y="1119" type="line"/>
    </contour>
    <contour>
      <point x="1183" y="590" type="line"/>
      <point x="979" y="590" type="line"/>
      <point x="979" y="769" type="line"/>
      <point x="1183" y="769" type="line"/>
    </contour>
    <component base="ddadeva"/>
    <contour>
      <point x="483" y="40" type="move" name="btm"/>
    </contour>
    <contour>
      <point x="680" y="1290" type="move" name="top"/>
    </contour>
  </outline>
</glyph>
<glyph name="cadeva" format="1">
  <advance width="1331"/>
  <unicode hex="091A"/>
  <outline>
    <contour>
      <point x="36" y="696" type="line"/>
      <point x="36" y="865" type="line"/>
      <point x="749" y="865" type="line"/>
      <point x="749" y="696" type="line"/>
    </contour>
    <contour>
      <point x="-30" y="1119" type="line"/>
      <point x="-30" y="1283" type="line"/>
      <point x="1361" y="1283" type="line"/>
      <point x="1361" y="1119" type="line"/>
    </contour>
    <contour>
      <point x="905" y="1165" type="line"/>
      <point x="1120" y="1165" type="line"/>
      <point x="1120" y="0" type="line"/>
      <point x="905" y="0" type="line"/>
    </contour>
    <contour>
      <point x="966" y="279" type="line"/>
      <point x="928" y="239"/>
      <point x="759" y="176"/>
      <point x="650" y="176" type="qcurve" smooth="yes"/>
      <point x="474" y="176"/>
      <point x="239" y="371"/>
      <point x="239" y="536" type="qcurve" smooth="yes"/>
      <point x="239" y="670"/>
      <point x="433" y="860"/>
      <point x="668" y="860" type="qcurve"/>
      <point x="674" y="696" type="line"/>
      <point x="560" y="696"/>
      <point x="458" y="595"/>
      <point x="458" y="521" type="qcurve" smooth="yes"/>
      <point x="458" y="444"/>
      <point x="567" y="356"/>
      <point x="656" y="355" type="qcurve" smooth="yes"/>
      <point x="746" y="355"/>
      <point x="918" y="440"/>
      <point x="966" y="511" type="qcurve"/>
    </contour>
    <contour>
      <point x="926" y="1290" type="move" name="top"/>
    </contour>
  </outline>
</glyph>
<glyph name="jadeva" format="1">
  <advance width="1388"/>
  <unicode hex="091C"/>
  <outline>
    <contour>
      <point x="-30" y="1119" type="line"/>
      <point x="-30" y="1283" type="line"/>
      <point x="1418" y="1283" type="line"/>
      <point x="1418" y="1119" type="line"/>
    </contour>
    <contour>
      <point x="486" y="775" type="line"/>
      <point x="592" y="755"/>
      <point x="745" y="577"/>
      <point x="745" y="453" type="qcurve" smooth="yes"/>
      <point x="745" y="295"/>
      <point x="548" y="92"/>
      <point x="362" y="92" type="qcurve" smooth="yes"/>
      <point x="280" y="92"/>
      <point x="135" y="128"/>
      <point x="53" y="165" type="qcurve"/>
      <point x="90" y="331" type="line"/>
      <point x="161" y="295"/>
      <point x="267" y="269"/>
      <point x="322" y="270" type="qcurve" smooth="yes"/>
      <point x="416" y="272"/>
      <point x="528" y="372"/>
      <point x="528" y="471" type="qcurve" smooth="yes"/>
      <point x="528" y="564"/>
      <point x="376" y="698"/>
      <point x="247" y="698" type="qcurve" smooth="yes"/>
      <point x="179" y="698" type="line"/>
      <point x="179" y="866" type="line"/>
      <point x="1037" y="866" type="line"/>
      <point x="1037" y="697" type="line"/>
      <point x="486" y="697" type="line"/>
    </contour>
    <contour>
      <point x="965" y="1170" type="line"/>
      <point x="1179" y="1170" type="line"/>
      <point x="1179" y="0" type="line"/>
      <point x="965" y="0" type="line"/>
    </contour>
    <contour>
      <point x="984" y="1290" type="move" name="top"/>
    </contour>
  </outline>
</glyph>
<glyph name="nyadeva" format="1">
  <advance width="1484"/>
  <unicode hex="091E"/>
  <outline>
    <contour>
      <point x="738" y="678" type="line"/>
      <point x="1128" y="678" type="line"/>
      <point x="1128" y="501" type="line"/>
      <point x="738" y="501" type="line"/>
    </contour>
    <contour>
      <point x="-30" y="1119" type="line"/>
      <point x="-30" y="1283" type="line"/>
      <point x="1514" y="1283" type="line"/>
      <point x="1514" y="1119" type="line"/>
    </contour>
    <contour>
      <point x="1059" y="1170" type="line"/>
      <point x="1274" y="1170" type="line"/>
      <point x="1274" y="0" type="line"/>
      <point x="1059" y="0" type="line"/>
    </contour>
    <contour>
      <point x="806" y="557" type="qcurve" smooth="yes"/>
      <point x="806" y="388"/>
      <point x="589" y="172"/>
      <point x="416" y="172" type="qcurve" smooth="yes"/>
      <point x="320" y="172"/>
      <point x="142" y="221"/>
      <point x="50" y="278" type="qcurve"/>
      <point x="90" y="447" type="line"/>
      <point x="196" y="390"/>
      <point x="316" y="358"/>
      <point x="380" y="358" type="qcurve" smooth="yes"/>
      <point x="472" y="358"/>
      <point x="591" y="468"/>
      <point x="591" y="568" type="qcurve" smooth="yes"/>
      <point x="591" y="653"/>
      <point x="479" y="767"/>
      <point x="373" y="767" type="qcurve" smooth="yes"/>
      <point x="311" y="767"/>
      <point x="205" y="738"/>
      <point x="157" y="714" type="qcurve"/>
      <point x="120" y="881" type="line"/>
      <point x="174" y="907"/>
      <point x="309" y="943"/>
      <point x="382" y="943" type="qcurve" smooth="yes"/>
      <point x="571" y="943"/>
      <point x="806" y="724"/>
    </contour>
    <contour>
      <point x="1082" y="1290" type="move" name="top"/>
    </contour>
  </outline>
</glyph>
<glyph name="tthadeva" format="1">
  <advance width="1207"/>
  <unicode hex="0920"/>
  <outline>
    <contour>
      <point x="1237" y="1119" type="line"/>
      <point x="-30" y="1119" type="line"/>
      <point x="-30" y="1283" type="line"/>
      <point x="1237" y="1283" type="line"/>
    </contour>
    <contour>
      <point x="895" y="725" type="line"/>
      <point x="608" y="725" type="line"/>
      <point x="446" y="725"/>
      <point x="282" y="593"/>
      <point x="282" y="484" type="qcurve" smooth="yes"/>
      <point x="282" y="365"/>
      <point x="453" y="232"/>
      <point x="579" y="232" type="qcurve" smooth="yes"/>
      <point x="718" y="232"/>
      <point x="882" y="370"/>
      <point x="882" y="484" type="qcurve" smooth="yes"/>
      <point x="882" y="571"/>
      <point x="815" y="700"/>
      <point x="742" y="742" type="qcurve"/>
      <point x="912" y="858" type="line"/>
      <point x="993" y="800"/>
      <point x="1089" y="608"/>
      <point x="1090" y="477" type="qcurve" smooth="yes"/>
      <point x="1091" y="297"/>
      <point x="829" y="56"/>
      <point x="597" y="56" type="qcurve" smooth="yes"/>
      <point x="354" y="55"/>
      <point x="67" y="302"/>
      <point x="67" y="498" type="qcurve" smooth="yes"/>
      <point x="67" y="676"/>
      <point x="345" y="894"/>
      <point x="560" y="894" type="qcurve" smooth="yes"/>
      <point x="836" y="894" type="line"/>
      <point x="783" y="836" type="line"/>
      <point x="783" y="1174" type="line"/>
      <point x="998" y="1174" type="line"/>
      <point x="998" y="725" type="line"/>
    </contour>
    <contour>
      <point x="514" y="14" type="move" name="btm"/>
    </contour>
    <contour>
      <point x="748" y="1290" type="move" name="top"/>
    </contour>
  </outline>
</glyph>
<glyph name="ddadeva" format="1">
  <advance width="1098"/>
  <unicode hex="0921"/>
  <outline>
    <contour>
      <point x="674" y="1170" type="line"/>
      <point x="888" y="1170" type="line"/>
      <point x="888" y="787" type="line"/>
      <point x="456" y="787" type="line"/>
      <point x="383" y="787"/>
      <point x="321" y="727"/>
      <point x="321" y="677" type="qcurve" smooth="yes"/>
      <point x="321" y="624"/>
      <point x="411" y="555"/>
      <point x="493" y="544" type="qcurve"/>
      <point x="321" y="544" type="line"/>
      <point x="390" y="581"/>
      <point x="548" y="628"/>
      <point x="632" y="628" type="qcurve" smooth="yes"/>
      <point x="800" y="628"/>
      <point x="986" y="461"/>
      <point x="986" y="328" type="qcurve" smooth="yes"/>
      <point x="986" y="197"/>
      <point x="760" y="28"/>
      <point x="554" y="28" type="qcurve" smooth="yes"/>
      <point x="417" y="28"/>
      <point x="172" y="100"/>
      <point x="89" y="149" type="qcurve"/>
      <point x="138" y="320" type="line"/>
      <point x="221" y="270"/>
      <point x="445" y="196"/>
      <point x="536" y="196" type="qcurve" smooth="yes"/>
      <point x="649" y="196"/>
      <point x="774" y="273"/>
      <point x="774" y="337" type="qcurve" smooth="yes"/>
      <point x="774" y="393"/>
      <point x="699" y="459"/>
      <point x="627" y="459" type="qcurve" smooth="yes"/>
      <point x="563" y="459"/>
      <point x="450" y="425"/>
      <point x="402" y="396" type="qcurve"/>
      <point x="378" y="396" type="line"/>
      <point x="267" y="432"/>
      <point x="119" y="596"/>
      <point x="119" y="705" type="qcurve" smooth="yes"/>
      <point x="119" y="811"/>
      <point x="282" y="951"/>
      <point x="443" y="951" type="qcurve" smooth="yes"/>
      <point x="740" y="951" type="line"/>
      <point x="674" y="883" type="line"/>
    </contour>
    <contour>
      <point x="1128" y="1119" type="line"/>
      <point x="-30" y="1119" type="line"/>
      <point x="-30" y="1283" type="line"/>
      <point x="1128" y="1283" type="line"/>
    </contour>
    <contour>
      <point x="481" y="8" type="move" name="btm"/>
    </contour>
    <contour>
      <point x="675" y="1290" type="move" name="top"/>
    </contour>
  </outline>
</glyph>
<glyph name="thadeva" format="1">
  <advance width="1294"/>
  <unicode hex="0925"/>
  <outline>
    <contour>
      <point x="276" y="908" type="qcurve"/>
      <point x="114" y="888" type="line"/>
      <point x="98" y="926"/>
      <point x="87" y="996"/>
      <point x="88" y="1033" type="qcurve" smooth="yes"/>
      <point x="90" y="1133"/>
      <point x="241" y="1271"/>
      <point x="372" y="1271" type="qcurve" smooth="yes"/>
      <point x="519" y="1271"/>
      <point x="689" y="1096"/>
      <point x="689" y="966" type="qcurve" smooth="yes"/>
      <point x="689" y="794"/>
      <point x="431" y="577"/>
      <point x="223" y="578" type="qcurve"/>
      <point x="246" y="678" type="line"/>
      <point x="268" y="530"/>
      <point x="479" y="384"/>
      <point x="597" y="384" type="qcurve" smooth="yes"/>
      <point x="703" y="384"/>
      <point x="878" y="462"/>
      <point x="918" y="514" type="qcurve"/>
      <point x="918" y="286" type="line"/>
      <point x="877" y="258"/>
      <point x="719" y="212"/>
      <point x="616" y="212" type="qcurve" smooth="yes"/>
      <point x="420" y="212"/>
      <point x="100" y="440"/>
      <point x="28" y="680" type="qcurve"/>
      <point x="33" y="716" type="line"/>
      <point x="313" y="727"/>
      <point x="506" y="871"/>
      <point x="506" y="967" type="qcurve" smooth="yes"/>
      <point x="506" y="1036"/>
      <point x="432" y="1109"/>
      <point x="377" y="1109" type="qcurve" smooth="yes"/>
      <point x="324" y="1109"/>
      <point x="263" y="1040"/>
      <point x="263" y="988" type="qcurve" smooth="yes"/>
      <point x="263" y="968"/>
      <point x="270" y="931"/>
    </contour>
    <contour>
      <point x="869" y="1170" type="line"/>
      <point x="1084" y="1170" type="line"/>
      <point x="1084" y="0" type="line"/>
      <point x="869" y="0" type="line"/>
    </contour>
    <contour>
      <point x="1324" y="1119" type="line"/>
      <point x="784" y="1119" type="line"/>
      <point x="784" y="1283" type="line"/>
      <point x="1324" y="1283" type="line"/>
    </contour>
    <contour>
      <point x="888" y="1290" type="move" name="top"/>
    </contour>
  </outline>
</glyph>
<glyph name="dadeva" format="1">
  <advance width="1067"/>
  <unicode hex="0926"/>
  <outline>
    <contour>
      <point x="1097" y="1119" type="line"/>
      <point x="-30" y="1119" type="line"/>
      <point x="-30" y="1283" type="line"/>
      <point x="1097" y="1283" type="line"/>
    </contour>
    <contour>
      <point x="608" y="207" type="line"/>
      <point x="782" y="267" type="line"/>
      <point x="947" y="-137" type="line"/>
      <point x="751" y="-176" type="line"/>
    </contour>
    <contour>
      <point x="81" y="538" type="qcurve" smooth="yes"/>
      <point x="81" y="702"/>
      <point x="323" y="898"/>
      <point x="538" y="898" type="qcurve" smooth="yes"/>
      <point x="703" y="898" type="line"/>
      <point x="642" y="834" type="line"/>
      <point x="642" y="1176" type="line"/>
      <point x="857" y="1176" type="line"/>
      <point x="857" y="729" type="line"/>
      <point x="578" y="729" type="line"/>
      <point x="429" y="729"/>
      <point x="294" y="610"/>
      <point x="294" y="517" type="qcurve" smooth="yes"/>
      <point x="294" y="418"/>
      <point x="447" y="296"/>
      <point x="561" y="296" type="qcurve" smooth="yes"/>
      <point x="577" y="296"/>
      <point x="643" y="303"/>
      <point x="686" y="311" type="qcurve"/>
      <point x="594" y="229" type="line"/>
      <point x="583" y="258"/>
      <point x="563" y="308"/>
      <point x="564" y="345" type="qcurve" smooth="yes"/>
      <point x="564" y="396"/>
      <point x="646" y="474"/>
      <point x="735" y="474" type="qcurve" smooth="yes"/>
      <point x="830" y="474"/>
      <point x="949" y="368"/>
      <point x="949" y="306" type="qcurve" smooth="yes"/>
      <point x="949" y="226"/>
      <point x="774" y="125"/>
      <point x="598" y="125" type="qcurve" smooth="yes"/>
      <point x="377" y="125"/>
      <point x="81" y="350"/>
    </contour>
    <contour>
      <point x="740" y="-115" type="move" name="btm"/>
    </contour>
    <contour>
      <point x="634" y="1290" type="move" name="top"/>
    </contour>
  </outline>
</glyph>
<glyph name="dhadeva" format="1">
  <advance width="1300"/>
  <unicode hex="0927"/>
  <outline>
    <contour>
      <point x="876" y="1170" type="line"/>
      <point x="1091" y="1170" type="line"/>
      <point x="1091" y="0" type="line"/>
      <point x="876" y="0" type="line"/>
    </contour>
    <contour>
      <point x="563" y="168" type="qcurve" smooth="yes"/>
      <point x="357" y="168"/>
      <point x="127" y="368"/>
      <point x="128" y="525" type="qcurve" smooth="yes"/>
      <point x="128" y="666"/>
      <point x="371" y="849"/>
      <point x="564" y="849" type="qcurve" smooth="yes"/>
      <point x="674" y="849" type="line"/>
      <point x="688" y="680" type="line"/>
      <point x="583" y="680" type="line"/>
      <point x="461" y="680"/>
      <point x="350" y="589"/>
      <point x="350" y="513" type="qcurve" smooth="yes"/>
      <point x="350" y="436"/>
      <point x="472" y="343"/>
      <point x="572" y="343" type="qcurve" smooth="yes"/>
      <point x="678" y="343"/>
      <point x="860" y="413"/>
      <point x="923" y="470" type="qcurve"/>
      <point x="919" y="252" type="line"/>
      <point x="864" y="218"/>
      <point x="682" y="168"/>
    </contour>
    <contour>
      <point x="1330" y="1119" type="line"/>
      <point x="789" y="1119" type="line"/>
      <point x="789" y="1283" type="line"/>
      <point x="1330" y="1283" type="line"/>
    </contour>
    <contour>
      <point x="310" y="1005" type="qcurve" smooth="yes"/>
      <point x="310" y="939"/>
      <point x="435" y="848"/>
      <point x="515" y="848" type="qcurve" smooth="yes"/>
      <point x="594" y="848" type="line"/>
      <point x="594" y="705" type="line"/>
      <point x="502" y="705" type="line"/>
      <point x="351" y="705"/>
      <point x="95" y="889"/>
      <point x="95" y="1035" type="qcurve" smooth="yes"/>
      <point x="95" y="1148"/>
      <point x="263" y="1296"/>
      <point x="399" y="1296" type="qcurve" smooth="yes"/>
      <point x="464" y="1296"/>
      <point x="568" y="1275"/>
      <point x="610" y="1255" type="qcurve"/>
      <point x="586" y="1107" type="line"/>
      <point x="544" y="1123"/>
      <point x="487" y="1133"/>
      <point x="443" y="1133" type="qcurve" smooth="yes"/>
      <point x="382" y="1133"/>
      <point x="310" y="1064"/>
    </contour>
    <contour>
      <point x="900" y="1290" type="move" name="top"/>
    </contour>
  </outline>
</glyph>
<glyph name="nadeva" format="1">
  <advance width="1143"/>
  <unicode hex="0928"/>
  <outline>
    <contour>
      <point x="786" y="817" type="line"/>
      <point x="786" y="638" type="line"/>
      <point x="295" y="638" type="line"/>
      <point x="377" y="691" type="line"/>
      <point x="377" y="485" type="line"/>
      <point x="377" y="422"/>
      <point x="322" y="355"/>
      <point x="267" y="355" type="qcurve" smooth="yes"/>
      <point x="189" y="355"/>
      <point x="60" y="543"/>
      <point x="60" y="658" type="qcurve" smooth="yes"/>
      <point x="60" y="732"/>
      <point x="149" y="817"/>
      <point x="247" y="817" type="qcurve" smooth="yes"/>
    </contour>
    <contour>
      <point x="-30" y="1283" type="line"/>
      <point x="1173" y="1283" type="line"/>
      <point x="1173" y="1119" type="line"/>
      <point x="-30" y="1119" type="line"/>
    </contour>
    <contour>
      <point x="719" y="1170" type="line"/>
      <point x="934" y="1170" type="line"/>
      <point x="934" y="0" type="line"/>
      <point x="719" y="0" type="line"/>
    </contour>
    <contour>
      <point x="737" y="1290" type="move" name="top"/>
    </contour>
  </outline>
</glyph>
<glyph name="nnnadeva" format="1">
  <advance width="1143"/>
  <unicode hex="0929"/>
  <outline>
    <component base="nadeva"/>
    <component base="nuktadeva" xOffset="1075"/>
    <contour>
      <point x="770" y="1279" type="move" name="top"/>
    </contour>
  </outline>
</glyph>
<glyph name="badeva" format="1">
  <advance width="1133"/>
  <unicode hex="092C"/>
  <outline>
    <contour>
      <point x="678" y="371" type="line"/>
      <point x="583" y="292" type="line"/>
      <point x="294" y="819" type="line"/>
      <point x="388" y="894" type="line"/>
    </contour>
    <component base="vadeva"/>
    <contour>
      <point x="755" y="1291" type="move" name="top"/>
    </contour>
  </outline>
</glyph>
<glyph name="yadeva" format="1">
  <advance width="1212"/>
  <unicode hex="092F"/>
  <outline>
    <contour>
      <point x="-30" y="1283" type="line"/>
      <point x="1242" y="1283" type="line"/>
      <point x="1242" y="1119" type="line"/>
      <point x="-30" y="1119" type="line"/>
    </contour>
    <contour>
      <point x="160" y="1158" type="qcurve"/>
      <point x="412" y="1158" type="line"/>
      <point x="467" y="1118"/>
      <point x="546" y="977"/>
      <point x="546" y="903" type="qcurve" smooth="yes"/>
      <point x="546" y="781"/>
      <point x="380" y="613"/>
      <point x="253" y="609" type="qcurve"/>
      <point x="275" y="683" type="line"/>
      <point x="313" y="569"/>
      <point x="477" y="442"/>
      <point x="575" y="442" type="qcurve" smooth="yes"/>
      <point x="656" y="442"/>
      <point x="770" y="490"/>
      <point x="819" y="542" type="qcurve"/>
      <point x="819" y="317" type="line"/>
      <point x="780" y="297"/>
      <point x="669" y="268"/>
      <point x="581" y="267" type="qcurve" smooth="yes"/>
      <point x="413" y="267"/>
      <point x="109" y="501"/>
      <point x="50" y="690" type="qcurve"/>
      <point x="55" y="722" type="line"/>
      <point x="198" y="739"/>
      <point x="329" y="843"/>
      <point x="329" y="925" type="qcurve" smooth="yes"/>
      <point x="329" y="991"/>
      <point x="255" y="1106"/>
    </contour>
    <contour>
      <point x="787" y="1170" type="line"/>
      <point x="1002" y="1170" type="line"/>
      <point x="1002" y="0" type="line"/>
      <point x="787" y="0" type="line"/>
    </contour>
    <contour>
      <point x="806" y="1290" type="move" name="top"/>
    </contour>
  </outline>
</glyph>
